<svg height="512" viewBox="0 0 512 512" width="512" xmlns="http://www.w3.org/2000/svg"><g id="flat"><path d="m24 24h464v464h-464z" fill="#1f6c8c"/><path d="m24 360h464v128h-464z" fill="#4799cf"/><path d="m136 182.4a34.3 34.3 0 0 0 10.1 24.39c1.92 1.91 3.9 3.76 5.9 5.58v-28.37a8 8 0 0 1 16 0v40a7.312 7.312 0 0 1 -.08 1.05c2.64 1.84 5.33 3.62 8.08 5.31v-30.36a8 8 0 0 1 16 0v39.06l3.58 1.78a8.005 8.005 0 0 1 -7.16 14.32l-7.26-3.64a177.911 177.911 0 0 1 -46.37-33.42 50.1 50.1 0 0 1 -14.72-33.13 7.77 7.77 0 0 1 -.07-.97v-64a8 8 0 0 1 16 0v25.53a50.348 50.348 0 0 1 16-10.1v-47.43a8 8 0 0 1 16 0v41.91l16-5.45v-52.46a8 8 0 0 1 16 0v47l16.15-5.5a7.482 7.482 0 0 1 -.15-1.5v-56a8 8 0 0 1 16 0v52.09l16-5.45v-62.64a8 8 0 0 1 16 0v57.18l16-5.45v-67.73h16v62.28l16.04-5.47a7.322 7.322 0 0 1 -.04-.81v-56h16v51.37l16-5.46v-45.91h16v40.46l16-5.46v-35h16v29.55l16-5.46v-24.09h16v18.64l54.35-18.64h9.65v13.65l-328.64 112.11a34.489 34.489 0 0 0 -23.36 32.64z" fill="#41dfd0"/><path d="m269.47 128.41-63.038 21.014a21.106 21.106 0 0 0 -5.99 36.908l26.758 20.068a8 8 0 1 0 9.6-12.8l-26.758-20.069a5.105 5.105 0 0 1 1.45-8.928l63.038-21.013a8 8 0 0 0 -5.06-15.18z" fill="#37c9c3"/><path d="m333.471 107.077-32 10.666a8 8 0 1 0 5.058 15.18l32-10.666a8 8 0 1 0 -5.058-15.18z" fill="#37c9c3"/><path d="m413.47 80.41-48 16a8 8 0 1 0 5.06 15.18l48-16a8 8 0 0 0 -5.06-15.18z" fill="#37c9c3"/><path d="m461.47 64.41-24 8a8 8 0 1 0 5.06 15.18l24-8a8 8 0 0 0 -5.06-15.18z" fill="#37c9c3"/><path d="m424 184h-48a8 8 0 0 1 0-16h48a8 8 0 0 1 0 16z" fill="#4799cf"/><path d="m456 208h-88a8 8 0 0 1 0-16h88a8 8 0 0 1 0 16z" fill="#4799cf"/><path d="m408 232h-24a8 8 0 0 1 0-16h24a8 8 0 0 1 0 16z" fill="#4799cf"/><path d="m96 224h-40a8 8 0 0 1 0-16h40a8 8 0 0 1 0 16z" fill="#4799cf"/><path d="m80 248h-24a8 8 0 0 1 0-16h24a8 8 0 0 1 0 16z" fill="#4799cf"/><path d="m80 200h-16a8 8 0 0 1 0-16h16a8 8 0 0 1 0 16z" fill="#4799cf"/><path d="m456 232h-24a8 8 0 0 1 0-16h24a8 8 0 0 1 0 16z" fill="#4799cf"/><path d="m120 248h-8a8 8 0 0 1 0-16h8a8 8 0 0 1 0 16z" fill="#4799cf"/><path d="m488 320v40h-464v-72h48l80-8 9.6-8 38.4-32 10.67-16 5.33-8 32-32 32 16 12 24 7.58 15.15 4.42 8.85 13.33 8 26.67 16 40 24z" fill="#6cbae5"/><path d="m184 415.272h16v72.728h-16z" fill="#744630"/><path d="m56 415.272h16v72.728h-16z" fill="#744630"/><path d="m312 408h16v80h-16z" fill="#744630"/><path d="m440 408h16v80h-16z" fill="#744630"/><path d="m184 410.909h16v29.091h-16z" fill="#5b3726"/><path d="m56 410.909h16v29.091h-16z" fill="#5b3726"/><path d="m312 408h16v32h-16z" fill="#5b3726"/><path d="m440 408h16v32h-16z" fill="#5b3726"/><g fill="#4799cf"><path d="m224 264a8 8 0 0 1 -8 8h-54.4l19.2-16h35.2a8 8 0 0 1 8 8z"/><path d="m256 272h-8a8 8 0 0 1 0-16h8a8 8 0 0 1 0 16z"/><path d="m344 272h-56a8 8 0 0 1 0-16h29.33z"/><path d="m248 232a8 8 0 0 1 -8 8h-40l10.67-16h29.33a8 8 0 0 1 8 8z"/><path d="m299.58 239.15a7.969 7.969 0 0 1 -3.58.85h-24a8 8 0 0 1 0-16h20z"/><path d="m64 320a8 8 0 0 1 -8 8h-32v-16h32a8 8 0 0 1 8 8z"/><path d="m152 328h-16a8 8 0 0 1 0-16h16a8 8 0 0 1 0 16z"/><path d="m240 328h-32a8 8 0 0 1 0-16h32a8 8 0 0 1 0 16z"/><path d="m312 328h-40a8 8 0 0 1 0-16h40a8 8 0 0 1 0 16z"/><path d="m384 328h-24a8 8 0 0 1 0-16h24a8 8 0 0 1 0 16z"/><path d="m104 328h-32a8 8 0 0 1 0-16h32a8 8 0 0 1 0 16z"/></g><path d="m112 472h-16a8 8 0 0 1 0-16h16a8 8 0 0 1 0 16z" fill="#6cbae5"/><path d="m160 472h-16a8 8 0 0 1 0-16h16a8 8 0 0 1 0 16z" fill="#6cbae5"/><path d="m40 464a8 8 0 0 1 -8 8h-8v-16h8a8 8 0 0 1 8 8z" fill="#6cbae5"/><path d="m248 472h-24a8 8 0 0 1 0-16h24a8 8 0 0 1 0 16z" fill="#6cbae5"/><path d="m288 472h-8a8 8 0 0 1 0-16h8a8 8 0 0 1 0 16z" fill="#6cbae5"/><path d="m360 472h-8a8 8 0 0 1 0-16h8a8 8 0 0 1 0 16z" fill="#6cbae5"/><path d="m416 472h-24a8 8 0 0 1 0-16h24a8 8 0 0 1 0 16z" fill="#6cbae5"/><path d="m488 456v16h-8a8 8 0 0 1 0-16z" fill="#6cbae5"/><path d="m192 304-40 88h16l-24 40h96l-24-40h16z" fill="#5e8569"/><path d="m64 304-40 88h16l-16 40h80l-16-40h16z" fill="#5e8569"/><path d="m320 304-40 88h16l-24 40h96l-24-40h16z" fill="#5e8569"/><path d="m448 304-40 88h16l-16 40h80l-16-40h16z" fill="#5e8569"/></g></svg>