<svg height="512" viewBox="0 0 512 512" width="512" xmlns="http://www.w3.org/2000/svg"><g id="flat"><path d="m488 192v104h-464v-80l16-8v-48l32-24 32 24v48l16 40h24v-40l8-16 24-8 16 72h152v-40l40-16v-32l32-24 16-8h40z" fill="#b8eaee"/><path d="m72 56a16 16 0 0 0 -32 0 16 16 0 0 0 -16 16 16 16 0 0 0 16 16h32a16 16 0 0 0 16-16 16 16 0 0 0 -16-16z" fill="#ebebeb"/><path d="m360 104a16 16 0 0 0 -32 0 16 16 0 0 0 -16 16 16 16 0 0 0 16 16h32a16 16 0 0 0 16-16 16 16 0 0 0 -16-16z" fill="#ebebeb"/><path d="m24 296h464v192h-464z" fill="#6cbae5"/><path d="m344 216v104h-152v-64l16-32v-48l32-24h24l8 5.33 9.35 6.23 6.65 4.44h32l16 24z" fill="#b8eaee"/><path d="m328 256v64h-16v-64a8 8 0 0 1 16 0z" fill="#8aced8"/><path d="m296 168v152h-16v-76.69l-16-16-8 8v84.69h-16v-88a8.008 8.008 0 0 1 2.34-5.66l13.66-13.65v-60.69h8l8 5.33v55.36l8 8v-52.69a7.966 7.966 0 0 1 1.35-4.44l6.65 4.44z" fill="#8aced8"/><path d="m80 142v90a8 8 0 0 1 -16 0v-90l8-6z" fill="#a8d6da"/><path d="m128 248v15.18a8 8 0 0 1 -16 0v-35.18l8 20z" fill="#a8d6da"/><path d="m144 248v48h48v-40l-16-72-24 8-8 16z" fill="#a8d6da"/><path d="m384 200 48 32v24l24 16v24h-112v-80z" fill="#a8d6da"/><path d="m424 140v44a8 8 0 0 1 -16 0v-34l8-6z" fill="#a8d6da"/><path d="m464 136v64a8 8 0 0 1 -16 0v-64z" fill="#a8d6da"/><g fill="#428dc5"><path d="m80 408h-48a8 8 0 0 1 0-16h48a8 8 0 0 1 0 16z"/><path d="m128 408h-16a8 8 0 0 1 0-16h16a8 8 0 0 1 0 16z"/><path d="m216 408h-56a8 8 0 0 1 0-16h56a8 8 0 0 1 0 16z"/><path d="m288 408h-40a8 8 0 0 1 0-16h40a8 8 0 0 1 0 16z"/><path d="m488 392v16h-16a8 8 0 0 1 0-16z"/><path d="m144 456h-48a8 8 0 0 1 0-16h48a8 8 0 0 1 0 16z"/><path d="m200 456h-24a8 8 0 0 1 0-16h24a8 8 0 0 1 0 16z"/><path d="m280 456h-48a8 8 0 0 1 0-16h48a8 8 0 0 1 0 16z"/><path d="m488 440v16h-64a8 8 0 0 1 0-16z"/><path d="m72 448a8 8 0 0 1 -8 8h-40v-16h40a8 8 0 0 1 8 8z"/></g><path d="m384 392-40-40v40z" fill="#cbcbcb"/><path d="m240 360h-48a8 8 0 0 1 0-16h48a8 8 0 0 1 0 16z" fill="#428dc5"/><path d="m488 344v16h-56a8 8 0 0 1 0-16z" fill="#428dc5"/><path d="m160 360h-16a8 8 0 0 1 0-16h16a8 8 0 0 1 0 16z" fill="#428dc5"/><path d="m112 360h-32a8 8 0 0 1 0-16h32a8 8 0 0 1 0 16z" fill="#428dc5"/><path d="m56 352a8 8 0 0 1 -8 8h-24v-16h24a8 8 0 0 1 8 8z" fill="#428dc5"/><path d="m440 408h-24a8 8 0 0 1 0-16h24a8 8 0 0 1 0 16z" fill="#428dc5"/><path d="m400 360h-16a8 8 0 0 1 0-16h16a8 8 0 0 1 0 16z" fill="#428dc5"/><path d="m312 360h-40a8 8 0 0 1 0-16h40a8 8 0 0 1 0 16z" fill="#428dc5"/><circle cx="176.574" cy="88" fill="#fd9226" r="24"/><path d="m176.574 48a8 8 0 0 1 -8-8v-16a8 8 0 0 1 16 0v16a8 8 0 0 1 -8 8z" fill="#f7ba61"/><path d="m135 72a7.956 7.956 0 0 1 -3.992-1.073l-13.857-8a8 8 0 0 1 8-13.856l13.857 8a8 8 0 0 1 -4.008 14.929z" fill="#f7ba61"/><path d="m121.156 128a8 8 0 0 1 -4.008-14.929l13.857-8a8 8 0 1 1 8 13.856l-13.857 8a7.963 7.963 0 0 1 -3.992 1.073z" fill="#f7ba61"/><path d="m176.574 160a8 8 0 0 1 -8-8v-16a8 8 0 0 1 16 0v16a8 8 0 0 1 -8 8z" fill="#f7ba61"/><path d="m231.992 128a7.956 7.956 0 0 1 -3.992-1.072l-13.856-8a8 8 0 1 1 8-13.856l13.856 8a8 8 0 0 1 -4.008 14.928z" fill="#f7ba61"/><path d="m218.151 72a8 8 0 0 1 -4.007-14.929l13.856-8a8 8 0 1 1 8 13.856l-13.856 8a7.97 7.97 0 0 1 -3.993 1.073z" fill="#f7ba61"/><path d="m344 432a8 8 0 0 1 -8-8v-72a8 8 0 0 1 16 0v72a8 8 0 0 1 -8 8z" fill="#8f563b"/><path d="m304 424 16 32h64l16-32z" fill="#ea9d2d"/></g></svg>