<svg height="512" viewBox="0 0 512 512" width="512" xmlns="http://www.w3.org/2000/svg"><g id="flat"><path d="m192 160-80 48 16 40h360v-40h-163.157a95.266 95.266 0 0 1 -52.843-16 95.27 95.27 0 0 1 -48.807 3.039 31.682 31.682 0 0 1 -22.122-16.9z" fill="#3b7eb0"/><path d="m104 40a16 16 0 0 0 -32 0 16 16 0 0 0 -16 16 16 16 0 0 0 16 16h32a16 16 0 0 0 16-16 16 16 0 0 0 -16-16z" fill="#dbdbdb"/><path d="m144 64a16 16 0 0 0 -32 0 16 16 0 0 0 -16 16 16 16 0 0 0 16 16h32a16 16 0 0 0 16-16 16 16 0 0 0 -16-16z" fill="#eaeae8"/><circle cx="351.996" cy="103.984" fill="#fd9226" r="32"/><path d="m24 288h464v200h-464z" fill="#fbb540"/><path d="m24 288h464v8h-464z" fill="#ea9d2d"/><path d="m368 240h-59.7a176.818 176.818 0 0 1 -69.657-14.3l-22.643-9.7-3.5 2.334a81.367 81.367 0 0 1 -45.137 13.666h-15.363a24 24 0 0 1 -24-24h8a24 24 0 0 0 24-24h8a24 24 0 0 0 24-24 8 8 0 0 1 8-8h12a12.005 12.005 0 0 1 11.317 8l.111-.06a16.489 16.489 0 0 0 14.189 14.416c9.033 1.2 17.029-5.188 18.535-14.175 1.4-8.321-5.414-15.2-5.414-15.2a62.459 62.459 0 0 0 -49.968-24.981 62.46 62.46 0 0 0 -42.808 16.977l-133.962 127.023v24h464v-48z" fill="#4799cf"/><path d="m200.005 264a8 8 0 0 1 -3.313-15.286l17.62-8a8 8 0 0 1 7.2.293l14.38 8a8 8 0 0 1 -7.78 13.982l-10.855-6.039-13.947 6.332a7.982 7.982 0 0 1 -3.305.718z" fill="#3b7eb0"/><path d="m453.694 346.608-186.511-45.582a80 80 0 0 1 96.706-58.72l31.085 7.6a80 80 0 0 1 58.72 96.705z" fill="#f9f9f9"/><path d="m379.431 246.1-12.264 1.468a80.806 80.806 0 0 0 -68.9 61.051l46.627 11.4 6.867-28.1a80.8 80.8 0 0 1 16.867-33.08z" fill="#f55648"/><path d="m379.431 246.1 10.206 6.959a80.808 80.808 0 0 1 32.972 85.948l-46.628-11.4 6.867-28.1a80.814 80.814 0 0 0 .292-37.131z" fill="#f55648"/><path d="m330.194 322.102h32v120h-32z" fill="#bd9070" transform="matrix(.971 .237 -.237 .971 100.611 -71.265)"/><path d="m133.5 353a38.967 38.967 0 1 1 -21.75-34.99 39 39 0 0 1 21.75 34.99z" fill="#fece2f"/><ellipse cx="111.75" cy="353" fill="#eaeae8" rx="21.75" ry="34.99"/><g fill="#f7ba61"><path d="m352 48a8 8 0 0 1 -8-8v-8a8 8 0 0 1 16 0v8a8 8 0 0 1 -8 8z"/><path d="m320.008 56.576a8 8 0 0 1 -6.936-4l-4-6.928a8 8 0 0 1 13.856-8l4 6.928a8 8 0 0 1 -6.92 12z"/><path d="m296.566 80a7.956 7.956 0 0 1 -3.992-1.073l-6.928-4a8 8 0 0 1 8-13.856l6.928 4a8 8 0 0 1 -4.008 14.929z"/><path d="m288 112h-8a8 8 0 0 1 0-16h8a8 8 0 0 1 0 16z"/><path d="m289.654 148a8 8 0 0 1 -4.008-14.929l6.928-4a8 8 0 1 1 8 13.856l-6.928 4a7.963 7.963 0 0 1 -3.992 1.073z"/><path d="m315.992 174.355a8 8 0 0 1 -6.92-12l4-6.928a8 8 0 1 1 13.856 8l-4 6.928a8 8 0 0 1 -6.936 4z"/><path d="m352 184a8 8 0 0 1 -8-8v-8a8 8 0 0 1 16 0v8a8 8 0 0 1 -8 8z"/><path d="m388.008 174.355a8 8 0 0 1 -6.936-4l-4-6.928a8 8 0 0 1 13.856-8l4 6.928a8 8 0 0 1 -6.92 12z"/><path d="m414.346 148a7.95 7.95 0 0 1 -3.992-1.073l-6.928-4a8 8 0 1 1 8-13.856l6.928 4a8 8 0 0 1 -4.008 14.929z"/><path d="m424 112h-8a8 8 0 0 1 0-16h8a8 8 0 0 1 0 16z"/><path d="m407.434 80a8 8 0 0 1 -4.008-14.929l6.928-4a8 8 0 0 1 8 13.856l-6.928 4a7.969 7.969 0 0 1 -3.992 1.073z"/><path d="m383.992 56.576a8 8 0 0 1 -6.92-12l4-6.928a8 8 0 1 1 13.856 8l-4 6.928a8 8 0 0 1 -6.936 4z"/></g><path d="m384 464a7.991 7.991 0 0 1 -2.733-.483l-85.13-30.957-77.165 30.866a8 8 0 1 1 -5.942-14.856l80-32a8.007 8.007 0 0 1 5.7-.091l88 32a8 8 0 0 1 -2.73 15.521z" fill="#ea9d2d"/><rect fill="#ebebeb" height="64" rx="32" width="192" x="56" y="392"/><path d="m99.939 392a131.952 131.952 0 0 0 0 64h32a131.952 131.952 0 0 1 0-64z" fill="#4799cf"/><path d="m204.061 392a131.952 131.952 0 0 1 0 64h-32a131.952 131.952 0 0 0 0-64z" fill="#4799cf"/></g></svg>