<svg height="512" viewBox="0 0 512 512" width="512" xmlns="http://www.w3.org/2000/svg"><g id="flat"><path d="m72 240h200v8h-200z" fill="#8dc79d"/><path d="m208 240h64v8h-64z" fill="#85bc94"/><path d="m264 248h-192v32l-8 16v40h168v-24l24-32z" fill="#fbb540"/><path d="m184 328v-32l24-16v-32h56v80z" fill="#ea9d2d"/><path d="m336 408v80h-312v-161.37a23.984 23.984 0 0 0 16-22.63 24 24 0 1 0 48 0 24 24 0 1 0 48 0 24 24 0 1 0 48 0 24 24 0 0 0 24 24c13.25 0 24-2.75 24-16l8 96z" fill="#6cbae5"/><path d="m336 408h-104v-96l24-32 16-64h88v88l-24 40z" fill="#da922a"/><path d="m264 384a8 8 0 0 1 -8-8v-48a8 8 0 0 1 16 0v48a8 8 0 0 1 -8 8z" fill="#c38325"/><path d="m296 384a8 8 0 0 1 -8-8v-48a8 8 0 0 1 16 0v48a8 8 0 0 1 -8 8z" fill="#c38325"/><path d="m352 248h-88l8-32h80z" fill="#7db08b"/><g fill="#428dc5"><path d="m328 432a24 24 0 0 1 -24 24 24 24 0 0 1 -24-24 24 24 0 0 1 -24 24 24 24 0 0 1 -24-24 24 24 0 0 1 -24 24 24 24 0 0 1 -24-24 24 24 0 0 1 -24 24 24 24 0 0 1 -24-24 24 24 0 0 1 -24 24 24 24 0 0 1 -24-24 24 24 0 0 1 -24 24 24 24 0 0 1 -24-24 24.019 24.019 0 0 1 -16 22.634v33.366h304z"/><path d="m112 392h-24a8 8 0 0 1 0-16h24a8 8 0 0 1 0 16z"/><path d="m64 392h-16a8 8 0 0 1 0-16h16a8 8 0 0 1 0 16z"/><path d="m192 392h-24a8 8 0 0 1 0-16h24a8 8 0 0 1 0 16z"/><path d="m232 344v16h-32a8 8 0 0 1 0-16z"/></g><path d="m239.629 122.617a40 40 0 0 0 -56.761-30.768 47.99 47.99 0 0 0 -86 19.082 23.995 23.995 0 0 0 -40.233 11.6 48.01 48.01 0 0 0 -32.635 45.469h248a48.008 48.008 0 0 0 -32.371-45.383z" fill="#eaeae8"/><path d="m488 40.8v79.2h-184a47.99 47.99 0 0 1 32.63-45.47 24 24 0 0 1 40.24-11.6 47.989 47.989 0 0 1 86-19.08 39.759 39.759 0 0 1 17.13-3.85 40.5 40.5 0 0 1 8 .8z" fill="#eaeae8"/><path d="m488 80v16h-56a8 8 0 0 1 0-16z" fill="#dbdbdb"/><path d="m400 96h-16a8 8 0 0 1 0-16h16a8 8 0 0 1 0 16z" fill="#dbdbdb"/><path d="m112 144h-16a8 8 0 0 1 0-16h16a8 8 0 0 1 0 16z" fill="#dbdbdb"/><path d="m208 144h-64a8 8 0 0 1 0-16h64a8 8 0 0 1 0 16z" fill="#dbdbdb"/><path d="m160 360v40h-48v-40l8-24v-32l16-24 16 24v32z" fill="#ea9d2d"/><path d="m152 360v40h-40v-40l8-24v-32l12-18 12 18v32z" fill="#f3af3e"/><path d="m256 280h96v24l-8 24h-112v-16z" fill="#85bc94"/><path d="m112 400h48v8h-48z" fill="#428dc5"/><path d="m232 408h96v8h-96z" fill="#428dc5"/><path d="m488 184h-48l-16 8h-72v112l-24 40v144h160z" fill="#c38325"/><path d="m392 488v-104l40-56v-88l-16-8h-32v96l-24 40v120z" fill="#da922a"/><path d="m456 488v-88l32-32v120z" fill="#da922a"/><path d="m352 192v40h64l24 16h48v-64h-48l-16 8z" fill="#6b9777"/></g></svg>