<svg height="512" viewBox="0 0 512 512" width="512" xmlns="http://www.w3.org/2000/svg"><g id="flat"><path d="m324.646 384.057a257.939 257.939 0 0 1 89.586-16.057h73.768v120h-464z" fill="#da922a"/><path d="m447.994 400.481h40.012v16h-40.012z" fill="#c38325" transform="matrix(1 -.024 .024 1 -9.688 11.373)"/><path d="m416 400h16v16h-16z" fill="#c38325"/><path d="m448 432h16v16h-16z" fill="#c38325"/><path d="m416 432h16v16h-16z" fill="#c38325"/><path d="m408 368 40-56 40 56z" fill="#f3af3e"/><path d="m472 368-24-56 40 56z" fill="#c38325"/><path d="m344 384 40-56 40 56z" fill="#f3af3e"/><path d="m408 384-24-56 40 56z" fill="#c38325"/><path d="m344 209.38a23.878 23.878 0 0 0 -16 0 24 24 0 0 0 -16 22.62v32h-48v-88a32 32 0 0 0 -32-32 32 32 0 0 0 -32 32v152h-48v-32a24 24 0 0 0 -16-22.62 23.878 23.878 0 0 0 -16 0 24 24 0 0 0 -16 22.62v60a19.994 19.994 0 0 0 20 20h76v80h64v-144h76a19.994 19.994 0 0 0 20-20v-60a24 24 0 0 0 -16-22.62z" fill="#85bc94"/><path d="m344 209.38v78.62a8 8 0 0 1 -8 8h-72v-16h64v-70.62a23.878 23.878 0 0 1 16 0z" fill="#6b9777"/><path d="m200 344v16h-72a8 8 0 0 1 -8-8v-78.62a23.878 23.878 0 0 1 16 0v70.62z" fill="#6b9777"/><path d="m224 144h16v312h-16z" fill="#6b9777"/><path d="m152 133.383h160v32h-160z" fill="#fbb540"/><path d="m208 133.383 24 32 24-32z" fill="#dc4d41"/><path d="m160 133.383 24 32 24-32z" fill="#4799cf"/><path d="m256 133.383 24 32 24-32z" fill="#4799cf"/><path d="m264 133.38h-64l1.91-13.38 4.73-33.13a8.01 8.01 0 0 1 10.45-6.46l8.59 2.87a20.09 20.09 0 0 0 12.64 0l8.59-2.87a8.01 8.01 0 0 1 10.45 6.46l4.73 33.13z" fill="#ea9d2d"/><circle cx="408" cy="104" fill="#fd9226" r="32"/><g fill="#fbd699"><path d="m400 160h16v32h-16z"/><path d="m450.911 138.912h16v32h-16z" transform="matrix(.707 -.707 .707 .707 24.875 369.877)"/><path d="m464 96h32v16h-32z"/><path d="m442.911 45.088h32v16h-32z" transform="matrix(.707 -.707 .707 .707 96.886 340.064)"/><path d="m400 16h16v32h-16z"/><path d="m349.088 37.088h16v32h-16z" transform="matrix(.707 -.707 .707 .707 67.052 268.052)"/><path d="m320 96h32v16h-32z"/><path d="m341.088 146.912h32v16h-32z" transform="matrix(.707 -.707 .707 .707 -4.944 297.888)"/></g><path d="m488 488-131.643-42.316a876.876 876.876 0 0 0 -254.298-37.684h-78.059v80z" fill="#ea9d2d"/><path d="m384 400h16v16h-16z" fill="#c38325"/><path d="m48 432h16v16h-16z" fill="#c38325"/><path d="m80 432h16v16h-16z" fill="#c38325"/><path d="m112 432h32v16h-32z" fill="#c38325"/><path d="m264 133.38h-64l1.91-13.38h60.18z" fill="#da922a"/></g></svg>