<svg height="512" viewBox="0 0 512 512" width="512" xmlns="http://www.w3.org/2000/svg"><g id="flat"><path d="m24 24h464v464h-464z" fill="#277baa"/><path d="m125.657 205.657-11.314-11.314-10.343 10.343-10.343-10.343-11.314 11.314 13.657 13.656v28.687h16v-28.686z" fill="#6b9777"/><path d="m66.343 194.343-10.343 10.343-10.343-10.343-11.314 11.314 13.657 13.656v28.687h16v-28.686l13.657-13.657z" fill="#6b9777"/><path d="m488 224-144 16-72-8-96 8h-152v248h464z" fill="#fbb540"/><path d="m488 272v216h-464v-232l134.22 40.63a190.206 190.206 0 0 0 26.04 5.52 191.43 191.43 0 0 0 112.16-18.36l64.42-32.21 7.16-3.58 9.58 1.92z" fill="#ea9d2d"/><path d="m488 331.48v156.52h-464v-148.57l40.99-23.42 7.01-4.01 10.58 5.29 30.57 15.29a289.024 289.024 0 0 0 81.69 26.56l15.21 2.54a289.232 289.232 0 0 0 76.23 2.49l17.05-1.7a288.234 288.234 0 0 0 48.56-9.11l92.32-25.64c1.29-.36 2.59-.67 3.89-.94a63.15 63.15 0 0 1 39.9 4.7z" fill="#da922a"/><path d="m332.8 352a8 8 0 0 1 -6.242-13l12.8-16a8 8 0 1 1 12.494 10l-12.8 16a7.985 7.985 0 0 1 -6.252 3z" fill="#da922a"/><path d="m367.9 312.93a8 8 0 0 1 -12.5-9.99 48.041 48.041 0 0 0 5.44-51.36l7.16-3.58 9.58 1.92a64.1 64.1 0 0 1 -9.68 63.01z" fill="#da922a"/><path d="m63.874 416a8 8 0 0 1 -7.349-11.153l8.374-19.54a8 8 0 1 1 14.707 6.3l-8.375 19.54a8 8 0 0 1 -7.357 4.853z" fill="#c38325"/><path d="m86.3 369.44a8 8 0 0 1 -7.86 6.56 7.9 7.9 0 0 1 -1.45-.13 8 8 0 0 1 -6.43-9.31 87.646 87.646 0 0 0 -4.84-48.42l-.85-2.13 7.01-4.01 10.58 5.29a103.634 103.634 0 0 1 3.84 52.15z" fill="#c38325"/><path d="m192 152-72 88h160z" fill="#d18d28"/><path d="m192 152-16 88h-56z" fill="#ea9d2d"/><path d="m328 176 56 64h-104z" fill="#d18d28"/><path d="m328 176-8 64h-40z" fill="#ea9d2d"/><path d="m136 400h16v16h-16z" fill="#c38325"/><path d="m240 408h16v16h-16z" fill="#c38325"/><path d="m248 256h16v16h-16z" fill="#c38325"/><path d="m192 264h16v16h-16z" fill="#c38325"/><path d="m80 440h16v16h-16z" fill="#c38325"/><path d="m184 384h16v16h-16z" fill="#c38325"/><path d="m280 320h16v16h-16z" fill="#da922a"/><path d="m320 400h16v16h-16z" fill="#c38325"/><path d="m376 400h16v16h-16z" fill="#c38325"/><path d="m408 440h16v16h-16z" fill="#c38325"/><path d="m448 422.72h16v16h-16z" fill="#c38325"/><path d="m128 256h16v16h-16z" fill="#c38325"/><path d="m400 280h16v16h-16z" fill="#da922a"/><path d="m296 448h16v16h-16z" fill="#c38325"/><path d="m168 448h16v16h-16z" fill="#c38325"/><path d="m256 115.719a32 32 0 1 1 0-55.438l-7.025 12.17a31.1 31.1 0 0 0 0 31.1z" fill="#fbb540"/><g fill="#f7ba61"><path d="m304 48h16v16h-16z"/><path d="m288 64h16v16h-16z"/><path d="m320 64h16v16h-16z"/><path d="m304 80h16v16h-16z"/><path d="m64 128h16v16h-16z"/><path d="m48 144h16v16h-16z"/><path d="m80 144h16v16h-16z"/><path d="m64 160h16v16h-16z"/><path d="m432 152h16v16h-16z"/><path d="m416 168h16v16h-16z"/><path d="m448 168h16v16h-16z"/><path d="m432 184h16v16h-16z"/><path d="m112 48h-16v8h-8v16h8v8h16v-8h8v-16h-8z"/></g><path d="m272 152h-8v-8h-16v8h-8v16h8v8h16v-8h8z" fill="#b8eaee"/><path d="m440 64h-8v-8h-16v8h-8v16h8v8h16v-8h8z" fill="#b8eaee"/><path d="m190.7 80.2a24 24 0 0 0 -45.4 0 19.989 19.989 0 0 0 -17.3 19.8 20 20 0 0 0 20 20h40a20 20 0 0 0 20-20 19.989 19.989 0 0 0 -17.3-19.8z" fill="#b8eaee"/><path d="m390.7 112.2a24 24 0 0 0 -45.4 0 19.989 19.989 0 0 0 -17.3 19.8 20 20 0 0 0 20 20h40a20 20 0 0 0 20-20 19.989 19.989 0 0 0 -17.3-19.8z" fill="#b8eaee"/><path d="m447.98 380.29-8.72 5.81a10.556 10.556 0 0 0 -1.6 16.24 8 8 0 0 1 -11.32 11.32 26.566 26.566 0 0 1 4.05-40.87l8.72-5.81a26.959 26.959 0 0 0 11.17-28.89l-2.04-8.15a7.706 7.706 0 0 1 -.14-3.16 62.248 62.248 0 0 1 15.49-1.29c.07.19.12.38.17.57l2.04 8.15a42.975 42.975 0 0 1 -17.82 46.08z" fill="#c38325"/></g></svg>