<svg height="512" viewBox="0 0 512 512" width="512" xmlns="http://www.w3.org/2000/svg"><g id="flat"><path d="m24 240h464v248h-464z" fill="#fbb540"/><circle cx="302.641" cy="80" fill="#fd9226" r="24"/><path d="m488 240h-464a38.333 38.333 0 0 1 31.48-37.72l56.52-10.28v-20.51a22.482 22.482 0 0 1 19.3-22.25l28.7-4.1 8-1.14 7.43-2.97 24.57-9.83 8-3.2 32 8 8 16h24l8 5.33 16 10.67h56l7.43-2.97 24.57-9.83 8-3.2 8 2.67 40 13.33z" fill="#8f563b"/><path d="m176 144v64a8 8 0 0 1 -16 0v-62.86l8-1.14 7.43-2.97a7.931 7.931 0 0 1 .57 2.97z" fill="#5b3726"/><path d="m216 130v78a8 8 0 0 1 -16 0v-76.8l8-3.2z" fill="#5b3726"/><path d="m280 157.33v50.67a8 8 0 0 1 -16 0v-56h8z" fill="#5b3726"/><path d="m312 168v40a8 8 0 0 1 -16 0v-40z" fill="#5b3726"/><path d="m400 154.67v53.33a8 8 0 0 1 -16 0v-52.8l8-3.2z" fill="#5b3726"/><path d="m250.343 274.343-10.343 10.343v-12.686a8 8 0 0 0 -16 0v12.687l-10.343-10.344a8 8 0 0 0 -11.314 11.314l24 24a7.977 7.977 0 0 0 4.862 2.3h.019q.387.038.776.038c.04 0 .081 0 .121-.006.216 0 .433-.011.649-.031.044 0 .087-.014.131-.019.215-.025.429-.053.642-.094l.051-.013a7.975 7.975 0 0 0 1.465-.446 7.789 7.789 0 0 0 .969-.49c.058-.033.116-.066.173-.1a8.009 8.009 0 0 0 .876-.621c.022-.018.04-.038.061-.055.176-.148.35-.3.515-.466l24-24a8 8 0 1 0 -11.314-11.314z" fill="#a45e14"/><path d="m341.657 274.343a8 8 0 0 0 -11.314 0l-10.343 10.343v-12.686a8 8 0 0 0 -16 0v12.687l-10.343-10.344a8 8 0 0 0 -11.314 11.314l24 24a7.977 7.977 0 0 0 4.862 2.3h.019q.387.038.776.038c.04 0 .081 0 .121-.006.216 0 .433-.011.649-.031.044 0 .087-.014.131-.019.215-.025.429-.053.642-.094l.051-.013a7.975 7.975 0 0 0 1.465-.446 7.789 7.789 0 0 0 .969-.49c.058-.033.116-.066.173-.1a8.009 8.009 0 0 0 .876-.621c.022-.018.04-.038.061-.055.176-.148.35-.3.515-.466l24-24a8 8 0 0 0 .004-11.311z" fill="#a45e14"/><path d="m170.343 274.343-10.343 10.343v-12.686a8 8 0 0 0 -16 0v12.687l-10.343-10.344a8 8 0 1 0 -11.314 11.314l24 24a7.977 7.977 0 0 0 4.862 2.3h.019q.387.038.776.038c.04 0 .081 0 .121-.006.216 0 .433-.011.649-.031.044 0 .087-.014.131-.019.215-.025.429-.053.642-.094l.051-.013a7.975 7.975 0 0 0 1.465-.446 7.789 7.789 0 0 0 .969-.49c.058-.033.116-.066.173-.1a8.009 8.009 0 0 0 .876-.621c.022-.018.04-.038.061-.055.176-.148.35-.3.515-.466l24-24a8 8 0 1 0 -11.314-11.314z" fill="#a45e14"/><g fill="#da922a"><path d="m288 344h-88a8 8 0 0 1 0-16h88a8 8 0 0 1 0 16z"/><path d="m360 344h-24a8 8 0 0 1 0-16h24a8 8 0 0 1 0 16z"/><path d="m208 376h-56a8 8 0 0 1 0-16h56a8 8 0 0 1 0 16z"/><path d="m264 376h-24a8 8 0 0 1 0-16h24a8 8 0 0 1 0 16z"/><path d="m296 408h-48a8 8 0 0 1 0-16h48a8 8 0 0 1 0 16z"/><path d="m216 408h-16a8 8 0 0 1 0-16h16a8 8 0 0 1 0 16z"/><path d="m168 408h-16a8 8 0 0 1 0-16h16a8 8 0 0 1 0 16z"/><path d="m488 448v16h-40a8 8 0 0 1 0-16z"/><path d="m416 464h-24a8 8 0 0 1 0-16h24a8 8 0 0 1 0 16z"/><path d="m488 408v16h-64a8 8 0 0 1 0-16z"/><path d="m296 464h-64a8 8 0 0 1 0-16h64a8 8 0 0 1 0 16z"/><path d="m200 464h-32a8 8 0 0 1 0-16h32a8 8 0 0 1 0 16z"/><path d="m136 464h-48a8 8 0 0 1 0-16h48a8 8 0 0 1 0 16z"/><path d="m488 264v16h-32a8 8 0 0 1 0-16z"/><path d="m424 280h-16a8 8 0 0 1 0-16h16a8 8 0 0 1 0 16z"/><path d="m360 464h-32a8 8 0 0 1 0-16h32a8 8 0 0 1 0 16z"/></g><path d="m360 168v40a8 8 0 0 1 -16 0v-40h8l7.43-2.97a7.931 7.931 0 0 1 .57 2.97z" fill="#5b3726"/><path d="m302.641 40a8 8 0 0 1 -8-8v-8a8 8 0 0 1 16 0v8a8 8 0 0 1 -8 8z" fill="#fbd699"/><path d="m261.352 64.5a7.976 7.976 0 0 1 -3.993-1.072l-6.928-4a8 8 0 1 1 8-13.858l6.928 4a8 8 0 0 1 -4.007 14.93z" fill="#fbd699"/><path d="m255.013 116.5a8 8 0 0 1 -4.008-14.93l6.929-4a8 8 0 0 1 8 13.858l-6.929 4a7.978 7.978 0 0 1 -3.992 1.072z" fill="#fbd699"/><path d="m303.79 144a8 8 0 0 1 -8-8v-8a8 8 0 0 1 16 0v8a8 8 0 0 1 -8 8z" fill="#fbd699"/><path d="m351.992 115.5a7.966 7.966 0 0 1 -3.992-1.069l-6.928-4a8 8 0 0 1 8-13.856l6.928 4a8 8 0 0 1 -4.008 14.929z" fill="#fbd699"/><path d="m344.505 63.5a8 8 0 0 1 -4.008-14.93l6.929-4a8 8 0 0 1 8 13.858l-6.929 4a7.978 7.978 0 0 1 -3.992 1.072z" fill="#fbd699"/><path d="m144 64h-56a8 8 0 0 1 0-16h56a8 8 0 0 1 0 16z" fill="#f7ba61"/><path d="m176 88h-112a8 8 0 0 1 0-16h112a8 8 0 0 1 0 16z" fill="#f7ba61"/><path d="m112 112h-24a8 8 0 0 1 0-16h24a8 8 0 0 1 0 16z" fill="#f7ba61"/><path d="m168 112h-32a8 8 0 0 1 0-16h32a8 8 0 0 1 0 16z" fill="#f7ba61"/><path d="m488 88h-80a8 8 0 0 1 0-16h80a8 8 0 0 1 0 16z" fill="#f7ba61"/><path d="m472 64h-40a8 8 0 0 1 0-16h40a8 8 0 0 1 0 16z" fill="#f7ba61"/><path d="m440 112h-16a8 8 0 0 1 0-16h16a8 8 0 0 1 0 16z" fill="#f7ba61"/><path d="m56 64h-16a8 8 0 0 1 0-16h16a8 8 0 0 1 0 16z" fill="#f7ba61"/><path d="m488 112h-16a8 8 0 0 1 0-16h16a8 8 0 0 1 0 16z" fill="#f7ba61"/><path d="m88 376h32v-24a16 16 0 0 1 16-16 16 16 0 0 1 16 16v32a24 24 0 0 1 -24 24h-40z" fill="#6b9777"/><path d="m72 288a16 16 0 0 1 16 16v184a0 0 0 0 1 0 0h-32a0 0 0 0 1 0 0v-184a16 16 0 0 1 16-16z" fill="#85bc94"/><path d="m376 280a16 16 0 0 1 16 16v192a0 0 0 0 1 0 0h-32a0 0 0 0 1 0 0v-192a16 16 0 0 1 16-16z" fill="#85bc94"/><path d="m392 352h32v-24a16 16 0 0 1 16-16 16 16 0 0 1 16 16v32a24 24 0 0 1 -24 24h-40z" fill="#6b9777"/><path d="m360 392h-32v-24a16 16 0 0 0 -16-16 16 16 0 0 0 -16 16v32a24 24 0 0 0 24 24h40z" fill="#6b9777"/></g></svg>