<svg height="512" viewBox="0 0 512 512" width="512" xmlns="http://www.w3.org/2000/svg"><g id="flat"><path d="m176 184h72v72h-72z" fill="#fbd699"/><path d="m240 184h96v72h-96z" fill="#f7ba61"/><path d="m232 152h-40l-16 32h72z" fill="#dc4d41"/><path d="m264 208h16v16h-16z" fill="#b94137"/><path d="m296 208h16v16h-16z" fill="#b94137"/><path d="m200 208h16v40h-16z" fill="#f55648"/><path d="m280 128a8 8 0 0 1 -8-8v-3.078a20.946 20.946 0 0 0 -20.923-20.922h-3.077a24 24 0 0 1 0-48h24a16.019 16.019 0 0 0 16-16v-8a8 8 0 0 1 16 0v8a32.036 32.036 0 0 1 -32 32h-24a8 8 0 0 0 0 16h3.077a36.964 36.964 0 0 1 36.923 36.922v3.078a8 8 0 0 1 -8 8z" fill="#eaeae8"/><path d="m312 152h-16v-32h-32v32h-40l16 32h96z" fill="#b94137"/><path d="m384 224h16v48h-16z" fill="#bd9070"/><rect fill="#aac16b" height="80" rx="24" width="48" x="368" y="152"/><path d="m456 240h16v56h-16z" fill="#bd9070"/><path d="m112 224h16v48h-16z" fill="#bd9070"/><path d="m120 160-24 72h48z" fill="#85bc94"/><path d="m40 232h16v64h-16z" fill="#bd9070"/><path d="m48 176-24 72h48z" fill="#6b9777"/><path d="m24 296 152-48h160l152 48v192h-464z" fill="#6b9777"/><g fill="#55785f"><path d="m144 360 104-112h-24l-200 112 88 32z"/><path d="m280 248 160 80h48v-32l-152-48z"/><path d="m248 400v-152l95.15 103.8z"/></g><path d="m407.161 41.707a24 24 0 0 0 -46.322 0 15.984 15.984 0 0 0 -8.839 14.293 16 16 0 0 0 16 16h32a16 16 0 0 0 16-16 15.984 15.984 0 0 0 -8.839-14.293z" fill="#b8eaee"/><path d="m103.161 81.707a24 24 0 0 0 -46.322 0 15.984 15.984 0 0 0 -8.839 14.293 16 16 0 0 0 16 16h32a16 16 0 0 0 16-16 15.984 15.984 0 0 0 -8.839-14.293z" fill="#b8eaee"/><path d="m488 488h-312l15.988-24.6a297.581 297.581 0 0 1 249.505-135.4h46.507z" fill="#70400e"/><path d="m216 488a272.341 272.341 0 0 1 230.944-128h41.056v128z" fill="#985713"/><path d="m256 488a193.5 193.5 0 0 1 167.139-96h64.861v96z" fill="#70400e"/><path d="m292 488a147.646 147.646 0 0 1 121.666-64h74.334v64z" fill="#985713"/><path d="m320 488c-49.767-79.627-121.044-128-214.944-128h-81.056v128z" fill="#d18d28"/><path d="m280 488h-256v-96h88.861a193.5 193.5 0 0 1 167.139 96z" fill="#ea9d2d"/><path d="m244 488a147.646 147.646 0 0 0 -121.666-64h-98.334v64h224" fill="#d18d28"/><path d="m208 484.385a112.683 112.683 0 0 0 -74.775-28.385h-109.225v32h184z" fill="#ea9d2d"/><rect fill="#79a73a" height="80" rx="24" width="48" x="440" y="168"/></g></svg>