<svg height="512" viewBox="0 0 512 512" width="512" xmlns="http://www.w3.org/2000/svg"><g id="flat"><path d="m328 184h144v16h-144z" fill="#dbdbdb"/><path d="m40 184h140.928v16h-140.928z" fill="#dbdbdb"/><g fill="#ebebeb"><path d="m320 176h16v40h-16z"/><path d="m368 176h16v40h-16z"/><path d="m416 176h16v40h-16z"/><path d="m464 176h16v40h-16z"/><path d="m32 176h16v40h-16z"/><path d="m80 176h16v40h-16z"/><path d="m128 176h16v40h-16z"/><path d="m176 176h16v40h-16z"/></g><path d="m432 240h16v56h-16z" fill="#fbb540"/><path d="m312 256h16v56h-16z" fill="#fbb540"/><path d="m184 256h16v48h-16z" fill="#fbb540"/><path d="m64 240h16v64h-16z" fill="#fbb540"/><path d="m392 240h16v88h-16z" fill="#da922a"/><path d="m472 240h16v88h-16z" fill="#da922a"/><path d="m272 256h16v96h-16z" fill="#da922a"/><path d="m352 256h16v96h-16z" fill="#da922a"/><path d="m104 240h16v88h-16z" fill="#da922a"/><path d="m24 240h16v88h-16z" fill="#da922a"/><path d="m224 256h16v96h-16z" fill="#da922a"/><path d="m144 256h16v96h-16z" fill="#da922a"/><path d="m288 216h-64l8-64h48z" fill="#fbb540"/><path d="m256 96-24 16v40h48v-40z" fill="#c7463b"/><path d="m248 176h16v16h-16z" fill="#d18d28"/><path d="m283.152 30.948h32v54.132h-32z" fill="#bd9070" transform="matrix(.842 .539 -.539 .842 78.412 -152.061)"/><path d="m195.841 106.183h32v57.869h-32z" fill="#bd9070" transform="matrix(.842 .539 -.539 .842 106.2 -92.859)"/><path d="m279.008 111.184h32v57.083h-32z" fill="#bd9070" transform="matrix(-.539 .842 -.842 -.539 571.682 -33.492)"/><path d="m201.948 25.037h32v54.812h-32z" fill="#bd9070" transform="matrix(-.539 .842 -.842 -.539 379.572 -102.894)"/><path d="m452.994 361.5a23.472 23.472 0 0 0 -4.994 3.376v-52.876h-16v52.876a23.472 23.472 0 0 0 -4.994-3.373l-35.006-17.503v17.473a23.505 23.505 0 0 0 12.994 21.027l27.006 13.5v100h16v-100l27.006-13.5a23.505 23.505 0 0 0 12.994-21.027v-17.473z" fill="#fbb540"/><path d="m440 264-12.906 21.51a32.069 32.069 0 0 0 1.844 35.74l11.062 14.75 11.062-14.75a32.069 32.069 0 0 0 1.844-35.74z" fill="#da922a"/><path d="m355.006 374.5a23.505 23.505 0 0 0 12.994-21.027v-17.473l-35.006 17.5a23.472 23.472 0 0 0 -4.994 3.376v-28.876h-16v28.876a23.472 23.472 0 0 0 -4.994-3.373l-35.006-17.503v17.473a23.505 23.505 0 0 0 12.994 21.027l27.006 13.5v32.876a23.472 23.472 0 0 0 -4.994-3.373l-35.006-17.503v17.473a23.505 23.505 0 0 0 12.994 21.027l27.006 13.5v44h16v-44l27.006-13.5a23.505 23.505 0 0 0 12.994-21.027v-17.473l-35.006 17.5a23.472 23.472 0 0 0 -4.994 3.376v-32.876z" fill="#fbb540"/><path d="m320 288-12.906 21.51a32.069 32.069 0 0 0 1.844 35.74l11.062 14.75 11.062-14.75a32.069 32.069 0 0 0 1.844-35.74z" fill="#da922a"/><path d="m107.006 350.5a23.505 23.505 0 0 0 12.994-21.027v-17.473l-35.006 17.5a23.472 23.472 0 0 0 -4.994 3.376v-28.876h-16v28.876a23.472 23.472 0 0 0 -4.994-3.373l-35.006-17.503v17.473a23.505 23.505 0 0 0 12.994 21.027l27.006 13.5v32.876a23.472 23.472 0 0 0 -4.994-3.373l-35.006-17.503v17.473a23.505 23.505 0 0 0 12.994 21.027l27.006 13.5v68h16v-68l27.006-13.5a23.505 23.505 0 0 0 12.994-21.027v-17.473l-35.006 17.5a23.472 23.472 0 0 0 -4.994 3.376v-32.876z" fill="#fbb540"/><path d="m72 264 12.906 21.51a32.069 32.069 0 0 1 -1.844 35.74l-11.062 14.75-11.062-14.75a32.069 32.069 0 0 1 -1.844-35.74z" fill="#da922a"/><path d="m204.994 385.5a23.472 23.472 0 0 0 -4.994 3.376v-60.876h-16v60.876a23.472 23.472 0 0 0 -4.994-3.373l-35.006-17.503v17.473a23.505 23.505 0 0 0 12.994 21.027l27.006 13.5v76h16v-76l27.006-13.5a23.505 23.505 0 0 0 12.994-21.027v-17.473z" fill="#fbb540"/><path d="m192 288 12.906 21.51a32.069 32.069 0 0 1 -1.844 35.74l-11.062 14.75-11.062-14.75a32.069 32.069 0 0 1 -1.844-35.74z" fill="#da922a"/><path d="m16 208h480v16h-480z" fill="#c38325"/><path d="m456 116a19.994 19.994 0 0 1 -20 20h-40a20.007 20.007 0 0 1 -20-20 20.248 20.248 0 0 1 .4-4 20.014 20.014 0 0 1 16.9-15.8 24 24 0 0 1 45.4 0 20.025 20.025 0 0 1 16.9 15.8 20.248 20.248 0 0 1 .4 4z" fill="#e4e4e2"/><path d="m455.6 112a20 20 0 0 1 -19.6 16h-40a20.021 20.021 0 0 1 -19.6-16 20.014 20.014 0 0 1 16.9-15.8 24 24 0 0 1 45.4 0 20.025 20.025 0 0 1 16.9 15.8z" fill="#ebebeb"/><path d="m128 60a19.994 19.994 0 0 1 -20 20h-40a20.007 20.007 0 0 1 -20-20 20.248 20.248 0 0 1 .4-4 20.014 20.014 0 0 1 16.9-15.8 24 24 0 0 1 45.4 0 20.025 20.025 0 0 1 16.9 15.8 20.248 20.248 0 0 1 .4 4z" fill="#e4e4e2"/><path d="m127.6 56a20 20 0 0 1 -19.6 16h-40a20.021 20.021 0 0 1 -19.6-16 20.014 20.014 0 0 1 16.9-15.8 24 24 0 0 1 45.4 0 20.025 20.025 0 0 1 16.9 15.8z" fill="#ebebeb"/><path d="m248 14.024h16v168.001h-16z" fill="#744630" transform="matrix(.539 -.842 .842 .539 35.474 260.852)"/><path d="m172 90.025h168v16h-168z" fill="#8f563b" transform="matrix(.539 -.842 .842 .539 35.483 260.865)"/><path d="m72 400 35.006-17.5a23.505 23.505 0 0 0 12.994-21.027v-17.473l-35.006 17.5a23.505 23.505 0 0 0 -12.994 21.027z" fill="#da922a"/><path d="m72 400-35.006-17.5a23.505 23.505 0 0 1 -12.994-21.027v-17.473l35.006 17.5a23.505 23.505 0 0 1 12.994 21.027z" fill="#da922a"/><path d="m204.994 353.5a23.505 23.505 0 0 0 -12.994 21.027 23.505 23.505 0 0 0 -12.994-21.027l-35.006-17.5v17.473a23.505 23.505 0 0 0 12.994 21.027l35.006 17.5 35.006-17.5a23.505 23.505 0 0 0 12.994-21.027v-17.473z" fill="#da922a"/><path d="m204.994 417.5a23.505 23.505 0 0 0 -12.994 21.027 23.505 23.505 0 0 0 -12.994-21.027l-35.006-17.5v17.473a23.505 23.505 0 0 0 12.994 21.027l35.006 17.5 35.006-17.5a23.505 23.505 0 0 0 12.994-21.027v-17.473z" fill="#da922a"/><path d="m332.994 385.5a23.505 23.505 0 0 0 -12.994 21.027 23.505 23.505 0 0 0 -12.994-21.027l-35.006-17.5v17.473a23.505 23.505 0 0 0 12.994 21.027l35.006 17.5 35.006-17.5a23.505 23.505 0 0 0 12.994-21.027v-17.473z" fill="#da922a"/><path d="m452.994 329.5a23.505 23.505 0 0 0 -12.994 21.027 23.505 23.505 0 0 0 -12.994-21.027l-35.006-17.5v17.473a23.505 23.505 0 0 0 12.994 21.027l35.006 17.5 35.006-17.5a23.505 23.505 0 0 0 12.994-21.027v-17.473z" fill="#da922a"/><path d="m440 414.527a23.505 23.505 0 0 0 -12.994-21.027l-35.006-17.5v17.473a23.505 23.505 0 0 0 12.994 21.027l35.006 17.5 35.006-17.5a23.505 23.505 0 0 0 12.994-21.027v-17.473l-35.006 17.5a23.505 23.505 0 0 0 -12.994 21.027z" fill="#da922a"/></g></svg>