<svg height="512" viewBox="0 0 512 512" width="512" xmlns="http://www.w3.org/2000/svg"><g id="flat"><path d="m400 48h-8a24 24 0 0 0 -48 0h-8a24 24 0 0 0 -24 24 24 24 0 0 0 24 24h64a24 24 0 0 0 24-24 24 24 0 0 0 -24-24z" fill="#dbdbdb"/><path d="m392 488a8 8 0 0 1 -8-8v-56a8 8 0 0 1 16 0v56a8 8 0 0 1 -8 8z" fill="#744630"/><path d="m488 344a32 32 0 0 0 -32-32h-8a32 32 0 0 0 32-32 32 32 0 0 0 -32-32h-2.332a56 56 0 1 0 -107.336 0h-2.332a32 32 0 0 0 -32 32 32 32 0 0 0 32 32h-8a32 32 0 0 0 -32 32 32 32 0 0 0 32 32 32 32 0 0 0 -32 32 32 32 0 0 0 32 32h128a32 32 0 0 0 32-32 32 32 0 0 0 -32-32 32 32 0 0 0 32-32z" fill="#d1763e"/><path d="m72 432h16v56h-16z" fill="#744630"/><path d="m168 432h16v56h-16z" fill="#bd9070"/><path d="m424 344a32 32 0 0 0 -32-32h-8a32 32 0 0 0 32-32 32 32 0 0 0 -32-32h-2.332a56 56 0 1 0 -107.336 0h-2.332a32 32 0 0 0 -32 32 32 32 0 0 0 32 32h-8a32 32 0 0 0 -32 32 32 32 0 0 0 32 32 32 32 0 0 0 -32 32 32 32 0 0 0 32 32h128a32 32 0 0 0 32-32 32 32 0 0 0 -32-32 32 32 0 0 0 32-32z" fill="#aac16b"/><path d="m374.247 339a8 8 0 0 0 -11.247-1.247l-27 21.6v-135.353a8 8 0 0 0 -16 0v71.355l-27-21.6a8 8 0 1 0 -10 12.494l37 29.6v164.151a8 8 0 0 0 16 0v-100.155l37-29.6a8 8 0 0 0 1.247-11.245z" fill="#a45e14"/><path d="m112 88h-8a24 24 0 0 0 -48 0h-8a24 24 0 0 0 -24 24 24 24 0 0 0 24 24h64a24 24 0 0 0 24-24 24 24 0 0 0 -24-24z" fill="#ebebeb"/><path d="m464 72h-8a24 24 0 0 0 -48 0h-8a24 24 0 0 0 -24 24 24 24 0 0 0 24 24h64a24 24 0 0 0 24-24 24 24 0 0 0 -24-24z" fill="#ebebeb"/><g fill="#fbb540"><path d="m208 40h16v24h-16z"/><path d="m159.917 59.917h16v24h-16z" transform="matrix(.707 -.707 .707 .707 -1.671 139.799)"/><path d="m136 112h24v16h-24z"/><path d="m155.917 160.083h24v16h-24z" transform="matrix(.707 -.707 .707 .707 -69.671 167.966)"/><path d="m208 176h16v24h-16z"/><path d="m256.083 156.083h16v24h-16z" transform="matrix(.707 -.707 .707 .707 -41.505 235.966)"/><path d="m272 112h24v16h-24z"/><path d="m252.083 63.917h24v16h-24z" transform="matrix(.707 -.707 .707 .707 26.495 207.799)"/><circle cx="216" cy="120" r="35"/></g><path d="m488 496h-.018l-472-1.051a8 8 0 0 1 .036-16l472 1.051a8 8 0 0 1 -.018 16z" fill="#5e8569"/><path d="m136 440-6.111-6.111a107.168 107.168 0 0 1 -25.889-41.889h24l-2.951-1.967a73.735 73.735 0 0 1 -29.049-38.033h24l-1.6-2a186.831 186.831 0 0 1 -38.4-86 186.831 186.831 0 0 1 -38.4 86l-1.6 2h24a73.735 73.735 0 0 1 -29.049 38.033l-2.951 1.967h24a107.168 107.168 0 0 1 -25.889 41.889l-6.111 6.111z" fill="#aac16b"/><path d="m232 440-6.111-6.111a107.168 107.168 0 0 1 -25.889-41.889h24l-2.951-1.967a73.735 73.735 0 0 1 -29.049-38.033h24l-1.6-2a186.831 186.831 0 0 1 -38.4-86 186.831 186.831 0 0 1 -38.4 86l-1.6 2h24a73.735 73.735 0 0 1 -29.049 38.033l-2.951 1.967h24a107.168 107.168 0 0 1 -25.889 41.889l-6.111 6.111z" fill="#6b9777"/></g></svg>