<svg height="512" viewBox="0 0 512 512" width="512" xmlns="http://www.w3.org/2000/svg"><g id="flat"><path d="m488 200v144h-464v-176l32 8 16 24 32-25.6 8-6.4h56l16 26.67 8 13.33 8-104h56l8 6.67 40 33.33 8 64h32l16-32 32-8 8-32h40l16 40 8 24z" fill="#cbcbcb"/><path d="m24 344h464v144h-464z" fill="#c0f5f9"/><path d="m24 344h464v8h-464z" fill="#b3e4e8"/><path d="m184 352v18a22 22 0 0 1 -22 22h-60a22 22 0 0 1 -22-22v-26l12.57-16 3.43-56h32l16 40h24z" fill="#dbdbdb"/><path d="m152 312v24h-16v-44l8 20z" fill="#a8a8a8"/><path d="m104 416h16v16h-16z" fill="#aedee2"/><path d="m184 432h-8v-16h8a16.019 16.019 0 0 0 16-16v-8h16v8a32.036 32.036 0 0 1 -32 32z" fill="#aedee2"/><path d="m88 432h-8a32.036 32.036 0 0 1 -32-32v-8h16v8a16.019 16.019 0 0 0 16 16h8z" fill="#aedee2"/><path d="m136 416h24v16h-24z" fill="#aedee2"/><path d="m264 110.67v33.33a8.008 8.008 0 0 1 -2.34 5.66l-13.66 13.65v28.69h-16v-32a8.008 8.008 0 0 1 2.34-5.66l13.66-13.65v-36.69h8z" fill="#a8a8a8"/><path d="m120 168v48h-16v-41.6l8-6.4z" fill="#a8a8a8"/><path d="m312 208h32v136h-32z" fill="#aedee2"/><path d="m304 344c4.782-2.767 8-10.078 8-16a16 16 0 0 0 -31.894-1.792 24 24 0 0 0 -40.106 17.792z" fill="#c0f5f9"/><path d="m352 344c-4.782-2.767-8-10.078-8-16a16 16 0 0 1 31.894-1.792 24 24 0 0 1 40.106 17.792z" fill="#c0f5f9"/><path d="m262 448h-16c0-8.9 3.961-13.651 6.854-17.122 2.16-2.593 3.146-3.778 3.146-6.878s-.986-4.287-3.146-6.88c-2.893-3.472-6.854-8.22-6.854-17.12s3.962-13.649 6.854-17.121c2.16-2.593 3.146-3.779 3.146-6.879h16c0 8.9-3.962 13.649-6.854 17.121-2.16 2.591-3.146 3.779-3.146 6.879s.986 4.286 3.146 6.879c2.893 3.469 6.854 8.221 6.854 17.121s-3.961 13.65-6.854 17.121c-2.16 2.592-3.146 3.779-3.146 6.879z" fill="#f9f9f9"/><path d="m302 448h-16c0-8.9 3.961-13.651 6.854-17.122 2.16-2.593 3.146-3.778 3.146-6.878s-.986-4.287-3.146-6.88c-2.893-3.472-6.854-8.22-6.854-17.12s3.962-13.649 6.854-17.121c2.16-2.593 3.146-3.779 3.146-6.879h16c0 8.9-3.962 13.649-6.854 17.121-2.16 2.591-3.146 3.779-3.146 6.879s.986 4.286 3.146 6.879c2.893 3.469 6.854 8.221 6.854 17.121s-3.961 13.65-6.854 17.121c-2.16 2.592-3.146 3.779-3.146 6.879z" fill="#f9f9f9"/><path d="m342 448h-16c0-8.9 3.961-13.651 6.854-17.122 2.16-2.593 3.146-3.778 3.146-6.878s-.986-4.287-3.146-6.88c-2.893-3.472-6.854-8.22-6.854-17.12s3.962-13.649 6.854-17.121c2.16-2.593 3.146-3.779 3.146-6.879h16c0 8.9-3.962 13.649-6.854 17.121-2.16 2.591-3.146 3.779-3.146 6.879s.986 4.286 3.146 6.879c2.893 3.469 6.854 8.221 6.854 17.121s-3.961 13.65-6.854 17.121c-2.16 2.592-3.146 3.779-3.146 6.879z" fill="#f9f9f9"/><path d="m302 88h-16c0-8.9 3.961-13.651 6.854-17.122 2.16-2.593 3.146-3.778 3.146-6.878s-.986-4.287-3.146-6.88c-2.893-3.472-6.854-8.22-6.854-17.12s3.962-13.649 6.854-17.121c2.16-2.593 3.146-3.779 3.146-6.879h16c0 8.9-3.962 13.649-6.854 17.121-2.16 2.591-3.146 3.779-3.146 6.879s.986 4.286 3.146 6.879c2.893 3.469 6.854 8.221 6.854 17.121s-3.961 13.65-6.854 17.121c-2.16 2.592-3.146 3.779-3.146 6.879z" fill="#c0f5f9"/><path d="m342 88h-16c0-8.9 3.961-13.651 6.854-17.122 2.16-2.593 3.146-3.778 3.146-6.878s-.986-4.287-3.146-6.88c-2.893-3.472-6.854-8.22-6.854-17.12s3.962-13.649 6.854-17.121c2.16-2.593 3.146-3.779 3.146-6.879h16c0 8.9-3.962 13.649-6.854 17.121-2.16 2.591-3.146 3.779-3.146 6.879s.986 4.286 3.146 6.879c2.893 3.469 6.854 8.221 6.854 17.121s-3.961 13.65-6.854 17.121c-2.16 2.592-3.146 3.779-3.146 6.879z" fill="#c0f5f9"/><path d="m382 88h-16c0-8.9 3.961-13.651 6.854-17.122 2.16-2.593 3.146-3.778 3.146-6.878s-.986-4.287-3.146-6.88c-2.893-3.472-6.854-8.22-6.854-17.12s3.962-13.649 6.854-17.121c2.16-2.593 3.146-3.779 3.146-6.879h16c0 8.9-3.962 13.649-6.854 17.121-2.16 2.591-3.146 3.779-3.146 6.879s.986 4.286 3.146 6.879c2.893 3.469 6.854 8.221 6.854 17.121s-3.961 13.65-6.854 17.121c-2.16 2.592-3.146 3.779-3.146 6.879z" fill="#c0f5f9"/><path d="m64 136h-16c0-8.9 3.961-13.651 6.854-17.122 2.16-2.593 3.146-3.778 3.146-6.878s-.986-4.287-3.146-6.88c-2.893-3.472-6.854-8.22-6.854-17.12s3.962-13.649 6.854-17.121c2.16-2.593 3.146-3.779 3.146-6.879h16c0 8.9-3.962 13.649-6.854 17.121-2.16 2.591-3.146 3.779-3.146 6.879s.986 4.286 3.146 6.879c2.893 3.469 6.854 8.221 6.854 17.121s-3.961 13.65-6.854 17.121c-2.16 2.592-3.146 3.779-3.146 6.879z" fill="#c0f5f9"/><path d="m104 136h-16c0-8.9 3.961-13.651 6.854-17.122 2.16-2.593 3.146-3.778 3.146-6.878s-.986-4.287-3.146-6.88c-2.893-3.472-6.854-8.22-6.854-17.12s3.962-13.649 6.854-17.121c2.16-2.593 3.146-3.779 3.146-6.879h16c0 8.9-3.962 13.649-6.854 17.121-2.16 2.591-3.146 3.779-3.146 6.879s.986 4.286 3.146 6.879c2.893 3.469 6.854 8.221 6.854 17.121s-3.961 13.65-6.854 17.121c-2.16 2.592-3.146 3.779-3.146 6.879z" fill="#c0f5f9"/><path d="m144 136h-16c0-8.9 3.961-13.651 6.854-17.122 2.16-2.593 3.146-3.778 3.146-6.878s-.986-4.287-3.146-6.88c-2.893-3.472-6.854-8.22-6.854-17.12s3.962-13.649 6.854-17.121c2.16-2.593 3.146-3.779 3.146-6.879h16c0 8.9-3.962 13.649-6.854 17.121-2.16 2.591-3.146 3.779-3.146 6.879s.986 4.286 3.146 6.879c2.893 3.469 6.854 8.221 6.854 17.121s-3.961 13.65-6.854 17.121c-2.16 2.592-3.146 3.779-3.146 6.879z" fill="#c0f5f9"/><path d="m200 296h16v16h-16z" fill="#a8a8a8"/><path d="m104 232h16v16h-16z" fill="#a8a8a8"/><path d="m448 248h16v16h-16z" fill="#a8a8a8"/><path d="m248 264h16v16h-16z" fill="#a8a8a8"/><path d="m48 232h16v16h-16z" fill="#a8a8a8"/><path d="m232 208h16v16h-16z" fill="#a8a8a8"/><path d="m400 240h16v16h-16z" fill="#a8a8a8"/><g fill="#aedee2"><path d="m384 400h16v16h-16z"/><path d="m424 400h64v16h-64z"/><path d="m384 432h40v16h-40z"/><path d="m448 432h40v16h-40z"/><path d="m384 368h56v16h-56z"/><path d="m456 368h32v16h-32z"/><path d="m24 448h40v16h-40z"/><path d="m80 448h24v16h-24z"/><path d="m128 448h48v16h-48z"/><path d="m192 448h24v16h-24z"/></g><path d="m216 264v16h-16v-13.58l-14.66-21.98a8.066 8.066 0 0 1 -1.34-4.44v-45.33l8 13.33 8-104v133.58l14.66 21.98a8.066 8.066 0 0 1 1.34 4.44z" fill="#a8a8a8"/><path d="m448 344h-16v-32a8 8 0 0 1 4.422-7.155l11.578-5.789v-19.056h16v24a8 8 0 0 1 -4.422 7.155l-11.578 5.789z" fill="#a8a8a8"/><path d="m416 200v24h-16v-22.11l-15.16-30.31a8.063 8.063 0 0 1 -.6-1.64l7.76-1.94 6-24h2v22.11l15.16 30.31a8.081 8.081 0 0 1 .84 3.58z" fill="#a8a8a8"/></g></svg>