<svg height="512" viewBox="0 0 512 512" width="512" xmlns="http://www.w3.org/2000/svg"><g id="flat"><path d="m416 256v72l-32 24-24 32-16 32-38.58 40-65.42-32-32-40-40-24-32-40-24-16-24-32v-16l24-24 32-8 16-16 16-8 7.68-10.24 11.47-15.29 4.85-6.47 7.55-3.77 8.45-4.23 9.03-12.04 10.74-14.32 4.23-5.64 8-8 16 8 8-16 32 40 17.34 11.56 6.66 4.44 16 16 7.16-3.58 8.84-4.42 24 24 24 16s8 32 8 40z" fill="#c0f5f9"/><path d="m24 256h464v232h-464z" fill="#4799cf"/><path d="m386.53 255.59a8 8 0 0 1 -10.12-5.06l-6.95-20.86-13.04-6.51a8.051 8.051 0 0 1 -3.58-3.58l-19.66-39.33-5.42 21.69a8.037 8.037 0 0 1 -3.32 4.72l-20.44 13.62v27.72a8 8 0 0 1 -16 0v-32a8.033 8.033 0 0 1 3.56-6.66l21.43-14.28 7.25-29a8.065 8.065 0 0 1 1.1-2.5l6.66 4.44 16 16 7.16-3.58 14.8 29.62 13.62 6.8a8.006 8.006 0 0 1 4.01 4.63l8 24a8 8 0 0 1 -5.06 10.12z" fill="#b8eaee"/><path d="m272 192v56a8 8 0 0 1 -16 0v-52.69l-13.66-13.65a8.356 8.356 0 0 1 -1.5-2.08l-15.81-31.62 10.74-14.32 18.8 37.62 15.09 15.08a8.008 8.008 0 0 1 2.34 5.66z" fill="#b8eaee"/><path d="m232 192v56a8 8 0 0 1 -16 0v-52.69l-20.85-20.84 4.85-6.47 7.55-3.77 22.11 22.11a8.008 8.008 0 0 1 2.34 5.66z" fill="#b8eaee"/><path d="m184 192v32a8 8 0 0 1 -16 0v-20l8-4 7.68-10.24a7.876 7.876 0 0 1 .32 2.24z" fill="#b8eaee"/><g fill="#6cbae5"><path d="m96 368a8 8 0 0 1 -8 8h-64v-16h64a8 8 0 0 1 8 8z"/><path d="m176 376h-56a8 8 0 0 1 0-16h56a8 8 0 0 1 0 16z"/><path d="m152 408h-64a8 8 0 0 1 0-16h64a8 8 0 0 1 0 16z"/><path d="m216 408h-32a8 8 0 0 1 0-16h32a8 8 0 0 1 0 16z"/><path d="m64 400a8 8 0 0 1 -8 8h-32v-16h32a8 8 0 0 1 8 8z"/><path d="m384 440h-24a8 8 0 0 1 0-16h24a8 8 0 0 1 0 16z"/><path d="m440 440h-24a8 8 0 0 1 0-16h24a8 8 0 0 1 0 16z"/><path d="m488 424v16h-16a8 8 0 0 1 0-16z"/><path d="m88 440h-40a8 8 0 0 1 0-16h40a8 8 0 0 1 0 16z"/><path d="m128 440h-8a8 8 0 0 1 0-16h8a8 8 0 0 1 0 16z"/><path d="m256 440h-96a8 8 0 0 1 0-16h96a8 8 0 0 1 0 16z"/><path d="m416 408h-40a8 8 0 0 1 0-16h40a8 8 0 0 1 0 16z"/><path d="m488 392v16h-40a8 8 0 0 1 0-16z"/><path d="m400 376h-24a8 8 0 0 1 0-16h24a8 8 0 0 1 0 16z"/><path d="m488 360v16h-56a8 8 0 0 1 0-16z"/><path d="m448 344h-40a8 8 0 0 1 0-16h40a8 8 0 0 1 0 16z"/><path d="m488 296v16h-48a8 8 0 0 1 0-16z"/><path d="m144 344h-48a8 8 0 0 1 0-16h48a8 8 0 0 1 0 16z"/><path d="m72 336a8 8 0 0 1 -8 8h-40v-16h40a8 8 0 0 1 8 8z"/><path d="m104 312h-56a8 8 0 0 1 0-16h56a8 8 0 0 1 0 16z"/></g><path d="m102.7 88.2a24 24 0 0 0 -45.4 0 19.989 19.989 0 0 0 -17.3 19.8 20 20 0 0 0 20 20h40a20 20 0 0 0 20-20 19.989 19.989 0 0 0 -17.3-19.8z" fill="#c0f5f9"/><path d="m120 108a19.994 19.994 0 0 1 -20 20h-40a20.007 20.007 0 0 1 -20-20 20.248 20.248 0 0 1 .4-4 20.014 20.014 0 0 1 16.9-15.8 24 24 0 0 1 45.4 0 20.025 20.025 0 0 1 16.9 15.8 20.248 20.248 0 0 1 .4 4z" fill="#b3e4e8"/><path d="m119.6 104a20 20 0 0 1 -19.6 16h-40a20.021 20.021 0 0 1 -19.6-16 20.014 20.014 0 0 1 16.9-15.8 24 24 0 0 1 45.4 0 20.025 20.025 0 0 1 16.9 15.8z" fill="#c0f5f9"/><path d="m472 140a19.994 19.994 0 0 1 -20 20h-40a20.007 20.007 0 0 1 -20-20 20.248 20.248 0 0 1 .4-4 20.014 20.014 0 0 1 16.9-15.8 24 24 0 0 1 45.4 0 20.025 20.025 0 0 1 16.9 15.8 20.248 20.248 0 0 1 .4 4z" fill="#b3e4e8"/><path d="m471.6 136a20 20 0 0 1 -19.6 16h-40a20.021 20.021 0 0 1 -19.6-16 20.014 20.014 0 0 1 16.9-15.8 24 24 0 0 1 45.4 0 20.025 20.025 0 0 1 16.9 15.8z" fill="#c0f5f9"/><path d="m416 256v72l-7.49 5.62-24.51 18.38-24 32-16 32-7.99 8.29-22.83 23.66-7.76 8.05-8.18-4-17.24-8.43-32-15.66-8-3.91-32-40-8-4.8-24-14.4-8-4.8-32-40-8-5.33-16-10.67-24-32v-16z" fill="#8aced8"/><path d="m168 280a8 8 0 0 0 -8 8v62l8 10 8 4.8v-76.8a8 8 0 0 0 -8-8z" fill="#69b0bb"/><path d="m208 280a8 8 0 0 0 -8 8v91.2l8 4.8 8 10v-106a8 8 0 0 0 -8-8z" fill="#69b0bb"/><path d="m272 280a8 8 0 0 0 -8 8v37.58l-14.64 21.96c-.03.04-.05.07-.07.1l-15.95 23.92a8.066 8.066 0 0 0 -1.34 4.44v38l8 10 8 3.91v-49.49l9.24-13.86 6.76 6.75v64.43l16 7.83v-75.57a8.008 8.008 0 0 0 -2.34-5.66l-11.36-11.36 12.36-18.54a8.066 8.066 0 0 0 1.34-4.44v-40a8 8 0 0 0 -8-8z" fill="#69b0bb"/><path d="m348.44 345.34-20.44-13.63v-43.71a8 8 0 0 0 -16 0v46.1l-15.16 30.32a8.056 8.056 0 0 0 -.84 3.7l1.24 83.88 8.18 4 7.76-8.05-1.15-78.12 11.07-22.15 12.9 8.6v67.72a2.81 2.81 0 0 0 .01.29l7.99-8.29 8-16v-48a8.033 8.033 0 0 0 -3.56-6.66z" fill="#69b0bb"/><path d="m384 306.58v-18.58a8 8 0 0 0 -16 0v24a8.006 8.006 0 0 0 5.03 7.43l35.48 14.19 7.49-5.62v-8.62z" fill="#69b0bb"/><path d="m136 280a8 8 0 0 0 -8 8v26.67l8 5.33 8 10v-42a8 8 0 0 0 -8-8z" fill="#69b0bb"/></g></svg>