<svg height="512" viewBox="0 0 512 512" width="512" xmlns="http://www.w3.org/2000/svg"><g id="flat"><path d="m376 176-20.26 56.72c-.26.72-.52 1.46-.77 2.2a337.713 337.713 0 0 0 -14.44 56.55q-.375 2.265-.72 4.53a339.4 339.4 0 0 0 -3.81 50.7v21.3h-48a339.019 339.019 0 0 1 28.47-135.93q3.45-7.89 7.31-15.62l20.22-40.45 32-8z" fill="#746250"/><path d="m351.431 175.431h136.569l-6.692-6.022a92.071 92.071 0 0 0 -123.185 0z" fill="#5e8569"/><path d="m351.431 175.431h-136.568l6.691-6.022a92.072 92.072 0 0 1 123.186 0z" fill="#5e8569"/><path d="m176 368v-34.37q0-26.895-2.51-53.63c-.04-.55-.1-1.11-.15-1.66a576.133 576.133 0 0 0 -11.9-73.48c-.37-1.63-.75-3.25-1.13-4.86q-5.865-24.675-13.92-48.82l-10.39-31.18h32l1.87 4.01a575.183 575.183 0 0 1 29.12 75.99 575.937 575.937 0 0 1 17.86 77.45c.13.85.27 1.7.39 2.55a575.93 575.93 0 0 1 6.76 88z" fill="#9a826a"/><path d="m159.431 120.569h136.569l-6.692-6.023a92.071 92.071 0 0 0 -123.185 0z" fill="#6b9777"/><path d="m159.431 120.569h136.569l-6.692-6.023a92.071 92.071 0 0 0 -123.185 0z" fill="#55785f"/><path d="m159.431 120.569 96.569 96.568-.473-8.99a92.072 92.072 0 0 0 -87.1-87.1z" fill="#6b9777"/><path d="m159.431 120.569 96.569-96.569-8.99.473a92.072 92.072 0 0 0 -87.1 87.105z" fill="#6b9777"/><path d="m159.431 120.569h-136.568l6.691-6.023a92.072 92.072 0 0 1 123.186 0z" fill="#6b9777"/><path d="m159.431 120.569h-136.568l6.691-6.023a92.072 92.072 0 0 1 123.186 0z" fill="#55785f"/><path d="m159.431 120.569-96.568 96.568.473-8.99a92.072 92.072 0 0 1 87.105-87.1z" fill="#6b9777"/><path d="m159.431 120.569-96.568-96.569 8.99.473a92.072 92.072 0 0 1 87.105 87.105z" fill="#6b9777"/><path d="m24 424h464v64h-464z" fill="#6cbae5"/><g fill="#428dc5"><path d="m232 448h48v16h-48z"/><path d="m312 448h24v16h-24z"/><path d="m368 448h48v16h-48z"/><path d="m432 448h32v16h-32z"/><path d="m64 448h80v16h-80z"/><path d="m176 448h24v16h-24z"/></g><path d="m217.24 280h-43.75c-.04-.55-.1-1.11-.15-1.66a576.133 576.133 0 0 0 -11.9-73.48c-.37-1.63-.75-3.25-1.13-4.86h38.68a575.937 575.937 0 0 1 17.86 77.45c.13.85.27 1.7.39 2.55z" fill="#746250"/><path d="m355.74 232.72c-.26.72-.52 1.46-.77 2.2a337.713 337.713 0 0 0 -14.44 56.55q-.375 2.265-.72 4.53h-43.81l-.19-.29a337.119 337.119 0 0 1 20.66-63.64z" fill="#9a826a"/><path d="m352 416v8h-192v-8a94.828 94.828 0 0 1 1.34-16 96 96 0 0 1 189.32 0 94.828 94.828 0 0 1 1.34 16z" fill="#fbb540"/><path d="m256 368a24 24 0 0 1 -48 0 22.974 22.974 0 0 1 .34-4 23.995 23.995 0 0 1 47.32 0 22.974 22.974 0 0 1 .34 4z" fill="#6b9777"/><ellipse cx="232" cy="364" fill="#8dc79d" rx="23.66" ry="20"/><path d="m304 344a24 24 0 0 1 -48 0 22.974 22.974 0 0 1 .34-4 23.995 23.995 0 0 1 47.32 0 22.974 22.974 0 0 1 .34 4z" fill="#6b9777"/><ellipse cx="280" cy="340" fill="#8dc79d" rx="23.66" ry="20"/><path d="m352 416v8h-192v-8a94.828 94.828 0 0 1 1.34-16h189.32a94.828 94.828 0 0 1 1.34 16z" fill="#da922a"/><path d="m351.431 175.431 96.569 96.569-.473-8.99a92.072 92.072 0 0 0 -87.1-87.1z" fill="#85bc94"/><path d="m351.431 175.431 96.569-96.568-8.99.473a92.072 92.072 0 0 0 -87.105 87.105z" fill="#85bc94"/><path d="m351.431 175.431-96.568 96.569.473-8.99a92.072 92.072 0 0 1 87.1-87.1z" fill="#85bc94"/><path d="m351.431 175.431-96.568-96.568 8.99.473a92.072 92.072 0 0 1 87.105 87.105z" fill="#85bc94"/></g></svg>