<svg height="512" viewBox="0 0 512 512" width="512" xmlns="http://www.w3.org/2000/svg"><g id="flat"><path d="m24 208h464v280h-464z" fill="#a8d6da"/><path d="m80 272a8 8 0 0 1 -8 8h-48v-16h48a8 8 0 0 1 8 8z" fill="#c0f5f9"/><path d="m248 488h-224l40-40h136l6.15 5.12 32.25 26.88z" fill="#55785f"/><path d="m88 336h-24a8 8 0 0 1 0-16h24a8 8 0 0 1 0 16z" fill="#c0f5f9"/><path d="m64 312v136l-40 40v-224l8 9.6 26.88 32.25z" fill="#55785f"/><path d="m248 488h-224v-224l8 9.6v54.71l26.87-22.45.01-.01 5.12 6.15v10.43l-32 26.74v19.14l26.87-22.45a7.987 7.987 0 0 1 5.13-1.86v18.43l-32 26.74v90.83h90.83l26.74-32h18.43a7.987 7.987 0 0 1 -1.86 5.13l-22.45 26.87h19.14l26.74-32h10.43l6.15 5.12-.01.01-22.45 26.87h54.71z" fill="#6b9777"/><path d="m336 208h-160v-138a30 30 0 0 1 30-30h100a30 30 0 0 1 30 30z" fill="#c0f5f9"/><path d="m208 192a8 8 0 0 1 -8-8v-48a8 8 0 0 1 16 0v48a8 8 0 0 1 -8 8z" fill="#a8d6da"/><path d="m240 176a8 8 0 0 1 -8-8v-32a8 8 0 0 1 16 0v32a8 8 0 0 1 -8 8z" fill="#a8d6da"/><path d="m272 112a8 8 0 0 1 -8-8v-32a8 8 0 0 1 16 0v32a8 8 0 0 1 -8 8z" fill="#a8d6da"/><path d="m272 160a8 8 0 0 1 -8-8v-16a8 8 0 0 1 16 0v16a8 8 0 0 1 -8 8z" fill="#a8d6da"/><path d="m304 184a8 8 0 0 1 -8-8v-80a8 8 0 0 1 16 0v80a8 8 0 0 1 -8 8z" fill="#a8d6da"/><path d="m240 96a8 8 0 0 1 -8-8v-16a8 8 0 0 1 16 0v16a8 8 0 0 1 -8 8z" fill="#a8d6da"/><path d="m208 104a8 8 0 0 1 -8-8v-24a8 8 0 0 1 16 0v24a8 8 0 0 1 -8 8z" fill="#a8d6da"/><path d="m336 56h152v152h-152z" fill="#8f563b"/><path d="m24 56h152v152h-152z" fill="#8f563b"/><path d="m144 24v140.78a59.228 59.228 0 0 1 -59.22 59.22h-.01a59.227 59.227 0 0 1 -36.99-12.98l-23.78-19.02v-40l39.83 33.19a29.366 29.366 0 0 0 48.17-22.56v-138.63z" fill="#aac16b"/><path d="m272 216a8 8 0 0 1 -8-8v-32a8 8 0 0 1 16 0v32a8 8 0 0 1 -8 8z" fill="#a8d6da"/><g fill="#c0f5f9"><path d="m328 280h-24a8 8 0 0 1 0-16h24a8 8 0 0 1 0 16z"/><path d="m368 280h-8a8 8 0 0 1 0-16h8a8 8 0 0 1 0 16z"/><path d="m448 280h-56a8 8 0 0 1 0-16h56a8 8 0 0 1 0 16z"/><path d="m176 280h-24a8 8 0 0 1 0-16h24a8 8 0 0 1 0 16z"/><path d="m120 280h-16a8 8 0 0 1 0-16h16a8 8 0 0 1 0 16z"/><path d="m264 344h-24a8 8 0 0 1 0-16h24a8 8 0 0 1 0 16z"/><path d="m320 344h-24a8 8 0 0 1 0-16h24a8 8 0 0 1 0 16z"/><path d="m208 368h-16a8 8 0 0 1 0-16h16a8 8 0 0 1 0 16z"/><path d="m424 248h-48a8 8 0 0 1 0-16h48a8 8 0 0 1 0 16z"/><path d="m352 248h-40a8 8 0 0 1 0-16h40a8 8 0 0 1 0 16z"/><path d="m152 248h-24a8 8 0 0 1 0-16h24a8 8 0 0 1 0 16z"/><path d="m64 240a8 8 0 0 1 -8 8h-32v-16h32a8 8 0 0 1 8 8z"/><path d="m448 344h-24a8 8 0 0 1 0-16h24a8 8 0 0 1 0 16z"/><path d="m408 312h-24a8 8 0 0 1 0-16h24a8 8 0 0 1 0 16z"/><path d="m360 424h-32a8 8 0 0 1 0-16h32a8 8 0 0 1 0 16z"/></g><path d="m56 88h16v16h-16z" fill="#b9b9b9"/><path d="m72 128h16v16h-16z" fill="#744630"/><path d="m360 152h16v16h-16z" fill="#c3c3c3"/><path d="m392 168h16v16h-16z" fill="#744630"/><path d="m448 96h16v16h-16z" fill="#744630"/><path d="m144 90.11v37.89l-32 16v-37.89z" fill="#8b9e57"/><path d="m144 24v26.11l-32 16v-42.11z" fill="#8b9e57"/><path d="m264 486h224l-40-40h-136l-6.15 5.12-32.25 26.88z" fill="#55785f"/><path d="m448 310v136l40 40v-224l-8 9.6-26.88 32.25z" fill="#55785f"/><path d="m264 486h224v-224l-8 9.6v54.71l-26.87-22.45-.01-.01-5.12 6.15v10.43l32 26.74v19.14l-26.87-22.45a7.987 7.987 0 0 0 -5.13-1.86v18.43l32 26.74v90.83h-90.83l-26.74-32h-18.43a7.987 7.987 0 0 0 1.86 5.13l22.45 26.87h-19.14l-26.74-32h-10.43l-6.15 5.12.01.01 22.45 26.87h-54.71z" fill="#6b9777"/><path d="m318.29 316.29 1.13 12.44 4.53 49.79 91.45 91.45 16.03 16.03h56.57v-56.57l-107.48-107.48-8.06-.73-41.73-3.8z" fill="#6b9777"/><path d="m319.42 328.73 62.42 62.43-31.55 7.88a7.929 7.929 0 0 0 -3.71 2.11l12.25 12.25 36.21-9.05 43.37 43.38-31.55 7.88a7.929 7.929 0 0 0 -3.71 2.11l12.25 12.25 36.2-9.05 25.08 25.08h11.32v-11.32l-53.37-53.36 9.06-36.2-12.25-12.25a7.88 7.88 0 0 0 -2.11 3.71l-7.89 31.55-43.37-43.38 9.05-36.2-6.6-6.6-8.06-.73-7.59 30.34-34.14-34.14-12.44-1.13z" fill="#55785f"/><path d="m193.71 318.29-1.13 12.44-4.53 49.79-91.45 91.45-16.03 16.03h-56.57v-56.57l107.48-107.48 8.06-.73 41.73-3.8z" fill="#6b9777"/><path d="m192.58 330.73-62.42 62.43 31.55 7.88a7.929 7.929 0 0 1 3.71 2.11l-12.25 12.25-36.21-9.05-43.37 43.38 31.55 7.88a7.929 7.929 0 0 1 3.71 2.11l-12.25 12.25-36.2-9.05-25.08 25.08h-11.32v-11.32l53.37-53.36-9.06-36.2 12.25-12.25a7.88 7.88 0 0 1 2.11 3.71l7.89 31.55 43.37-43.38-9.05-36.2 6.6-6.6 8.06-.73 7.59 30.34 34.14-34.14 12.44-1.13z" fill="#55785f"/><path d="m264 488h224l-40-40h-136l-6.15 5.12-32.25 26.88z" fill="#55785f"/><path d="m448 312v136l40 40v-224l-8 9.6-26.88 32.25z" fill="#55785f"/><path d="m264 488h224v-224l-8 9.6v54.71l-26.87-22.45-.01-.01-5.12 6.15v10.43l32 26.74v19.14l-26.87-22.45a7.987 7.987 0 0 0 -5.13-1.86v18.43l32 26.74v90.83h-90.83l-26.74-32h-18.43a7.987 7.987 0 0 0 1.86 5.13l22.45 26.87h-19.14l-26.74-32h-10.43l-6.15 5.12.01.01 22.45 26.87h-54.71z" fill="#6b9777"/><path d="m318.29 318.29 1.13 12.44 4.53 49.79 91.45 91.45 16.03 16.03h56.57v-56.57l-107.48-107.48-8.06-.73-41.73-3.8z" fill="#6b9777"/><path d="m319.42 330.73 62.42 62.43-31.55 7.88a7.929 7.929 0 0 0 -3.71 2.11l12.25 12.25 36.21-9.05 43.37 43.38-31.55 7.88a7.929 7.929 0 0 0 -3.71 2.11l12.25 12.25 36.2-9.05 25.08 25.08h11.32v-11.32l-53.37-53.36 9.06-36.2-12.25-12.25a7.88 7.88 0 0 0 -2.11 3.71l-7.89 31.55-43.37-43.38 9.05-36.2-6.6-6.6-8.06-.73-7.59 30.34-34.14-34.14-12.44-1.13z" fill="#55785f"/><path d="m228.619 276 24 20.254a75.638 75.638 0 0 1 -24 3.746c-26.509 0-48-12.536-48-28s21.491-28 48-28c19.148 0 35.677 6.54 43.381 16z" fill="#8b9e57"/><path d="m228.619 272 24 20.254a75.638 75.638 0 0 1 -24 3.746c-26.509 0-48-12.536-48-28s21.491-28 48-28c19.148 0 35.677 6.54 43.381 16z" fill="#aac16b"/><path d="m251.381 420-24 20.254a75.638 75.638 0 0 0 24 3.746c26.509 0 48-12.536 48-28s-21.491-28-48-28c-19.148 0-35.677 6.54-43.381 16z" fill="#8b9e57"/><path d="m251.381 416-24 20.254a75.638 75.638 0 0 0 24 3.746c26.509 0 48-12.536 48-28s-21.491-28-48-28c-19.148 0-35.677 6.54-43.381 16z" fill="#aac16b"/><path d="m488 136.15v16.16a34.189 34.189 0 0 0 -24 32.67v55.02a24 24 0 0 1 -48 0v-210l16 1v209a8 8 0 0 0 16 0v-55.02a50.171 50.171 0 0 1 38.06-48.74z" fill="#8b9e57"/><path d="m396 144a36.04 36.04 0 0 1 -36-36v-92h16v92a20 20 0 0 0 40 0v-92h16v92a36.04 36.04 0 0 1 -36 36z" fill="#aac16b"/><rect fill="#b9b9b9" height="32" rx="16" width="32" x="208" y="120"/></g></svg>