<svg height="512" viewBox="0 0 512 512" width="512" xmlns="http://www.w3.org/2000/svg"><g id="flat"><path d="m280 360-256-136v136z" fill="#5e8569"/><path d="m488 360v-72l-144-80-144 152z" fill="#5e8569"/><path d="m408 360h-384l144-136z" fill="#85bc94"/><circle cx="255.996" cy="119.984" fill="#fbb540" r="32"/><path d="m256 64a8 8 0 0 1 -8-8v-16a8 8 0 0 1 16 0v16a8 8 0 0 1 -8 8z" fill="#fbedbf"/><path d="m224.008 72.576a8 8 0 0 1 -6.936-4l-4-6.928a8 8 0 0 1 13.856-8l4 6.928a8 8 0 0 1 -6.92 12z" fill="#fbedbf"/><path d="m200.566 96a7.956 7.956 0 0 1 -3.992-1.073l-6.928-4a8 8 0 0 1 8-13.856l6.928 4a8 8 0 0 1 -4.008 14.929z" fill="#fbedbf"/><path d="m192 128h-16a8 8 0 0 1 0-16h16a8 8 0 0 1 0 16z" fill="#fbedbf"/><path d="m193.654 164a8 8 0 0 1 -4.008-14.929l6.928-4a8 8 0 1 1 8 13.856l-6.928 4a7.963 7.963 0 0 1 -3.992 1.073z" fill="#fbedbf"/><path d="m219.992 190.355a8 8 0 0 1 -6.92-12l4-6.928a8 8 0 1 1 13.856 8l-4 6.928a8 8 0 0 1 -6.936 4z" fill="#fbedbf"/><path d="m256 208a8 8 0 0 1 -8-8v-16a8 8 0 0 1 16 0v16a8 8 0 0 1 -8 8z" fill="#fbedbf"/><path d="m292.008 190.355a8 8 0 0 1 -6.936-4l-4-6.928a8 8 0 0 1 13.856-8l4 6.928a8 8 0 0 1 -6.92 12z" fill="#fbedbf"/><path d="m318.346 164a7.95 7.95 0 0 1 -3.992-1.073l-6.928-4a8 8 0 1 1 8-13.856l6.928 4a8 8 0 0 1 -4.008 14.929z" fill="#fbedbf"/><path d="m336 128h-16a8 8 0 0 1 0-16h16a8 8 0 0 1 0 16z" fill="#fbedbf"/><path d="m311.434 96a8 8 0 0 1 -4.008-14.929l6.928-4a8 8 0 0 1 8 13.856l-6.928 4a7.969 7.969 0 0 1 -3.992 1.073z" fill="#fbedbf"/><path d="m287.992 72.576a8 8 0 0 1 -6.92-12l4-6.928a8 8 0 1 1 13.856 8l-4 6.928a8 8 0 0 1 -6.936 4z" fill="#fbedbf"/><path d="m488 392v96h-464v-128h208z" fill="#c0f5f9"/><path d="m408 368a8 8 0 0 1 -8-8v-24a8 8 0 0 1 16 0v24a8 8 0 0 1 -8 8z" fill="#8f563b"/><path d="m488 392h-256a16 16 0 0 1 -16-16 16 16 0 0 1 16-16h256z" fill="#9a826a"/><path d="m312 432a8 8 0 0 1 -8-8v-80a8 8 0 0 1 16 0v80a8 8 0 0 1 -8 8z" fill="#746250"/><path d="m376 432a8 8 0 0 1 -8-8v-80a8 8 0 0 1 16 0v80a8 8 0 0 1 -8 8z" fill="#746250"/><path d="m328 432h-32a8 8 0 0 1 0-16h32a8 8 0 0 1 0 16z" fill="#aedee2"/><path d="m248 432a8 8 0 0 1 -8-8v-80a8 8 0 0 1 16 0v80a8 8 0 0 1 -8 8z" fill="#746250"/><path d="m264 432h-32a8 8 0 0 1 0-16h32a8 8 0 0 1 0 16z" fill="#aedee2"/><path d="m392 432h-32a8 8 0 0 1 0-16h32a8 8 0 0 1 0 16z" fill="#aedee2"/><path d="m440 432a8 8 0 0 1 -8-8v-80a8 8 0 0 1 16 0v80a8 8 0 0 1 -8 8z" fill="#746250"/><g fill="#aedee2"><path d="m456 432h-32a8 8 0 0 1 0-16h32a8 8 0 0 1 0 16z"/><path d="m200 432h-24a8 8 0 0 1 0-16h24a8 8 0 0 1 0 16z"/><path d="m144 432h-16a8 8 0 0 1 0-16h16a8 8 0 0 1 0 16z"/><path d="m112 424a8 8 0 0 1 -8 8h-80v-16h80a8 8 0 0 1 8 8z"/><path d="m80 400h-24a8 8 0 0 1 0-16h24a8 8 0 0 1 0 16z"/><path d="m144 400h-32a8 8 0 0 1 0-16h32a8 8 0 0 1 0 16z"/><path d="m192 400h-16a8 8 0 0 1 0-16h16a8 8 0 0 1 0 16z"/><path d="m80 464h-24a8 8 0 0 1 0-16h24a8 8 0 0 1 0 16z"/><path d="m200 464h-88a8 8 0 0 1 0-16h88a8 8 0 0 1 0 16z"/><path d="m256 464h-24a8 8 0 0 1 0-16h24a8 8 0 0 1 0 16z"/><path d="m328 464h-40a8 8 0 0 1 0-16h40a8 8 0 0 1 0 16z"/><path d="m400 464h-40a8 8 0 0 1 0-16h40a8 8 0 0 1 0 16z"/><path d="m488 464h-56a8 8 0 0 1 0-16h56z"/></g><path d="m168 336v24h-16v-24a8 8 0 0 1 16 0z" fill="#8f563b"/><path d="m104 336v24h-16v-24a8 8 0 0 1 16 0z" fill="#8f563b"/><path d="m128 80a16 16 0 0 1 -16 16h-72a16 16 0 1 1 0-32h1.01a32.008 32.008 0 0 1 61.98 0h9.01a15.964 15.964 0 0 1 16 16z" fill="#a8d6da"/><path d="m127.5 76a16.012 16.012 0 0 1 -15.5 12h-72a15.987 15.987 0 0 1 -15.5-12 16.012 16.012 0 0 1 15.5-12h1.01a32.008 32.008 0 0 1 61.98 0h9.01a15.987 15.987 0 0 1 15.5 12z" fill="#c0f5f9"/><path d="m488 168a16 16 0 0 1 -16 16h-72a16 16 0 1 1 0-32 24 24 0 0 1 42.45-15.35 24.006 24.006 0 0 1 28.18 15.35h1.37a15.964 15.964 0 0 1 16 16z" fill="#a8d6da"/><path d="m487.5 164a16.012 16.012 0 0 1 -15.5 12h-72a15.987 15.987 0 0 1 -15.5-12 16.012 16.012 0 0 1 15.5-12 24 24 0 0 1 42.45-15.35 24.006 24.006 0 0 1 28.18 15.35h1.37a15.987 15.987 0 0 1 15.5 12z" fill="#c0f5f9"/><rect fill="#aac16b" height="48" rx="16" width="32" x="144" y="288"/><rect fill="#aac16b" height="48" rx="16" width="32" x="392" y="288"/><rect fill="#aac16b" height="48" rx="16" width="32" x="80" y="288"/></g></svg>