<svg height="512" viewBox="0 0 512 512" width="512" xmlns="http://www.w3.org/2000/svg"><g id="flat"><path d="m469.657 202.343a8 8 0 0 0 -11.314 0l-4.687 4.686a47.114 47.114 0 0 0 -5.656 6.842 47.114 47.114 0 0 0 -5.656-6.842l-4.687-4.686a8 8 0 0 0 -11.314 11.314l4.686 4.687a30.423 30.423 0 0 1 8.971 21.656 8 8 0 0 0 16 0 30.423 30.423 0 0 1 8.971-21.656l4.686-4.687a8 8 0 0 0 0-11.314z" fill="#aac16b"/><path d="m66.343 202.343-4.687 4.686a47.179 47.179 0 0 0 -5.656 6.842 47.179 47.179 0 0 0 -5.656-6.842l-4.687-4.686a8 8 0 0 0 -11.314 11.314l4.686 4.687a30.423 30.423 0 0 1 8.971 21.656 8 8 0 0 0 16 0 30.423 30.423 0 0 1 8.971-21.656l4.686-4.687a8 8 0 0 0 -11.314-11.314z" fill="#aac16b"/><path d="m280 120-48-24v48a24 24 0 0 0 24 24 24 24 0 0 0 24-24z" fill="#ffb1b5"/><path d="m168 120-48-24v48a24 24 0 0 0 24 24 24 24 0 0 0 24-24z" fill="#ffb1b5"/><path d="m256 248a8 8 0 0 1 -8-8v-72a8 8 0 0 1 16 0v72a8 8 0 0 1 -8 8z" fill="#55785f"/><path d="m144 248a8 8 0 0 1 -8-8v-72a8 8 0 0 1 16 0v72a8 8 0 0 1 -8 8z" fill="#55785f"/><path d="m368 248a8 8 0 0 1 -8-8v-72a8 8 0 0 1 16 0v72a8 8 0 0 1 -8 8z" fill="#55785f"/><path d="m24 240h464v248h-464z" fill="#9a826a"/><path d="m456 420a19.994 19.994 0 0 1 -20 20h-296a20 20 0 0 1 0-40 20 20 0 0 0 0-40h-24a20 20 0 0 1 0-40h24a20 20 0 0 0 0-40h-56a20 20 0 0 1 0-40h288a20 20 0 0 1 0 40 20 20 0 0 0 0 40h24a20 20 0 0 1 0 40h-24a20.016 20.016 0 0 0 -19.6 16.01 20.147 20.147 0 0 0 -.4 3.99 20.013 20.013 0 0 0 20 20h64a19.994 19.994 0 0 1 20 20z" fill="#4799cf"/><path d="m296 184h-15.614a20.986 20.986 0 0 0 -20.36 15.9l-4.026 16.1h15.614a20.986 20.986 0 0 0 20.36-15.9z" fill="#85bc94"/><path d="m216 184h15.614a20.986 20.986 0 0 1 20.36 15.9l4.026 16.1h-15.614a20.986 20.986 0 0 1 -20.36-15.9z" fill="#85bc94"/><path d="m120 144a24 24 0 0 0 24 24 24 24 0 0 0 24-24v-32l-32.821 10.94a22.2 22.2 0 0 0 -15.179 21.06z" fill="#eea5a9"/><path d="m392 120-48-24v48a24 24 0 0 0 24 24 24 24 0 0 0 24-24z" fill="#ffb1b5"/><path d="m344 144a24 24 0 0 0 24 24 24 24 0 0 0 24-24v-32l-32.821 10.94a22.2 22.2 0 0 0 -15.179 21.06z" fill="#eea5a9"/><path d="m184 184h-15.614a20.986 20.986 0 0 0 -20.36 15.9l-4.026 16.1h15.614a20.986 20.986 0 0 0 20.36-15.9z" fill="#85bc94"/><path d="m104 184h15.614a20.986 20.986 0 0 1 20.36 15.9l4.026 16.1h-15.614a20.986 20.986 0 0 1 -20.36-15.9z" fill="#85bc94"/><path d="m408 184h-15.614a20.986 20.986 0 0 0 -20.36 15.9l-4.026 16.1h15.614a20.986 20.986 0 0 0 20.36-15.9z" fill="#85bc94"/><path d="m328 184h15.614a20.986 20.986 0 0 1 20.36 15.9l4.026 16.1h-15.614a20.986 20.986 0 0 1 -20.36-15.9z" fill="#85bc94"/><path d="m296 392h-16a8 8 0 0 1 0-16h16a8 8 0 0 1 0 16z" fill="#6cbae5"/><path d="m355.45 391.22a7.972 7.972 0 0 1 -3.45.78h-32a8 8 0 0 1 0-16h32c.13 0 .27 0 .4.01a20.147 20.147 0 0 0 -.4 3.99 19.852 19.852 0 0 0 3.45 11.22z" fill="#6cbae5"/><path d="m328 360h-24a8 8 0 0 1 0-16h24a8 8 0 0 1 0 16z" fill="#4799cf"/><path d="m200 336h-16a8 8 0 0 1 0-16h16a8 8 0 0 1 0 16z" fill="#6cbae5"/><path d="m232 280h-24a8 8 0 0 1 0-16h24a8 8 0 0 1 0 16z" fill="#6cbae5"/><path d="m184 280h-16a8 8 0 0 1 0-16h16a8 8 0 0 1 0 16z" fill="#6cbae5"/><path d="m328 280h-8a8 8 0 0 1 0-16h8a8 8 0 0 1 0 16z" fill="#6cbae5"/><g fill="#746250"><path d="m424.667 279.167h16.333v16.333h-16.333z"/><path d="m440 360h16v16h-16z"/><path d="m56 295.5h16.333v16.333h-16.333z"/><path d="m80.5 376.167h16.333v16.333h-16.333z"/><path d="m56 441.5h16.333v16.333h-16.333z"/></g><path d="m425.4 69.529-3.976-.089a15.291 15.291 0 0 1 -14.58-18.62 15.291 15.291 0 0 1 12.256-11.72 15.29 15.29 0 0 1 17.949 15.4l-.089 3.975z" fill="#fd9226"/><path d="m436.963 58.471 3.975.089a15.291 15.291 0 0 1 14.581 18.62 15.291 15.291 0 0 1 -12.261 11.72 15.29 15.29 0 0 1 -17.948-15.4l.089-3.975z" fill="#e08122"/><path d="m59.2 59.407-.019-3.977a15.291 15.291 0 0 1 18.219-15.079 15.291 15.291 0 0 1 12.05 11.938 15.29 15.29 0 0 1 -14.907 18.359l-3.976.019z" fill="#f3af3e"/><path d="m70.567 70.667.018 3.976a15.29 15.29 0 0 1 -18.217 15.08 15.289 15.289 0 0 1 -12.051-11.938 15.29 15.29 0 0 1 14.906-18.359l3.977-.019z" fill="#da922a"/><path d="m227.381 392-24 20.254a75.638 75.638 0 0 0 24 3.746c26.509 0 48-12.536 48-28s-21.491-28-48-28c-19.148 0-35.677 6.54-43.381 16z" fill="#6b9777"/><path d="m272 296 24-20.254a75.638 75.638 0 0 0 -24-3.746c-26.51 0-48 12.536-48 28s21.49 28 48 28c19.148 0 35.677-6.54 43.381-16z" fill="#6b9777"/><path d="m272 288 24-20.254a75.638 75.638 0 0 0 -24-3.746c-26.51 0-48 12.536-48 28s21.49 28 48 28c19.148 0 35.677-6.54 43.381-16z" fill="#85bc94"/><path d="m227.381 384-24 20.254a75.638 75.638 0 0 0 24 3.746c26.509 0 48-12.536 48-28s-21.491-28-48-28c-19.148 0-35.677 6.54-43.381 16z" fill="#85bc94"/><path d="m232 144a24 24 0 0 0 24 24 24 24 0 0 0 24-24v-32l-32.821 10.94a22.2 22.2 0 0 0 -15.179 21.06z" fill="#eea5a9"/></g></svg>