<svg height="512" viewBox="0 0 512 512" width="512" xmlns="http://www.w3.org/2000/svg"><g id="flat"><path d="m24 368h464v120h-464z" fill="#6fbbc6"/><path d="m232 184a120.044 120.044 0 0 1 76-111.677 120 120 0 1 0 0 223.354 120.044 120.044 0 0 1 -76-111.677z" fill="#fbb540"/><path d="m112 272a32 32 0 0 0 -64 0 24 24 0 0 0 -24 24 24 24 0 0 0 24 24h64a24 24 0 0 0 24-24 24 24 0 0 0 -24-24z" fill="#dbdbdb"/><path d="m440 152a32 32 0 0 0 -59.892-15.681 24 24 0 0 0 -20.022 21.722 23.937 23.937 0 0 0 -8.086 17.959 24 24 0 0 0 24 24h64a24 24 0 0 0 24-24 24 24 0 0 0 -24-24z" fill="#dbdbdb"/><path d="m56 120h16v16h-16z" fill="#fbb540"/><path d="m32 144h16v16h-16z" fill="#fbb540"/><path d="m80 144h16v16h-16z" fill="#fbb540"/><path d="m56 168h16v16h-16z" fill="#fbb540"/><g fill="#fbd699"><path d="m456 16h16v16h-16z"/><path d="m432 40h16v16h-16z"/><path d="m480 40h16v16h-16z"/><path d="m456 64h16v16h-16z"/><path d="m360 240h16v16h-16z"/><path d="m336 264h16v16h-16z"/><path d="m384 264h16v16h-16z"/><path d="m360 288h16v16h-16z"/></g><path d="m224.382 230.271a30.6 30.6 0 0 1 -14.458-3.638 8 8 0 0 1 7.552-14.106 14.561 14.561 0 0 0 15.05-.759 8 8 0 0 1 8.948 13.264 30.532 30.532 0 0 1 -17.092 5.239z" fill="#da922a"/><path d="m192 168h16v16h-16z" fill="#da922a"/><path d="m256 400h-40a8 8 0 0 1 0-16h40a8 8 0 0 1 0 16z" fill="#c0f5f9"/><path d="m312 424h-120a8 8 0 0 1 0-16h120a8 8 0 0 1 0 16z" fill="#c0f5f9"/><path d="m280 448h-32a8 8 0 0 1 0-16h32a8 8 0 0 1 0 16z" fill="#c0f5f9"/><path d="m240 472h-32a8 8 0 0 1 0-16h32a8 8 0 0 1 0 16z" fill="#c0f5f9"/><path d="m216 448h-48a8 8 0 0 1 0-16h48a8 8 0 0 1 0 16z" fill="#c0f5f9"/><path d="m288 472h-16a8 8 0 0 1 0-16h16a8 8 0 0 1 0 16z" fill="#c0f5f9"/></g></svg>