<svg height="512" viewBox="0 0 512 512" width="512" xmlns="http://www.w3.org/2000/svg"><g id="flat"><path d="m24 24h464v464h-464z" fill="#a8d6da"/><path d="m488 216v216h-272l146.46-212.12 30.3-43.88 63.24-5.312z" fill="#4799cf"/><path d="m296 432h-272v-256-16l48 16 74.86 40z" fill="#4799cf"/><path d="m408 48a24 24 0 0 0 -48 0 24 24 0 0 0 -24 24 24 24 0 0 0 24 24h48a24 24 0 0 0 24-24 24 24 0 0 0 -24-24z" fill="#4799cf"/><path d="m448 72a24 24 0 0 0 -48 0 24 24 0 0 0 -24 24 24 24 0 0 0 24 24h48a24 24 0 0 0 24-24 24 24 0 0 0 -24-24z" fill="#6cbae5"/><path d="m488 432h-464l184.65-312 55.35-8 63.02 48z" fill="#6cbae5"/><path d="m327.02 160h-47.02l-24-40h-47.35l47.35-80z" fill="#ebebeb"/><path d="m146.86 216h-57.88l-24-40h-40.98v-16l40-64z" fill="#ebebeb"/><path d="m488 168v48h-16.65l-24-40h-54.59l54.89-79.49 10.3 17.41z" fill="#ebebeb"/><path d="m136 104a24 24 0 0 0 -48 0 24 24 0 0 0 -24 24 24 24 0 0 0 24 24h48a24 24 0 0 0 24-24 24 24 0 0 0 -24-24z" fill="#6cbae5"/><path d="m24 432h464v64h-464z" fill="#b3e4e8"/><g fill="#8aced8"><path d="m272 472h-24a8 8 0 0 1 0-16h24a8 8 0 0 1 0 16z"/><path d="m312 472h-8a8 8 0 0 1 0-16h8a8 8 0 0 1 0 16z"/><path d="m448 472h-88a8 8 0 0 1 0-16h88a8 8 0 0 1 0 16z"/><path d="m208 472h-80a8 8 0 0 1 0-16h80a8 8 0 0 1 0 16z"/><path d="m104 464a8 8 0 0 1 -8 8h-72v-16h72a8 8 0 0 1 8 8z"/></g><path d="m312 288-32 56h64z" fill="#6b9777"/><path d="m272 392 24-48h32l24 48z" fill="#55785f"/><path d="m304 392h16v40h-16z" fill="#746250"/><path d="m424 288-32 56h64z" fill="#6b9777"/><path d="m384 392 24-48h32l24 48z" fill="#55785f"/><path d="m416 392h16v40h-16z" fill="#70400e"/><path d="m200 288-32 56h64z" fill="#6b9777"/><path d="m160 392 24-48h32l24 48z" fill="#55785f"/><path d="m192 392h16v40h-16z" fill="#70400e"/><path d="m88 288-32 56h64z" fill="#6b9777"/><path d="m48 392 24-48h32l24 48z" fill="#5e8569"/><path d="m80 392h16v40h-16z" fill="#746250"/></g></svg>