<svg height="512" viewBox="0 0 512 512" width="512" xmlns="http://www.w3.org/2000/svg"><g id="flat"><path d="m488 280v208c0-8-144-208-144-208l21.71-43.43 46.23-44.57 54.35 44.57z" fill="#55785f"/><path d="m24 280v208c0-8 144-208 144-208l-21.71-43.43-50.29-49.084-50.29 49.084z" fill="#55785f"/><path d="m488 488h-464l151.03-276.02 77.213-63.98 86.907 67.97z" fill="#7aac88"/><path d="m264 296v192h-16v-192a8 8 0 0 1 16 0z" fill="#55785f"/><path d="m376 328v160h-16v-160a8 8 0 0 1 16 0z" fill="#55785f"/><path d="m152 328v160h-16v-160a8 8 0 0 1 16 0z" fill="#55785f"/><path d="m339.15 215.97-51.15-31.97-32 48-32-48-48.97 27.98 80.97-147.98z" fill="#ebebeb"/><path d="m466.29 236.57-34.29-20.57-16 32-16-32-34.29 20.57 50.29-100.57z" fill="#dbdbdb"/><path d="m45.71 236.57 34.29-20.57 16 32 16-32 34.29 20.57-50.29-100.57z" fill="#dbdbdb"/><path d="m167.161 41.707a24 24 0 0 0 -46.322 0 15.984 15.984 0 0 0 -8.839 14.293 16 16 0 0 0 16 16h32a16 16 0 0 0 16-16 15.984 15.984 0 0 0 -8.839-14.293z" fill="#c0f5f9"/><path d="m383.161 73.707a24 24 0 0 0 -46.322 0 15.984 15.984 0 0 0 -8.839 14.293 16 16 0 0 0 16 16h32a16 16 0 0 0 16-16 15.984 15.984 0 0 0 -8.839-14.293z" fill="#c0f5f9"/><g fill="#55785f"><path d="m296 344a46.318 46.318 0 0 1 -32.97-13.657l-7.03-7.03-7.03 7.03a46.318 46.318 0 0 1 -32.97 13.657 8 8 0 0 1 0-16 30.43 30.43 0 0 0 21.657-8.97l12.686-12.687a8 8 0 0 1 11.314 0l12.686 12.687a30.43 30.43 0 0 0 21.657 8.97 8 8 0 0 1 0 16z"/><path d="m296 384a46.318 46.318 0 0 1 -32.97-13.657l-7.03-7.03-7.03 7.03a46.318 46.318 0 0 1 -32.97 13.657 8 8 0 0 1 0-16 30.43 30.43 0 0 0 21.657-8.97l12.686-12.687a8 8 0 0 1 11.314 0l12.686 12.687a30.43 30.43 0 0 0 21.657 8.97 8 8 0 0 1 0 16z"/><path d="m296 424a46.318 46.318 0 0 1 -32.97-13.657l-7.03-7.03-7.03 7.03a46.318 46.318 0 0 1 -32.97 13.657 8 8 0 0 1 0-16 30.43 30.43 0 0 0 21.657-8.97l12.686-12.687a8 8 0 0 1 11.314 0l12.686 12.687a30.43 30.43 0 0 0 21.657 8.97 8 8 0 0 1 0 16z"/><path d="m408 376a46.318 46.318 0 0 1 -32.97-13.657l-7.03-7.03-7.03 7.03a46.318 46.318 0 0 1 -32.97 13.657 8 8 0 0 1 0-16 30.43 30.43 0 0 0 21.657-8.97l12.686-12.687a8 8 0 0 1 11.314 0l12.686 12.687a30.43 30.43 0 0 0 21.657 8.97 8 8 0 0 1 0 16z"/><path d="m408 416a46.318 46.318 0 0 1 -32.97-13.657l-7.03-7.03-7.03 7.03a46.318 46.318 0 0 1 -32.97 13.657 8 8 0 0 1 0-16 30.43 30.43 0 0 0 21.657-8.97l12.686-12.687a8 8 0 0 1 11.314 0l12.686 12.687a30.43 30.43 0 0 0 21.657 8.97 8 8 0 0 1 0 16z"/><path d="m408 456a46.318 46.318 0 0 1 -32.97-13.657l-7.03-7.03-7.03 7.03a46.318 46.318 0 0 1 -32.97 13.657 8 8 0 0 1 0-16 30.43 30.43 0 0 0 21.657-8.97l12.686-12.687a8 8 0 0 1 11.314 0l12.686 12.687a30.43 30.43 0 0 0 21.657 8.97 8 8 0 0 1 0 16z"/><path d="m184 376a46.318 46.318 0 0 1 -32.97-13.657l-7.03-7.03-7.03 7.03a46.318 46.318 0 0 1 -32.97 13.657 8 8 0 0 1 0-16 30.43 30.43 0 0 0 21.657-8.97l12.686-12.687a8 8 0 0 1 11.314 0l12.686 12.687a30.43 30.43 0 0 0 21.657 8.97 8 8 0 0 1 0 16z"/><path d="m184 416a46.318 46.318 0 0 1 -32.97-13.657l-7.03-7.03-7.03 7.03a46.318 46.318 0 0 1 -32.97 13.657 8 8 0 0 1 0-16 30.43 30.43 0 0 0 21.657-8.97l12.686-12.687a8 8 0 0 1 11.314 0l12.686 12.687a30.43 30.43 0 0 0 21.657 8.97 8 8 0 0 1 0 16z"/><path d="m184 456a46.318 46.318 0 0 1 -32.97-13.657l-7.03-7.03-7.03 7.03a46.318 46.318 0 0 1 -32.97 13.657 8 8 0 0 1 0-16 30.43 30.43 0 0 0 21.657-8.97l12.686-12.687a8 8 0 0 1 11.314 0l12.686 12.687a30.43 30.43 0 0 0 21.657 8.97 8 8 0 0 1 0 16z"/></g></g></svg>