<svg height="512" viewBox="0 0 512 512" width="512" xmlns="http://www.w3.org/2000/svg"><g id="flat"><circle cx="262.641" cy="80" fill="#fd9226" r="24"/><path d="m24 264h464v224h-464z" fill="#ea9d2d"/><path d="m488 232v32h-464v-72a171.306 171.306 0 0 0 79.61-55.51l17.94-22.42 14.45-18.07 6.85 4.74 60.03 41.56a253.053 253.053 0 0 0 80.83 36.98z" fill="#f3af3e"/><path d="m444 120a19.912 19.912 0 0 0 4-12 19.988 19.988 0 0 0 -17.3-19.8 24 24 0 0 0 -45.4 0 19.988 19.988 0 0 0 -17.3 19.8 19.912 19.912 0 0 0 4 12z" fill="#c0f5f9"/><path d="m100 72a19.912 19.912 0 0 0 4-12 19.989 19.989 0 0 0 -17.3-19.8 24 24 0 0 0 -45.4 0 19.989 19.989 0 0 0 -17.3 19.8 19.912 19.912 0 0 0 4 12z" fill="#b8eaee"/><path d="m352 264h-248a48 48 0 0 0 -48 48 48 48 0 0 0 48 48h48a39.937 39.937 0 0 0 -16 32 40 40 0 0 0 40 40h144a40 40 0 0 0 40-40 39.937 39.937 0 0 0 -16-32h8a48 48 0 0 0 48-48 48 48 0 0 0 -48-48z" fill="#428dc5"/><path d="m448 392h-40q0-16.05-1.37-32-1.395-16.1-4.17-32-2.805-16.155-7.03-32-4.32-16.215-10.1-32a371.85 371.85 0 0 0 -16.68-38.71l-.65-1.29h32l1.04 1.87a369.263 369.263 0 0 1 18.42 38.13q6.555 15.735 11.6 32 4.935 15.795 8.43 32 3.45 15.855 5.49 32c.68 5.3 1.23 10.62 1.68 15.95z" fill="#6b9777"/><path d="m288.962 164.19 87.069 61.619a28.861 28.861 0 0 0 .324-32.876 98.561 98.561 0 0 0 -56.5-39.983 28.861 28.861 0 0 0 -30.9 11.24z" fill="#85bc94"/><path d="m468 164.19-87.069 61.619a28.863 28.863 0 0 1 -.324-32.876 98.564 98.564 0 0 1 56.5-39.983 28.86 28.86 0 0 1 30.893 11.24z" fill="#85bc94"/><path d="m381.333 232h106.667a28.859 28.859 0 0 0 -18.727-27.022 98.55 98.55 0 0 0 -69.213 0 28.86 28.86 0 0 0 -18.727 27.022z" fill="#55785f"/><path d="m444.98 360h-38.35q-1.395-16.1-4.17-32h37.03q3.45 15.855 5.49 32z" fill="#55785f"/><path d="m431.06 296h-35.63q-4.32-16.215-10.1-32h34.13q6.555 15.735 11.6 32z" fill="#55785f"/><circle cx="392" cy="440" fill="#8dc79d" r="16"/><circle cx="448" cy="400" fill="#8dc79d" r="16"/><path d="m158.25 205a8.014 8.014 0 0 1 -11.25 1.25l-7.39-5.91a68.145 68.145 0 0 1 -21.99-74.49l3.93-11.78 14.45-18.07 6.85 4.74-10.05 30.17a52.074 52.074 0 0 0 16.81 56.93l7.39 5.91a8.007 8.007 0 0 1 1.25 11.25z" fill="#ea9d2d"/><path d="m192 240a7.969 7.969 0 0 1 -5-1.753l-20-16a8 8 0 1 1 10-12.494l20 16a8 8 0 0 1 -5 14.247z" fill="#ea9d2d"/><path d="m152 456a8 8 0 0 1 -8 8h-14.39a60.992 60.992 0 0 1 -47.86-23 45.069 45.069 0 0 0 -35.36-17h-22.39v-16h22.39a60.992 60.992 0 0 1 47.86 23 45.069 45.069 0 0 0 35.36 17h14.39a8 8 0 0 1 8 8z" fill="#c38325"/><path d="m64 216h16v16h-16z" fill="#ea9d2d"/><path d="m160 152h16v16h-16z" fill="#ea9d2d"/><path d="m224 200h16v16h-16z" fill="#ea9d2d"/><path d="m120 224h16v16h-16z" fill="#ea9d2d"/><path d="m48 448h16v16h-16z" fill="#c38325"/><path d="m80 384h16v16h-16z" fill="#c38325"/><path d="m432 440h16v16h-16z" fill="#c38325"/><path d="m336 448h16v16h-16z" fill="#ea9d2d"/><g fill="#6cbae5"><path d="m96 288h40v16h-40z"/><path d="m152 288h16v16h-16z"/><path d="m192 288h72v16h-72z"/><path d="m296 288h16v16h-16z"/><path d="m192 320h112v16h-112z"/><path d="m328 320h32v16h-32z"/><path d="m136 320h32v16h-32z"/><path d="m88 320h24v16h-24z"/><path d="m184 352h64v16h-64z"/><path d="m272 352h40v16h-40z"/><path d="m160 384h48v16h-48z"/><path d="m232 384h16v16h-16z"/><path d="m272 384h64v16h-64z"/></g><path d="m262.641 40a8 8 0 0 1 -8-8v-8a8 8 0 1 1 16 0v8a8 8 0 0 1 -8 8z" fill="#fbb540"/><path d="m221.352 64.5a7.976 7.976 0 0 1 -3.993-1.072l-6.928-4a8 8 0 1 1 8-13.858l6.928 4a8 8 0 0 1 -4.007 14.93z" fill="#fbb540"/><path d="m215.013 116.5a8 8 0 0 1 -4.008-14.93l6.929-4a8 8 0 0 1 8 13.858l-6.929 4a7.978 7.978 0 0 1 -3.992 1.072z" fill="#fbb540"/><path d="m263.79 144a8 8 0 0 1 -8-8v-8a8 8 0 1 1 16 0v8a8 8 0 0 1 -8 8z" fill="#fbb540"/><path d="m311.992 115.5a7.966 7.966 0 0 1 -3.992-1.069l-6.928-4a8 8 0 0 1 8-13.856l6.928 4a8 8 0 0 1 -4.008 14.929z" fill="#fbb540"/><path d="m304.505 63.5a8 8 0 0 1 -4.008-14.93l6.929-4a8 8 0 0 1 8 13.858l-6.929 4a7.978 7.978 0 0 1 -3.992 1.072z" fill="#fbb540"/><path d="m274.667 232h106.666a28.859 28.859 0 0 0 -18.726-27.022 98.553 98.553 0 0 0 -69.214 0 28.859 28.859 0 0 0 -18.726 27.022z" fill="#55785f"/></g></svg>