<svg height="512" viewBox="0 0 512 512" width="512" xmlns="http://www.w3.org/2000/svg"><g id="flat"><path d="m213.269 192a48.012 48.012 0 1 0 -91.09-30.337 32 32 0 0 0 -42.179 30.337z" fill="#dbdbdb"/><path d="m184 360h144v32h-144z" fill="#bd9070"/><path d="m296 436a8 8 0 0 1 -8-8v-68a8 8 0 0 1 16 0v68a8 8 0 0 1 -8 8z" fill="#746250"/><path d="m216 437a8 8 0 0 1 -8-8v-69a8 8 0 0 1 16 0v69a8 8 0 0 1 -8 8z" fill="#746250"/><path d="m184 456h16v32h-16z" fill="#746250"/><path d="m312 456h16v32h-16z" fill="#746250"/><path d="m102.433 311.688a43 43 0 1 0 -44.866 0 56 56 0 1 0 44.866 0z" fill="#aac16b"/><path d="m448.688 285.324a50.358 50.358 0 1 0 -52.542 0 65.583 65.583 0 1 0 52.542 0z" fill="#85bc94"/><path d="m92.422 272.845-4.422 2.211v-11.056a8 8 0 0 0 -16 0v92.686l-10.343-10.343a8 8 0 0 0 -11.314 11.314l21.657 21.657v108.686a8 8 0 0 0 16 0v-195.056l11.578-5.789a8 8 0 1 0 -7.156-14.31z" fill="#a88e74"/><path d="m445.572 244.422a8 8 0 0 0 -10.733-3.577l-4.422 2.211v-19.056a8 8 0 1 0 -16 0v124.686l-10.343-10.343a8 8 0 0 0 -11.314 11.314l21.657 21.657v116.686a8 8 0 0 0 16 0v-227.056l11.583-5.789a8 8 0 0 0 3.572-10.733z" fill="#a88e74"/><path d="m144 488h-24l-8-32h40z" fill="#dbdbdb"/><path d="m464 464h-80a8 8 0 0 1 0-16h80a8 8 0 0 1 0 16z" fill="#c3c3c3"/><path d="m301.269 224a48.012 48.012 0 1 0 -91.09-30.337 32 32 0 0 0 -42.179 30.337z" fill="#eaeae8"/><path d="m454.862 148.5a28.507 28.507 0 0 0 -53.6-19.148 19.99 19.99 0 0 0 -25.762 19.148z" fill="#eaeae8"/><circle cx="256.012" cy="104.013" fill="#fbb540" r="32"/><g fill="#fbedbf"><path d="m254.214 48.034h-.2a8 8 0 0 1 -7.805-8.191l.387-16.009a8 8 0 1 1 16 .387l-.386 16.009a8 8 0 0 1 -7.996 7.804z"/><path d="m199.7 81.585a7.965 7.965 0 0 1 -4.158-1.171l-13.671-8.339a8 8 0 0 1 8.332-13.66l13.671 8.339a8 8 0 0 1 -4.174 14.831z"/><path d="m325.983 150.781a7.965 7.965 0 0 1 -4.158-1.171l-13.671-8.339a8 8 0 0 1 8.332-13.66l13.671 8.339a8 8 0 0 1 -4.174 14.831z"/><path d="m310.525 78.465a8 8 0 0 1 -3.839-15.025l14.058-7.669a8 8 0 1 1 7.663 14.044l-14.058 7.67a7.962 7.962 0 0 1 -3.824.98z"/><path d="m283.2 63.061a8 8 0 0 1 -6.986-11.886l15.541-27.975a8 8 0 0 1 13.987 7.77l-15.542 27.974a8 8 0 0 1 -7 4.117z"/><path d="m227.224 63.984a8 8 0 0 1 -6.87-3.886l-16.454-27.445a8 8 0 0 1 13.723-8.228l16.455 27.444a8 8 0 0 1 -6.853 12.115z"/><path d="m168.021 113.465a8 8 0 0 1 -.129-16l32-.528a8 8 0 1 1 .263 16l-32 .528z"/><path d="m312 111.089a8 8 0 0 1 -.13-16l32-.528a8 8 0 1 1 .264 16l-32 .528z"/></g><path d="m176 424h160v32h-160z" fill="#bd9070"/><path d="m392 496a8 8 0 0 1 -8-8v-48a8 8 0 0 1 16 0v48a8 8 0 0 1 -8 8z" fill="#cbcbcb"/><path d="m456 496a8 8 0 0 1 -8-8v-48a8 8 0 0 1 16 0v48a8 8 0 0 1 -8 8z" fill="#cbcbcb"/><path d="m488 496h-464a8 8 0 0 1 0-16h464a8 8 0 0 1 0 16z" fill="#6b9777"/></g></svg>