<svg height="512" viewBox="0 0 512 512" width="512" xmlns="http://www.w3.org/2000/svg"><g id="flat"><path d="m208 304-16 8h-168v-8l90.26-88z" fill="#ea9d2d"/><path d="m114.256 216 37.744 88h56z" fill="#c38325"/><path d="m408 304-8 8h-288l-16-8 160-176z" fill="#f3af3e"/><path d="m256 128 80 176h72z" fill="#c38325"/><path d="m248 240h16v16h-16z" fill="#ea9d2d"/><path d="m224 264h16v16h-16z" fill="#ea9d2d"/><path d="m272 264h16v16h-16z" fill="#ea9d2d"/><path d="m24 304h464v184h-464z" fill="#c38325"/><path d="m24 488v-184h140.528a263.153 263.153 0 0 1 139.472 40 263.153 263.153 0 0 0 139.472 40h44.528v104z" fill="#d18d28"/><path d="m24 488v-136h116.528a263.153 263.153 0 0 1 139.472 40 263.153 263.153 0 0 0 139.472 40h68.528v56z" fill="#da922a"/><path d="m24 400h65.754a431.82 431.82 0 0 1 179.921 39.268l106.325 48.732h-352z" fill="#ea9d2d"/><path d="m488 336a365.438 365.438 0 0 0 -204.766 62.757l-131.916 89.243h336.682z" fill="#f3af3e"/><path d="m488 304-32-8-16 8h-173l113.33-120z" fill="#fbb540"/><path d="m380.333 184 56.667 120 3 8 48-8z" fill="#c38325"/><g fill="#fbb540"><circle cx="112.012" cy="103.987" r="32"/><path d="m110.214 48.009h-.2a8 8 0 0 1 -7.8-8.191l.387-16.009a8 8 0 1 1 15.995.386l-.388 16.005a8 8 0 0 1 -7.994 7.809z"/><path d="m55.7 81.56a7.965 7.965 0 0 1 -4.158-1.171l-13.671-8.34a8 8 0 1 1 8.329-13.659l13.67 8.339a8 8 0 0 1 -4.17 14.831z"/><path d="m43.456 153.208a8 8 0 0 1 -3.839-15.024l14.058-7.67a8 8 0 0 1 7.663 14.046l-14.058 7.67a7.959 7.959 0 0 1 -3.824.978z"/><path d="m113.432 191.975h-.2a8 8 0 0 1 -7.8-8.191l.386-16.009a8 8 0 0 1 16 .386l-.387 16.009a8 8 0 0 1 -7.999 7.805z"/><path d="m181.983 150.756a7.965 7.965 0 0 1 -4.158-1.171l-13.671-8.339a8 8 0 0 1 8.332-13.66l13.671 8.34a8 8 0 0 1 -4.174 14.83z"/><path d="m166.525 78.439a8 8 0 0 1 -3.839-15.023l14.057-7.671a8 8 0 1 1 7.664 14.045l-14.057 7.67a7.956 7.956 0 0 1 -3.825.979z"/><path d="m139.2 63.036a8 8 0 0 1 -6.986-11.887l15.54-27.973a8 8 0 0 1 13.987 7.771l-15.541 27.973a8 8 0 0 1 -7 4.116z"/><path d="m83.224 63.959a8 8 0 0 1 -6.87-3.887l-16.454-27.445a8 8 0 0 1 13.722-8.227l16.455 27.445a8 8 0 0 1 -6.853 12.114z"/><path d="m24.021 113.439a8 8 0 0 1 -.129-16l32-.527a8 8 0 1 1 .263 16l-32 .527z"/><path d="m69.268 188.915a8 8 0 0 1 -6.986-11.887l15.541-27.973a8 8 0 1 1 13.986 7.771l-15.54 27.974a8 8 0 0 1 -7.001 4.115z"/><path d="m157.271 187.462a8 8 0 0 1 -6.869-3.887l-16.455-27.445a8 8 0 0 1 13.723-8.23l16.455 27.446a8 8 0 0 1 -6.854 12.114z"/><path d="m168 111.063a8 8 0 0 1 -.129-16l32-.527a8 8 0 1 1 .264 16l-32 .527z"/></g><path d="m304 56a16 16 0 0 0 -32 0 16 16 0 0 0 -16 16 16 16 0 0 0 16 16h32a16 16 0 0 0 16-16 16 16 0 0 0 -16-16z" fill="#dbdbdb"/><path d="m344 80a16 16 0 0 0 -32 0 16 16 0 0 0 -16 16 16 16 0 0 0 16 16h32a16 16 0 0 0 16-16 16 16 0 0 0 -16-16z" fill="#ebebeb"/><path d="m48 432h16v16h-16z" fill="#d18d28"/><path d="m80 432h16v16h-16z" fill="#d18d28"/><path d="m112 432h16v16h-16z" fill="#d18d28"/><path d="m144 432h16v16h-16z" fill="#d18d28"/><path d="m376 264h16v16h-16z" fill="#ea9d2d"/></g></svg>