<svg height="512" viewBox="0 0 512 512" width="512" xmlns="http://www.w3.org/2000/svg"><g id="flat"><path d="m256 304a8 8 0 0 1 -8-8v-40a8 8 0 0 1 16 0v40a8 8 0 0 1 -8 8z" fill="#cd9c7a"/><path d="m224 304a8 8 0 0 1 -8-8v-40a8 8 0 0 1 16 0v40a8 8 0 0 1 -8 8z" fill="#cd9c7a"/><path d="m192 304a8 8 0 0 1 -8-8v-40a8 8 0 0 1 16 0v40a8 8 0 0 1 -8 8z" fill="#cd9c7a"/><path d="m288 304a8 8 0 0 1 -8-8v-40a8 8 0 0 1 16 0v40a8 8 0 0 1 -8 8z" fill="#cd9c7a"/><path d="m320 304a8 8 0 0 1 -8-8v-40a8 8 0 0 1 16 0v40a8 8 0 0 1 -8 8z" fill="#cd9c7a"/><path d="m408 320-53.448-7.636a107.781 107.781 0 0 0 -68.241-24.364h-60.622a107.779 107.779 0 0 0 -68.241 24.364l-53.448 7.636-80 24v144h464v-152z" fill="#aac16b"/><g fill="#6b9777"><path d="m264 432v56h-16v-56a8 8 0 0 1 16 0z"/><path d="m328 432v56h-16v-56a8 8 0 0 1 16 0z"/><path d="m392 432v56h-16v-56a8 8 0 0 1 16 0z"/><path d="m456 432v56h-16v-56a8 8 0 0 1 16 0z"/><path d="m72 432v56h-16v-56a8 8 0 0 1 16 0z"/><path d="m136 432v56h-16v-56a8 8 0 0 1 16 0z"/><path d="m200 432v56h-16v-56a8 8 0 0 1 16 0z"/></g><path d="m104 60a19.994 19.994 0 0 1 -20 20h-40a20.007 20.007 0 0 1 -20-20 20.248 20.248 0 0 1 .4-4 20.014 20.014 0 0 1 16.9-15.8 24 24 0 0 1 45.4 0 20.025 20.025 0 0 1 16.9 15.8 20.248 20.248 0 0 1 .4 4z" fill="#b3e4e8"/><path d="m103.6 56a20 20 0 0 1 -19.6 16h-40a20.021 20.021 0 0 1 -19.6-16 20.014 20.014 0 0 1 16.9-15.8 24 24 0 0 1 45.4 0 20.025 20.025 0 0 1 16.9 15.8z" fill="#c0f5f9"/><path d="m256 192-16 64h32z" fill="#55785f"/><path d="m224 192-16 64h32z" fill="#55785f"/><path d="m192 192-16 64h32z" fill="#55785f"/><path d="m288 192-16 64h32z" fill="#55785f"/><path d="m320 192-16 64h32z" fill="#55785f"/><path d="m56.5 288c0-110.181 89.319-199.5 199.5-199.5s199.5 89.319 199.5 199.5a200.329 200.329 0 0 1 -4.154 40.669l24.031 4.807a225 225 0 0 0 4.623-45.476c0-123.712-100.288-224-224-224s-224 100.288-224 224a224.564 224.564 0 0 0 6.03 51.791l23.51-7.053a200.084 200.084 0 0 1 -5.04-44.738z" fill="#37c9c3"/><path d="m256 88.5c-110.181 0-199.5 89.319-199.5 199.5a200.084 200.084 0 0 0 5.04 44.738l22.579-6.774a176 176 0 1 1 344.177-1.9l23.05 4.61a200.329 200.329 0 0 0 4.154-40.674c0-110.181-89.319-199.5-199.5-199.5z" fill="#fbb540"/><path d="m107.284 319.531a152 152 0 1 1 297.433 0l3.283.469 20.3 4.059a176 176 0 1 0 -344.177 1.9l19.877-5.959z" fill="#f55648"/><path d="m256 440a16 16 0 0 1 -16-16v-24l16.478 4.119a20.494 20.494 0 0 1 15.522 19.881 16 16 0 0 1 -16 16z" fill="#f55648"/><path d="m320 440a16 16 0 0 1 -16-16v-24l16.478 4.119a20.494 20.494 0 0 1 15.522 19.881 16 16 0 0 1 -16 16z" fill="#d970a2"/><path d="m384 440a16 16 0 0 1 -16-16v-24l16.478 4.119a20.494 20.494 0 0 1 15.522 19.881 16 16 0 0 1 -16 16z" fill="#f55648"/><path d="m448 440a16 16 0 0 1 -16-16v-24l16.478 4.119a20.494 20.494 0 0 1 15.522 19.881 16 16 0 0 1 -16 16z" fill="#d970a2"/><path d="m64 440a16 16 0 0 1 -16-16v-24l16.478 4.119a20.494 20.494 0 0 1 15.522 19.881 16 16 0 0 1 -16 16z" fill="#d970a2"/><path d="m128 440a16 16 0 0 1 -16-16v-24l16.478 4.119a20.494 20.494 0 0 1 15.522 19.881 16 16 0 0 1 -16 16z" fill="#f55648"/><path d="m192 440a16 16 0 0 1 -16-16v-24l16.478 4.119a20.494 20.494 0 0 1 15.522 19.881 16 16 0 0 1 -16 16z" fill="#d970a2"/><path d="m266.343 450.343-10.343 10.343-10.343-10.343a8 8 0 0 0 -11.314 11.314l16 16a8 8 0 0 0 11.314 0l16-16a8 8 0 0 0 -11.314-11.314z" fill="#55785f"/><path d="m330.343 450.343-10.343 10.343-10.343-10.343a8 8 0 0 0 -11.314 11.314l16 16a8 8 0 0 0 11.314 0l16-16a8 8 0 0 0 -11.314-11.314z" fill="#55785f"/><path d="m394.343 450.343-10.343 10.343-10.343-10.343a8 8 0 0 0 -11.314 11.314l16 16a8 8 0 0 0 11.314 0l16-16a8 8 0 0 0 -11.314-11.314z" fill="#55785f"/><path d="m469.657 450.343a8 8 0 0 0 -11.314 0l-10.343 10.343-10.343-10.343a8 8 0 0 0 -11.314 11.314l16 16a8 8 0 0 0 11.314 0l16-16a8 8 0 0 0 0-11.314z" fill="#55785f"/><path d="m74.343 450.343-10.343 10.343-10.343-10.343a8 8 0 0 0 -11.314 11.314l16 16a8 8 0 0 0 11.314 0l16-16a8 8 0 0 0 -11.314-11.314z" fill="#55785f"/><path d="m138.343 450.343-10.343 10.343-10.343-10.343a8 8 0 0 0 -11.314 11.314l16 16a8 8 0 0 0 11.314 0l16-16a8 8 0 1 0 -11.314-11.314z" fill="#55785f"/><path d="m202.343 450.343-10.343 10.343-10.343-10.343a8 8 0 0 0 -11.314 11.314l16 16a8 8 0 0 0 11.314 0l16-16a8 8 0 1 0 -11.314-11.314z" fill="#55785f"/><path d="m266.343 346.343-2.343 2.343v-4.686a8 8 0 0 0 -16 0v4.686l-2.343-2.343a8 8 0 0 0 -11.314 11.314l16 16c.02.02.042.036.062.056.168.164.341.324.523.473.1.079.2.147.3.221s.219.168.334.245.234.144.351.214.21.13.32.189.242.118.364.175.228.112.346.161.237.088.356.13.253.095.383.134.24.062.36.093.264.07.4.1.28.044.42.064c.118.017.234.039.354.051.262.026.526.04.789.04s.527-.014.789-.04c.12-.012.236-.034.354-.051.14-.02.281-.036.42-.064s.266-.064.4-.1.241-.057.36-.093.255-.088.383-.134.239-.082.356-.13.231-.107.346-.161.245-.111.364-.175.213-.126.32-.189.237-.137.351-.214.224-.162.334-.245.2-.142.3-.221c.182-.149.355-.309.523-.473.02-.02.042-.036.062-.056l16-16a8 8 0 0 0 -11.314-11.314z" fill="#6b9777"/><path d="m341.657 346.343a8 8 0 0 0 -11.314 0l-2.343 2.343v-4.686a8 8 0 0 0 -16 0v4.686l-2.343-2.343a8 8 0 0 0 -11.314 11.314l16 16c.02.02.042.036.062.056.168.164.341.324.523.473.1.079.2.147.3.221s.219.168.334.245.234.144.351.214.21.13.32.189.242.118.364.175.228.112.346.161.237.088.356.13.253.095.383.134.24.062.36.093.264.07.4.1.28.044.42.064c.118.017.234.039.354.051.262.026.526.04.789.04s.527-.014.789-.04c.12-.012.236-.034.354-.051.14-.02.281-.036.42-.064s.266-.064.4-.1.241-.057.36-.093.255-.088.383-.134.239-.082.356-.13.231-.107.346-.161.245-.111.364-.175.213-.126.32-.189.237-.137.351-.214.224-.162.334-.245.2-.142.3-.221c.182-.149.355-.309.523-.473.02-.02.042-.036.062-.056l16-16a8 8 0 0 0 -.01-11.314z" fill="#6b9777"/><path d="m202.343 346.343-2.343 2.343v-4.686a8 8 0 0 0 -16 0v4.686l-2.343-2.343a8 8 0 0 0 -11.314 11.314l16 16c.02.02.042.036.062.056.168.164.341.324.523.473.1.079.2.147.3.221s.219.168.334.245.234.144.351.214.21.13.32.189.242.118.364.175.228.112.346.161.237.088.356.13.253.095.383.134.24.062.36.093.264.07.4.1.28.044.42.064c.118.017.234.039.354.051.262.026.526.04.789.04s.527-.014.789-.04c.12-.012.236-.034.354-.051.14-.02.281-.036.42-.064s.266-.064.4-.1.241-.057.36-.093.255-.088.383-.134.239-.082.356-.13.231-.107.346-.161.245-.111.364-.175.213-.126.32-.189.237-.137.351-.214.223-.162.334-.245.2-.142.3-.221c.182-.149.355-.309.523-.473.02-.02.042-.036.062-.056l16-16a8 8 0 1 0 -11.314-11.314z" fill="#6b9777"/><path d="m488 116a19.994 19.994 0 0 1 -20 20h-40a20.007 20.007 0 0 1 -20-20 20.248 20.248 0 0 1 .4-4 20.014 20.014 0 0 1 16.9-15.8 24 24 0 0 1 45.4 0 20.025 20.025 0 0 1 16.9 15.8 20.248 20.248 0 0 1 .4 4z" fill="#b3e4e8"/><path d="m487.6 112a20 20 0 0 1 -19.6 16h-40a20.021 20.021 0 0 1 -19.6-16 20.014 20.014 0 0 1 16.9-15.8 24 24 0 0 1 45.4 0 20.025 20.025 0 0 1 16.9 15.8z" fill="#b8eaee"/></g></svg>