<svg height="512" viewBox="0 0 512 512" width="512" xmlns="http://www.w3.org/2000/svg"><g id="flat"><path d="m24 160h464v328h-464z" fill="#746250"/><path d="m152 488-20.086-63.6c-29.114-102.976 59.206-123.344 58.154-122.827l52.274-17.19c13.171-4.331 14.012-22.644 1.292-28.164l-46.064-19.989q-.756-.406-1.486-.842c-22.706-13.517-23.931-46.08-2.945-62.138l6.861-5.25h24l-4.319 21.6a20.35 20.35 0 0 0 14.366 23.559l69.316 19.8c36.18 10.334 47.947 55.735 21.34 82.342a37.8 37.8 0 0 0 -6.19 45.775c24.987 43.158 73.487 126.924 73.487 126.924" fill="#4799cf"/><path d="m232 168h-208v-40l80-24 32 16z" fill="#6b9777"/><path d="m488 136v32h-40l-40.88-33.45 48.88-30.55z" fill="#85bc94"/><path d="m360 96-72.83 33.1 64.83 38.9h96z" fill="#6b9777"/><path d="m184 448a8 8 0 0 1 -7.588-5.472l-12.687-38.058a49.494 49.494 0 0 1 24.7-59.627 8 8 0 1 1 7.156 14.31 33.416 33.416 0 0 0 -16.681 40.259l12.686 38.058a8 8 0 0 1 -7.586 10.53z" fill="#6cbae5"/><path d="m216.006 348a8 8 0 0 1 -3.584-15.157l8-4a8 8 0 1 1 7.156 14.31l-8 4a7.976 7.976 0 0 1 -3.572.847z" fill="#6cbae5"/><path d="m264.006 312a8 8 0 0 1 -4.806-14.4l14.631-10.973a14.956 14.956 0 0 0 3.469-20.255l-3.956-5.934a8 8 0 1 1 13.312-8.876l3.957 5.935a30.966 30.966 0 0 1 -7.182 41.931l-14.631 10.972a7.967 7.967 0 0 1 -4.794 1.6z" fill="#6cbae5"/><path d="m296.008 384a8 8 0 0 1 -6.868-3.885l-10.34-17.241a41.932 41.932 0 0 1 6.315-51.3l5.233-5.233a8 8 0 0 1 11.314 11.314l-5.234 5.234a25.954 25.954 0 0 0 -3.908 31.751l10.345 17.242a8 8 0 0 1 -6.857 12.118z" fill="#6cbae5"/><path d="m360 488h-16.62l-14.81-37.03a8 8 0 1 1 14.86-5.94l16 40a7.991 7.991 0 0 1 .57 2.97z" fill="#6cbae5"/><path d="m287.17 129.1 64.83 38.9h-120l-80-40 80-32z" fill="#85bc94"/><path d="m80 152-24 64h48z" fill="#aac16b"/><path d="m72 216h16v24h-16z" fill="#bd9070"/><path d="m128 152-24 64h48z" fill="#85bc94"/><path d="m120 216h16v24h-16z" fill="#bd9070"/><path d="m336 152-24 64h48z" fill="#aac16b"/><path d="m328 216h16v24h-16z" fill="#bd9070"/><path d="m384 152-24 64h48z" fill="#85bc94"/><path d="m376 216h16v24h-16z" fill="#bd9070"/><path d="m432 152-24 64h48z" fill="#aac16b"/><path d="m424 216h16v24h-16z" fill="#bd9070"/><path d="m200 488a127.754 127.754 0 0 1 31.608-84.124l24.392-27.876 24.392 27.876a127.754 127.754 0 0 1 31.608 84.124z" fill="#f3af3e"/><path d="m256 444a8 8 0 0 1 -8-8v-60a8 8 0 0 1 16 0v60a8 8 0 0 1 -8 8z" fill="#ea9d2d"/><path d="m488 448a24 24 0 0 0 -46.651-7.936 23.987 23.987 0 1 0 -1.359 47.936h48.01z" fill="#6b9777"/><path d="m24 448a24 24 0 0 1 46.651-7.936 23.987 23.987 0 1 1 1.359 47.936h-48.01z" fill="#6b9777"/><g fill="#574a3c"><path d="m488 368v16h-32a8 8 0 0 1 0-16z"/><path d="m424 384h-16a8 8 0 0 1 0-16h16a8 8 0 0 1 0 16z"/><path d="m376 384h-16a8 8 0 0 1 0-16h16a8 8 0 0 1 0 16z"/><path d="m432 416h-48a8 8 0 0 1 0-16h48a8 8 0 0 1 0 16z"/><path d="m48 376h-16a8 8 0 0 1 0-16h16a8 8 0 0 1 0 16z"/><path d="m96 376h-16a8 8 0 0 1 0-16h16a8 8 0 0 1 0 16z"/><path d="m96 408h-32a8 8 0 0 1 0-16h32a8 8 0 0 1 0 16z"/><path d="m88 280h-24a8 8 0 0 1 0-16h24a8 8 0 0 1 0 16z"/><path d="m136 280h-16a8 8 0 0 1 0-16h16a8 8 0 0 1 0 16z"/><path d="m192 280h-24a8 8 0 0 1 0-16h24a8 8 0 0 1 0 16z"/><path d="m416 272h-40a8 8 0 0 1 0-16h40a8 8 0 0 1 0 16z"/></g><circle cx="168" cy="56" fill="#fbb540" r="24"/><path d="m96 56h-56a8 8 0 0 1 0-16h56a8 8 0 0 1 0 16z" fill="#6cbae5"/><path d="m80 32h-16a8 8 0 0 1 0-16h16a8 8 0 0 1 0 16z" fill="#6cbae5"/><path d="m80 80h-32a8 8 0 0 1 0-16h32a8 8 0 0 1 0 16z" fill="#6cbae5"/><path d="m352 56h-96a8 8 0 0 1 0-16h96a8 8 0 0 1 0 16z" fill="#6cbae5"/><path d="m320 32h-48a8 8 0 0 1 0-16h48a8 8 0 0 1 0 16z" fill="#6cbae5"/><path d="m344 80h-32a8 8 0 0 1 0-16h32a8 8 0 0 1 0 16z" fill="#6cbae5"/><path d="m288 80h-16a8 8 0 0 1 0-16h16a8 8 0 0 1 0 16z" fill="#6cbae5"/><path d="m24 256 40 8v24l32 16v32h-40-32v-64z" fill="#a8a8a8"/><path d="m56 312-32-16v40h32z" fill="#878787"/><path d="m424 248-16 32-40 16v48h120v-96z" fill="#878787"/><path d="m400 312v32h88v-64h-40l-24 24z" fill="#a8a8a8"/><path d="m232 488v-6.059a81.941 81.941 0 0 1 24-57.941 81.941 81.941 0 0 1 24 57.941v6.059z" fill="#c38325"/><path d="m368 344h120v8h-120z" fill="#574a3c"/><path d="m24 336h72v8.001h-72z" fill="#574a3c"/></g></svg>