<svg height="512" viewBox="0 0 512 512" width="512" xmlns="http://www.w3.org/2000/svg"><g id="flat"><path d="m384 320h104v32h-72z" fill="#70400e"/><circle cx="255.988" cy="128.013" fill="#fd9226" r="32"/><g fill="#fbd699"><path d="m288.39 80.822a8 8 0 0 1 -6.67-12.407l8.819-13.367a8 8 0 1 1 13.355 8.812l-8.819 13.367a7.994 7.994 0 0 1 -6.685 3.595z"/><path d="m224.4 80.352a8 8 0 0 1 -7.16-4.422l-7.166-14.321a8 8 0 1 1 14.308-7.16l7.166 14.321a8 8 0 0 1 -7.148 11.582z"/><path d="m191.994 135.542c-.161 0-.322 0-.485-.015l-15.986-.954a8 8 0 0 1 .955-15.972l15.985.955a8 8 0 0 1 -.469 15.986z"/><path d="m214.752 204.572a8 8 0 0 1 -6.669-12.407l8.817-13.365a8 8 0 1 1 13.355 8.812l-8.819 13.367a7.992 7.992 0 0 1 -6.684 3.593z"/><path d="m294.753 206a8 8 0 0 1 -7.16-4.422l-7.166-14.322a8 8 0 0 1 14.308-7.16l7.166 14.322a8 8 0 0 1 -7.148 11.582z"/><path d="m335.982 137.438c-.16 0-.321 0-.484-.014l-15.985-.955a8 8 0 1 1 .954-15.971l15.985.954a8 8 0 0 1 -.47 15.986z"/><path d="m305.017 108.941a8 8 0 0 1 -3.875-15l28.011-15.47a8 8 0 1 1 7.736 14.006l-28.012 15.47a7.966 7.966 0 0 1 -3.86.994z"/><path d="m257.056 80.022h-.156a8 8 0 0 1 -7.846-8.151l.609-31.994a8 8 0 1 1 16 .3l-.609 31.994a8 8 0 0 1 -7.998 7.851z"/><path d="m208.024 107.1a7.952 7.952 0 0 1 -4.123-1.15l-27.401-16.528a8 8 0 1 1 8.261-13.7l27.4 16.524a8 8 0 0 1 -4.139 14.852z"/><path d="m178.962 178.557a8 8 0 0 1 -3.875-15l28.013-15.474a8 8 0 1 1 7.735 14l-28.011 15.47a7.968 7.968 0 0 1 -3.862 1.004z"/><path d="m254.317 224h-.155a8 8 0 0 1 -7.846-8.151l.609-31.994a8 8 0 0 1 16 .305l-.609 31.994a8 8 0 0 1 -7.999 7.846z"/><path d="m331.34 181.455a7.961 7.961 0 0 1 -4.123-1.15l-27.4-16.524a8 8 0 0 1 8.262-13.7l27.4 16.524a8 8 0 0 1 -4.139 14.852z"/></g><path d="m24 352h464v136h-464z" fill="#ea9d2d"/><path d="m416 352h-392v-32l40-8 8-24 32-16 23.42 5.85 8.58 2.15 7.42-3.71 24.58-12.29 14.59 9.73 9.41 6.27h32l24 24 7.55-3.77 16.21-8.11 8.24-4.12 24 16h64z" fill="#985713"/><path d="m269.66 325.66a8.015 8.015 0 0 1 -11.32 0l-45.66-45.66h11.32l24 24 7.55-3.77 14.11 14.11a8.015 8.015 0 0 1 0 11.32z" fill="#70400e"/><path d="m334.66 324.44a8.016 8.016 0 0 1 -11.1 2.22l-51.8-34.54 8.24-4.12 24 16h14.43l14.01 9.34a8.013 8.013 0 0 1 2.22 11.1z" fill="#70400e"/><path d="m201.57 327.84a7.772 7.772 0 0 1 -1.58.16 8 8 0 0 1 -7.83-6.43l-9.57-47.84 9.41 6.27h8.15l7.69 38.43a7.99 7.99 0 0 1 -6.27 9.41z" fill="#70400e"/><path d="m145.57 327.84a7.772 7.772 0 0 1 -1.58.16 8 8 0 0 1 -7.83-6.43l-8.74-43.72 8.58 2.15 7.42-3.71 8.42 42.14a7.99 7.99 0 0 1 -6.27 9.41z" fill="#70400e"/><path d="m88 432h-8a8 8 0 0 1 0-16h8a8.009 8.009 0 0 0 8-8v-8a8 8 0 0 1 16 0v8a24.028 24.028 0 0 1 -24 24z" fill="#5e8569"/><path d="m80 416h-8a24.028 24.028 0 0 1 -24-24 8 8 0 0 1 16 0 8.009 8.009 0 0 0 8 8h8a8 8 0 0 1 0 16z" fill="#5e8569"/><path d="m80 475.32c-4.418 0-8-4-8-8.943v-89.434c0-4.943 3.582-8.943 8-8.943s8 4 8 8.943v89.434c0 4.939-3.582 8.943-8 8.943z" fill="#6b9777"/><path d="m424 488h-400l170.96-78.91a80.2 80.2 0 0 0 45.04-57.09h32l1.48 7.42a80.244 80.244 0 0 0 34.16 51.01z" fill="#eaeae8"/><path d="m440 440h-8a8 8 0 0 1 0-16h8a8.009 8.009 0 0 0 8-8v-8a8 8 0 0 1 16 0v8a24.028 24.028 0 0 1 -24 24z" fill="#5e8569"/><path d="m432 424h-8a24.028 24.028 0 0 1 -24-24 8 8 0 0 1 16 0 8.009 8.009 0 0 0 8 8h8a8 8 0 0 1 0 16z" fill="#5e8569"/><path d="m440 168h-32a8 8 0 0 1 0-16h32a8 8 0 0 1 0 16z" fill="#6cbae5"/><path d="m488 200h-112a8 8 0 0 1 0-16h112a8 8 0 0 1 0 16z" fill="#6cbae5"/><path d="m480 232h-32a8 8 0 0 1 0-16h32a8 8 0 0 1 0 16z" fill="#6cbae5"/><path d="m416 232h-24a8 8 0 0 1 0-16h24a8 8 0 0 1 0 16z" fill="#4799cf"/><path d="m80 152h-56a8 8 0 0 1 0-16h56a8 8 0 0 1 0 16z" fill="#4799cf"/><path d="m96 120h-24a8 8 0 0 1 0-16h24a8 8 0 0 1 0 16z" fill="#4799cf"/><path d="m488 168h-24a8 8 0 0 1 0-16h24a8 8 0 0 1 0 16z" fill="#4799cf"/><path d="m120 152h-16a8 8 0 0 1 0-16h16a8 8 0 0 1 0 16z" fill="#6cbae5"/><path d="m104 184h-32a8 8 0 0 1 0-16h32a8 8 0 0 1 0 16z" fill="#4799cf"/><path d="m40 184h-16a8 8 0 0 1 0-16h16a8 8 0 0 1 0 16z" fill="#6cbae5"/><path d="m40 120h-16a8 8 0 0 1 0-16h16a8 8 0 0 1 0 16z" fill="#6cbae5"/><path d="m432 464a8 8 0 0 1 -8-8v-72a8 8 0 0 1 16 0v72a8 8 0 0 1 -8 8z" fill="#6b9777"/><path d="m248 352h16v24h-16z" fill="#c3c3c3"/><path d="m248 392h16v24h-16z" fill="#c3c3c3"/><path d="m248 432h16v24h-16z" fill="#c3c3c3"/><path d="m248 472h16v16h-16z" fill="#c3c3c3"/></g></svg>