<svg height="512" viewBox="0 0 512 512" width="512" xmlns="http://www.w3.org/2000/svg"><g id="flat"><path d="m256 304a8 8 0 0 1 -8-8v-40a8 8 0 0 1 16 0v40a8 8 0 0 1 -8 8z" fill="#8f563b"/><path d="m352 264h-192l38.4-64 57.6-96 57.6 96z" fill="#ebebeb"/><path d="m448 72h-8a24 24 0 0 0 -48 0h-8a24 24 0 0 0 -24 24 24 24 0 0 0 24 24h64a24 24 0 0 0 24-24 24 24 0 0 0 -24-24z" fill="#b3e4e8"/><path d="m384 48h-8a24 24 0 0 0 -48 0h-8a24 24 0 0 0 -24 24 24 24 0 0 0 24 24h64a24 24 0 0 0 24-24 24 24 0 0 0 -24-24z" fill="#c0f5f9"/><circle cx="104.013" cy="111.984" fill="#fd9226" r="32"/><g fill="#fbedbf"><path d="m136.414 64.793a8 8 0 0 1 -6.67-12.406l8.819-13.367a8 8 0 1 1 13.355 8.812l-8.818 13.368a7.994 7.994 0 0 1 -6.686 3.593z"/><path d="m72.426 64.323a8 8 0 0 1 -7.16-4.422l-7.166-14.32a8 8 0 0 1 14.308-7.161l7.166 14.321a8 8 0 0 1 -7.148 11.582z"/><path d="m40.018 119.514c-.161 0-.322 0-.484-.015l-15.986-.955a8 8 0 0 1 .954-15.971l15.986.954a8 8 0 0 1 -.47 15.987z"/><path d="m62.777 188.543a8 8 0 0 1 -6.67-12.406l8.819-13.367a8 8 0 1 1 13.355 8.812l-8.819 13.366a7.994 7.994 0 0 1 -6.685 3.595z"/><path d="m142.778 189.97a8 8 0 0 1 -7.16-4.422l-7.167-14.321a8 8 0 0 1 14.309-7.16l7.166 14.321a8 8 0 0 1 -7.148 11.582z"/><path d="m184.007 121.41c-.16 0-.321 0-.484-.014l-15.985-.955a8 8 0 0 1 .954-15.972l15.985.955a8 8 0 0 1 -.47 15.986z"/><path d="m153.041 92.913a8 8 0 0 1 -3.875-15l28.012-15.471a8 8 0 0 1 7.736 14.006l-28.014 15.467a7.963 7.963 0 0 1 -3.859.998z"/><path d="m105.081 63.994h-.156a8 8 0 0 1 -7.846-8.151l.609-31.994a8 8 0 1 1 16 .3l-.609 31.994a8 8 0 0 1 -7.998 7.851z"/><path d="m56.049 91.068a7.961 7.961 0 0 1 -4.123-1.15l-27.4-16.524a8 8 0 1 1 8.262-13.7l27.4 16.524a8 8 0 0 1 -4.139 14.852z"/><path d="m26.987 162.528a8 8 0 0 1 -3.875-15l28.012-15.47a8 8 0 1 1 7.735 14.006l-28.012 15.466a7.966 7.966 0 0 1 -3.86.998z"/><path d="m102.342 207.968h-.155a8 8 0 0 1 -7.846-8.151l.608-31.994a8 8 0 0 1 16 .3l-.608 31.994a8 8 0 0 1 -7.999 7.851z"/><path d="m179.365 165.426a7.952 7.952 0 0 1 -4.123-1.15l-27.4-16.524a8 8 0 0 1 8.262-13.7l27.4 16.524a8 8 0 0 1 -4.138 14.852z"/></g><path d="m152 296h208a0 0 0 0 1 0 0 64 64 0 0 1 -64 64h-80a64 64 0 0 1 -64-64 0 0 0 0 1 0 0z" fill="#f3af3e"/><path d="m280 328h-48a32 32 0 0 1 -32-32h112a32 32 0 0 1 -32 32z" fill="#c38325"/><path d="m432 192a8 8 0 0 1 -7.155-4.421l-.845-1.689a17.79 17.79 0 0 0 -16-9.89 8 8 0 0 1 0-16 33.7 33.7 0 0 1 24 9.931 33.7 33.7 0 0 1 24-9.931 8 8 0 0 1 0 16 17.791 17.791 0 0 0 -16 9.889l-.845 1.69a8 8 0 0 1 -7.155 4.421z" fill="#6fbbc6"/><path d="m448 256a8 8 0 0 1 -7.155-4.421l-.845-1.689a17.79 17.79 0 0 0 -16-9.89 8 8 0 0 1 0-16 33.7 33.7 0 0 1 24 9.931 33.7 33.7 0 0 1 24-9.931 8 8 0 0 1 0 16 17.791 17.791 0 0 0 -16 9.889l-.845 1.69a8 8 0 0 1 -7.155 4.421z" fill="#6fbbc6"/><path d="m376 224a8 8 0 0 1 -7.155-4.421l-.845-1.689a17.79 17.79 0 0 0 -16-9.89 8 8 0 0 1 0-16 33.7 33.7 0 0 1 24 9.931 33.7 33.7 0 0 1 24-9.931 8 8 0 0 1 0 16 17.791 17.791 0 0 0 -16 9.889l-.845 1.69a8 8 0 0 1 -7.155 4.421z" fill="#6fbbc6"/><path d="m332.8 232h-153.6l19.2-32h115.2z" fill="#f55648"/><path d="m352 264h-96v-160l57.6 96z" fill="#dbdbdb"/><path d="m332.8 232h-76.8v-32h57.6z" fill="#b94137"/><path d="m24 488h464v-123.215a49.668 49.668 0 0 1 -48.259-8.894l-3.441-2.891-3.746 3.149a49.662 49.662 0 0 1 -63.9 0l-3.745-3.149-3.742 3.145a49.661 49.661 0 0 1 -63.9 0l-3.746-3.145-3.737 3.142a49.662 49.662 0 0 1 -63.908 0l-3.735-3.142-3.735 3.139a49.659 49.659 0 0 1 -63.908 0l-3.737-3.139-3.739 3.142a49.66 49.66 0 0 1 -63.907 0l-3.737-3.142-3.734 3.139a49.674 49.674 0 0 1 -51.644 7.584z" fill="#6cbae5"/><path d="m24 488h464v-83.006a49.668 49.668 0 0 1 -48.259-8.894l-3.44-2.891-3.746 3.149a49.661 49.661 0 0 1 -63.9 0l-3.744-3.147-3.742 3.146a49.661 49.661 0 0 1 -63.9 0l-3.742-3.145-3.737 3.142a49.662 49.662 0 0 1 -63.908 0l-3.735-3.14-3.735 3.139a49.66 49.66 0 0 1 -63.908 0l-3.737-3.142-3.739 3.142a49.66 49.66 0 0 1 -63.907 0l-3.737-3.141-3.734 3.14a49.676 49.676 0 0 1 -51.65 7.58z" fill="#4799cf"/></g></svg>