<svg height="512" viewBox="0 0 512 512" width="512" xmlns="http://www.w3.org/2000/svg"><g id="flat"><path d="m488 224v264h-464v-240l40-24 28.67-40.13.01-.01 11.32-15.86h32l42.44-14.15 5.56-1.85 16-56 10.67-10.67 21.33-21.33h32l32 64 9.76 1.63h.01l31.65 5.27 6.58 1.1 24 48h32l32 40z" fill="#cbcbcb"/><path d="m256 432a8 8 0 0 1 -8-8v-160a8 8 0 0 1 16 0v160a8 8 0 0 1 -8 8z" fill="#55785f"/><path d="m160 432a8 8 0 0 1 -8-8v-144a8 8 0 0 1 16 0v144a8 8 0 0 1 -8 8z" fill="#55785f"/><path d="m64 432a8 8 0 0 1 -8-8v-160a8 8 0 0 1 16 0v160a8 8 0 0 1 -8 8z" fill="#55785f"/><path d="m448 432a8 8 0 0 1 -8-8v-160a8 8 0 0 1 16 0v160a8 8 0 0 1 -8 8z" fill="#55785f"/><path d="m352 432a8 8 0 0 1 -8-8v-144a8 8 0 0 1 16 0v144a8 8 0 0 1 -8 8z" fill="#55785f"/><path d="m24 424h464v64h-464z" fill="#c0f5f9"/><path d="m48 448h16v16h-16z" fill="#aedee2"/><path d="m80 448h40v16h-40z" fill="#aedee2"/><path d="m144 448h32v16h-32z" fill="#aedee2"/><path d="m192 448h96v16h-96z" fill="#aedee2"/><path d="m304 448h16v16h-16z" fill="#aedee2"/><path d="m336 448h64v16h-64z" fill="#aedee2"/><path d="m424 448h24v16h-24z" fill="#aedee2"/><path d="m464 448h24v16h-24z" fill="#aedee2"/><g fill="#55785f"><path d="m288 352a7.971 7.971 0 0 1 -5.657-2.344 147.114 147.114 0 0 1 -26.343-35.827 147.114 147.114 0 0 1 -26.343 35.827 8 8 0 1 1 -11.314-11.312 131.221 131.221 0 0 0 24.621-34.16l5.881-11.762a8 8 0 0 1 14.31 0l5.881 11.762a131.221 131.221 0 0 0 24.621 34.16 8 8 0 0 1 -5.657 13.656z"/><path d="m288 392a7.971 7.971 0 0 1 -5.657-2.344 147.114 147.114 0 0 1 -26.343-35.827 147.114 147.114 0 0 1 -26.343 35.827 8 8 0 1 1 -11.314-11.312 131.221 131.221 0 0 0 24.621-34.16l5.881-11.762a8 8 0 0 1 14.31 0l5.881 11.762a131.221 131.221 0 0 0 24.621 34.16 8 8 0 0 1 -5.657 13.656z"/><path d="m288 312a7.971 7.971 0 0 1 -5.657-2.344 147.114 147.114 0 0 1 -26.343-35.827 147.114 147.114 0 0 1 -26.343 35.827 8 8 0 1 1 -11.314-11.312 131.221 131.221 0 0 0 24.621-34.16l5.881-11.762a8 8 0 0 1 14.31 0l5.881 11.762a131.221 131.221 0 0 0 24.621 34.16 8 8 0 0 1 -5.657 13.656z"/><path d="m192 368a7.971 7.971 0 0 1 -5.657-2.344 147.114 147.114 0 0 1 -26.343-35.827 147.114 147.114 0 0 1 -26.343 35.827 8 8 0 1 1 -11.314-11.312 131.221 131.221 0 0 0 24.621-34.16l5.881-11.762a8 8 0 0 1 14.31 0l5.881 11.762a131.221 131.221 0 0 0 24.621 34.16 8 8 0 0 1 -5.657 13.656z"/><path d="m192 408a7.971 7.971 0 0 1 -5.657-2.344 147.114 147.114 0 0 1 -26.343-35.827 147.114 147.114 0 0 1 -26.343 35.827 8 8 0 1 1 -11.314-11.312 131.221 131.221 0 0 0 24.621-34.16l5.881-11.762a8 8 0 0 1 14.31 0l5.881 11.762a131.221 131.221 0 0 0 24.621 34.16 8 8 0 0 1 -5.657 13.656z"/><path d="m192 328a7.971 7.971 0 0 1 -5.657-2.344 147.114 147.114 0 0 1 -26.343-35.827 147.114 147.114 0 0 1 -26.343 35.827 8 8 0 1 1 -11.314-11.312 131.221 131.221 0 0 0 24.621-34.16l5.881-11.762a8 8 0 0 1 14.31 0l5.881 11.762a131.221 131.221 0 0 0 24.621 34.16 8 8 0 0 1 -5.657 13.656z"/><path d="m96 352a7.971 7.971 0 0 1 -5.657-2.344 147.114 147.114 0 0 1 -26.343-35.827 147.114 147.114 0 0 1 -26.343 35.827 8 8 0 1 1 -11.314-11.312 131.221 131.221 0 0 0 24.621-34.16l5.881-11.762a8 8 0 0 1 14.31 0l5.881 11.762a131.221 131.221 0 0 0 24.621 34.16 8 8 0 0 1 -5.657 13.656z"/><path d="m96 392a7.971 7.971 0 0 1 -5.657-2.344 147.114 147.114 0 0 1 -26.343-35.827 147.114 147.114 0 0 1 -26.343 35.827 8 8 0 1 1 -11.314-11.312 131.221 131.221 0 0 0 24.621-34.16l5.881-11.762a8 8 0 0 1 14.31 0l5.881 11.762a131.221 131.221 0 0 0 24.621 34.16 8 8 0 0 1 -5.657 13.656z"/><path d="m96 312a7.971 7.971 0 0 1 -5.657-2.344 147.114 147.114 0 0 1 -26.343-35.827 147.114 147.114 0 0 1 -26.343 35.827 8 8 0 1 1 -11.314-11.312 131.221 131.221 0 0 0 24.621-34.16l5.881-11.762a8 8 0 0 1 14.31 0l5.881 11.762a131.221 131.221 0 0 0 24.621 34.16 8 8 0 0 1 -5.657 13.656z"/><path d="m480 352a7.971 7.971 0 0 1 -5.657-2.344 147.114 147.114 0 0 1 -26.343-35.827 147.114 147.114 0 0 1 -26.343 35.827 8 8 0 1 1 -11.314-11.312 131.221 131.221 0 0 0 24.621-34.16l5.881-11.762a8 8 0 0 1 14.31 0l5.881 11.762a131.221 131.221 0 0 0 24.621 34.16 8 8 0 0 1 -5.657 13.656z"/><path d="m480 392a7.971 7.971 0 0 1 -5.657-2.344 147.114 147.114 0 0 1 -26.343-35.827 147.114 147.114 0 0 1 -26.343 35.827 8 8 0 1 1 -11.314-11.312 131.221 131.221 0 0 0 24.621-34.16l5.881-11.762a8 8 0 0 1 14.31 0l5.881 11.762a131.221 131.221 0 0 0 24.621 34.16 8 8 0 0 1 -5.657 13.656z"/><path d="m480 312a7.971 7.971 0 0 1 -5.657-2.344 147.114 147.114 0 0 1 -26.343-35.827 147.114 147.114 0 0 1 -26.343 35.827 8 8 0 1 1 -11.314-11.312 131.221 131.221 0 0 0 24.621-34.16l5.881-11.762a8 8 0 0 1 14.31 0l5.881 11.762a131.221 131.221 0 0 0 24.621 34.16 8 8 0 0 1 -5.657 13.656z"/><path d="m384 368a7.971 7.971 0 0 1 -5.657-2.344 147.114 147.114 0 0 1 -26.343-35.827 147.114 147.114 0 0 1 -26.343 35.827 8 8 0 1 1 -11.314-11.312 131.221 131.221 0 0 0 24.621-34.16l5.881-11.762a8 8 0 0 1 14.31 0l5.881 11.762a131.221 131.221 0 0 0 24.621 34.16 8 8 0 0 1 -5.657 13.656z"/><path d="m384 408a7.971 7.971 0 0 1 -5.657-2.344 147.114 147.114 0 0 1 -26.343-35.827 147.114 147.114 0 0 1 -26.343 35.827 8 8 0 1 1 -11.314-11.312 131.221 131.221 0 0 0 24.621-34.16l5.881-11.762a8 8 0 0 1 14.31 0l5.881 11.762a131.221 131.221 0 0 0 24.621 34.16 8 8 0 0 1 -5.657 13.656z"/><path d="m384 328a7.971 7.971 0 0 1 -5.657-2.344 147.114 147.114 0 0 1 -26.343-35.827 147.114 147.114 0 0 1 -26.343 35.827 8 8 0 1 1 -11.314-11.312 131.221 131.221 0 0 0 24.621-34.16l5.881-11.762a8 8 0 0 1 14.31 0l5.881 11.762a131.221 131.221 0 0 0 24.621 34.16 8 8 0 0 1 -5.657 13.656z"/></g><circle cx="64" cy="64" fill="#ebebeb" r="16"/><circle cx="136" cy="112" fill="#ebebeb" r="16"/><circle cx="168" cy="40" fill="#ebebeb" r="16"/><circle cx="328" cy="56" fill="#ebebeb" r="16"/><circle cx="416" cy="88" fill="#ebebeb" r="16"/><circle cx="440" cy="160" fill="#ebebeb" r="16"/><circle cx="40" cy="176" fill="#ebebeb" r="16"/><circle cx="472" cy="40" fill="#ebebeb" r="16"/><path d="m331.58 199.16a8.02 8.02 0 0 1 -10.74-3.58l-42.41-84.81-7.88-15.77-15.5-31h8.95l32 64 9.76 1.63h.01l29.39 58.79a8.017 8.017 0 0 1 -3.58 10.74z" fill="#a8a8a8"/><path d="m403.25 263.31a8 8 0 0 1 -10.56-4.06l-55.27-124.35 6.58 1.1 24 48h8.75l30.56 68.75a8 8 0 0 1 -4.06 10.56z" fill="#a8a8a8"/><path d="m210.67 85.33-26.88 116.47a8.007 8.007 0 0 1 -4.21 5.36l-28.36 14.17-7.33 43.99a8 8 0 0 1 -7.88 6.68 7.538 7.538 0 0 1 -1.33-.11 8 8 0 0 1 -6.57-9.21l8-48a8.01 8.01 0 0 1 4.31-5.84l28.63-14.31 9.39-40.68 5.56-1.85 16-56z" fill="#a8a8a8"/><path d="m112 168a7.677 7.677 0 0 1 -.16 1.57l-16 80a8 8 0 0 1 -7.83 6.43 7.772 7.772 0 0 1 -1.58-.16 7.99 7.99 0 0 1 -6.27-9.41l12.51-62.56.01-.01 11.32-15.86z" fill="#a8a8a8"/><path d="m276.06 88.12 7.88 15.76-5.51 6.89-22.43 28.04v29.19a8.008 8.008 0 0 1 -2.34 5.66l-4.91 4.9-17.53 17.53-15.46 61.85a8 8 0 0 1 -7.75 6.06 8.132 8.132 0 0 1 -1.95-.24 7.994 7.994 0 0 1 -5.82-9.7l16-64a8.042 8.042 0 0 1 2.1-3.72l21.66-21.65v-28.69a8.028 8.028 0 0 1 1.75-5l28.8-36z" fill="#a8a8a8"/><path d="m296 248a8 8 0 0 1 -7.588-5.472l-15.212-45.628-30-22.5a8 8 0 0 1 9.6-12.8l32 24a8 8 0 0 1 2.789 3.87l16 48a8 8 0 0 1 -7.589 10.53z" fill="#a8a8a8"/></g></svg>