<svg height="512" viewBox="0 0 512 512" width="512" xmlns="http://www.w3.org/2000/svg"><g id="flat"><circle cx="216.001" cy="184" fill="#fd9226" r="80"/><g fill="#fbd699"><path d="m159.74 95.162a8 8 0 0 1 -6.925-3.982l-16.077-27.669a8 8 0 0 1 13.834-8.038l16.077 27.669a8 8 0 0 1 -6.909 12.02z"/><path d="m328 191.69a8 8 0 0 1 -.022-16l32-.088h.022a8 8 0 0 1 .021 16l-32 .088z"/><path d="m271.724 94.852a8 8 0 0 1 -6.932-11.982l15.924-27.758a8 8 0 0 1 13.884 7.962l-15.929 27.758a8 8 0 0 1 -6.947 4.02z"/><path d="m216 80a8 8 0 0 1 -8-8v-48a8 8 0 0 1 16 0v48a8 8 0 0 1 -8 8z"/><path d="m119 136a7.956 7.956 0 0 1 -3.992-1.073l-41.569-24a8 8 0 1 1 8-13.856l41.569 24a8 8 0 0 1 -4.008 14.929z"/><path d="m313 136a8 8 0 0 1 -4-14.928l41.569-24a8 8 0 1 1 8 13.856l-41.569 24a7.969 7.969 0 0 1 -4 1.072z"/></g><path d="m312 248 32-32h32l24-40h48l-24 80h-48l-40 48z" fill="#ea9d2d"/><path d="m312 488h176v-344h-32l-40 104h-40l-40 40z" fill="#da922a"/><path d="m168 200 32 64 112 224h176v-168h-128l-64-96h-56l-16-24z" fill="#fbb540"/><path d="m232 304h-72l-67.29-128-12.71-24h-56v336h344z" fill="#c38325"/><path d="m488 384v104h-120l-136-184h-72l-67.29-128h67.29l40 80h64l88 128z" fill="#f3af3e"/><path d="m312 488-96-136h-32l-24-48h72l136 184z" fill="#ea9d2d"/><path d="m424 432v56h-16v-56a8 8 0 0 1 16 0z" fill="#985713"/><path d="m432 56a16 16 0 0 0 -32 0 16 16 0 0 0 -16 16 16 16 0 0 0 16 16h32a16 16 0 0 0 16-16 16 16 0 0 0 -16-16z" fill="#aedee2"/><path d="m72 40a16 16 0 0 0 -32 0 16 16 0 0 0 -16 16 16 16 0 0 0 16 16h32a16 16 0 0 0 16-16 16 16 0 0 0 -16-16z" fill="#b8eaee"/><path d="m472 80a16 16 0 0 0 -32 0 16 16 0 0 0 -16 16 16 16 0 0 0 16 16h32a16 16 0 0 0 16-16 16 16 0 0 0 -16-16z" fill="#b8eaee"/><path d="m104 432v56h-16v-56a8 8 0 0 1 16 0z" fill="#8f563b"/><path d="m184 456v32h-16v-32a8 8 0 0 1 16 0z" fill="#8f563b"/><path d="m176 344-32 64h16l-24 48h80l-24-48h16z" fill="#5e8569"/><path d="m344 456v32h-16v-32a8 8 0 0 1 16 0z" fill="#8f563b"/><path d="m336 344-32 64h16l-24 48h80l-24-48h16z" fill="#5e8569"/><path d="m96 320-32 64h16l-24 48h80l-24-48h16z" fill="#5e8569"/><path d="m264 432v56h-16v-56a8 8 0 0 1 16 0z" fill="#8f563b"/><path d="m256 320-32 64h16l-24 48h80l-24-48h16z" fill="#5e8569"/><path d="m416 320-32 64h16l-24 48h80l-24-48h16z" fill="#5e8569"/></g></svg>