<svg height="512" viewBox="0 0 512 512" width="512" xmlns="http://www.w3.org/2000/svg"><g id="flat"><circle cx="256" cy="256" fill="#fd9226" r="112"/><path d="m416 224h-1.008a32.011 32.011 0 0 0 -61.984 0h-1.008a24 24 0 0 0 -24 24 24 24 0 0 0 24 24h64a24 24 0 0 0 24-24 24 24 0 0 0 -24-24z" fill="#fbb540"/><path d="m168 160h-1.008a32.011 32.011 0 0 0 -61.984 0h-1.008a24 24 0 0 0 -24 24 24 24 0 0 0 24 24h64a24 24 0 0 0 24-24 24 24 0 0 0 -24-24z" fill="#fbb540"/><path d="m112 128h-1.008a32.011 32.011 0 0 0 -61.984 0h-1.008a24 24 0 0 0 -24 24 24 24 0 0 0 24 24h64a24 24 0 0 0 24-24 24 24 0 0 0 -24-24z" fill="#da922a"/><path d="m424 48a8 8 0 0 1 -7.155-4.421l-.845-1.689a17.79 17.79 0 0 0 -16-9.89 8 8 0 0 1 0-16 33.7 33.7 0 0 1 24 9.931 33.7 33.7 0 0 1 24-9.931 8 8 0 0 1 0 16 17.792 17.792 0 0 0 -16 9.888l-.845 1.691a8 8 0 0 1 -7.155 4.421z" fill="#428dc5"/><path d="m440 112a8 8 0 0 1 -7.155-4.421l-.845-1.689a17.79 17.79 0 0 0 -16-9.89 8 8 0 0 1 0-16 33.7 33.7 0 0 1 24 9.931 33.7 33.7 0 0 1 24-9.931 8 8 0 0 1 0 16 17.792 17.792 0 0 0 -16 9.888l-.845 1.691a8 8 0 0 1 -7.155 4.421z" fill="#428dc5"/><path d="m368 80a8 8 0 0 1 -7.155-4.421l-.845-1.689a17.79 17.79 0 0 0 -16-9.89 8 8 0 0 1 0-16 33.7 33.7 0 0 1 24 9.931 33.7 33.7 0 0 1 24-9.931 8 8 0 0 1 0 16 17.792 17.792 0 0 0 -16 9.888l-.845 1.691a8 8 0 0 1 -7.155 4.421z" fill="#428dc5"/><path d="m328.19 139.409a8 8 0 0 1 -6.914-12.013l20.056-34.609a8 8 0 0 1 13.844 8.022l-20.056 34.609a8 8 0 0 1 -6.93 3.991z" fill="#fbedbf"/><path d="m184.206 139.179a8 8 0 0 1 -6.942-4.012l-19.945-34.673a8 8 0 1 1 13.869-7.977l19.945 34.672a8 8 0 0 1 -6.927 11.99z" fill="#fbedbf"/><path d="m112 263.771h-.013l-40-.064a8 8 0 0 1 .013-16h.013l40 .064a8 8 0 0 1 -.013 16z" fill="#fbedbf"/><path d="m256 120a8 8 0 0 1 -8-8v-72a8 8 0 0 1 16 0v72a8 8 0 0 1 -8 8z" fill="#fbedbf"/><path d="m24 304h472v192h-472z" fill="#4799cf"/><path d="m357.222 304a112.046 112.046 0 0 1 -202.444 0z" fill="#6cbae5"/><path d="m224 344h-48a8 8 0 0 1 0-16h48a8 8 0 0 1 0 16z" fill="#c0f5f9"/><path d="m272 344h-16a8 8 0 0 1 0-16h16a8 8 0 0 1 0 16z" fill="#c0f5f9"/><path d="m336 344h-32a8 8 0 0 1 0-16h32a8 8 0 0 1 0 16z" fill="#c0f5f9"/><path d="m248 376h-40a8 8 0 0 1 0-16h40a8 8 0 0 1 0 16z" fill="#c0f5f9"/><path d="m304 376h-24a8 8 0 0 1 0-16h24a8 8 0 0 1 0 16z" fill="#c0f5f9"/><path d="m272 408h-32a8 8 0 0 1 0-16h32a8 8 0 0 1 0 16z" fill="#c0f5f9"/><g fill="#3775a4"><path d="m120 400a8 8 0 0 1 -8 8h-88v-16h88a8 8 0 0 1 8 8z"/><path d="m88 432a8 8 0 0 1 -8 8h-56v-16h56a8 8 0 0 1 8 8z"/><path d="m80 368a8 8 0 0 1 -8 8h-48v-16h48a8 8 0 0 1 8 8z"/><path d="m152 464a8 8 0 0 1 -8 8h-120v-16h120a8 8 0 0 1 8 8z"/><path d="m56 336a8 8 0 0 1 -8 8h-24v-16h24a8 8 0 0 1 8 8z"/><path d="m496 392v16h-88a8 8 0 0 1 0-16z"/><path d="m496 424v16h-56a8 8 0 0 1 0-16z"/><path d="m496 360v16h-48a8 8 0 0 1 0-16z"/><path d="m496 456v16h-120a8 8 0 0 1 0-16z"/><path d="m496 328v16h-24a8 8 0 0 1 0-16z"/><path d="m344 472h-16a8 8 0 0 1 0-16h16a8 8 0 0 1 0 16z"/><path d="m128 440h-16a8 8 0 0 1 0-16h16a8 8 0 0 1 0 16z"/><path d="m408 440h-16a8 8 0 0 1 0-16h16a8 8 0 0 1 0 16z"/><path d="m192 472h-16a8 8 0 0 1 0-16h16a8 8 0 0 1 0 16z"/><path d="m440 344h-16a8 8 0 0 1 0-16h16a8 8 0 0 1 0 16z"/><path d="m96 344h-16a8 8 0 0 1 0-16h16a8 8 0 0 1 0 16z"/></g></g></svg>