<svg height="512" viewBox="0 0 512 512" width="512" xmlns="http://www.w3.org/2000/svg"><g id="flat"><path d="m410.81 246.51c-.46 1.86-.95 3.72-1.48 5.55a40 40 0 0 1 -38.56 66.69c-.36.38-.73.76-1.11 1.13-.95.97-1.93 1.94-2.91 2.89a40 40 0 0 1 -66.69 38.56c-1.83.53-3.69 1.02-5.55 1.48-.05.19-.11.39-.17.58a40.011 40.011 0 0 1 -38.34 28.61c-1.35 0-2.69-.07-4-.2a40.016 40.016 0 0 1 -34.51-28.99c-1.86-.46-3.72-.95-5.55-1.48-.74.72-1.5 1.41-2.28 2.06a40 40 0 0 1 -64.41-40.62q-2.04-1.98-4.02-4.02a38.831 38.831 0 0 1 -6.89 1.13 40 40 0 0 1 -31.67-67.82c-.53-1.83-1.02-3.69-1.48-5.55a40 40 0 0 1 0-77.02c.46-1.86.95-3.72 1.48-5.55a40 40 0 0 1 31.67-67.82 38.831 38.831 0 0 1 6.89 1.13q1.98-2.04 4.02-4.02a40 40 0 0 1 64.41-40.62c.78.65 1.54 1.34 2.28 2.06 1.83-.53 3.69-1.02 5.55-1.48a40.016 40.016 0 0 1 34.51-28.99c1.31-.13 2.65-.2 4-.2a40.011 40.011 0 0 1 38.34 28.61c.06.19.12.39.17.58 1.86.46 3.72.95 5.55 1.48a40 40 0 0 1 66.69 38.56c.98.95 1.96 1.92 2.91 2.89.38.37.75.75 1.11 1.13a40 40 0 0 1 38.56 66.69c.53 1.83 1.02 3.69 1.48 5.55a40 40 0 0 1 0 77.02z" fill="#94a85d"/><path d="m402.81 246.51c-.46 1.86-.95 3.72-1.48 5.55a40 40 0 0 1 -31.67 67.82 38.831 38.831 0 0 1 -6.89-1.13c-1.31 1.36-2.66 2.7-4.02 4.02a40 40 0 0 1 -64.41 40.62c-.78-.65-1.54-1.34-2.28-2.06-1.83.53-3.69 1.02-5.55 1.48a40.016 40.016 0 0 1 -34.51 28.99c-1.31.13-2.65.2-4 .2a40.011 40.011 0 0 1 -38.34-28.61c-.06-.19-.12-.39-.17-.58-1.86-.46-3.72-.95-5.55-1.48a40.058 40.058 0 0 1 -24.01 11.18 40.026 40.026 0 0 1 -34.68-49.74q-2.04-1.98-4.02-4.02a38.831 38.831 0 0 1 -6.89 1.13c-.37-.37-.74-.75-1.11-1.13a39.98 39.98 0 0 1 -5.89 1.05 39.994 39.994 0 0 1 -24.67-67.74c-.53-1.83-1.02-3.69-1.48-5.55a40 40 0 0 1 0-77.02c.46-1.86.95-3.72 1.48-5.55a39.994 39.994 0 0 1 24.67-67.74 39.98 39.98 0 0 1 5.89 1.05c.37-.38.74-.76 1.11-1.13a38.831 38.831 0 0 1 6.89 1.13q1.98-2.04 4.02-4.02a40.026 40.026 0 0 1 34.68-49.74 40.058 40.058 0 0 1 24.01 11.18c1.83-.53 3.69-1.02 5.55-1.48.05-.19.11-.39.17-.58a40.011 40.011 0 0 1 38.34-28.61c1.35 0 2.69.07 4 .2a40.016 40.016 0 0 1 34.51 28.99c1.86.46 3.72.95 5.55 1.48.74-.72 1.5-1.41 2.28-2.06a40 40 0 0 1 64.41 40.62c1.36 1.32 2.71 2.66 4.02 4.02a38.831 38.831 0 0 1 6.89-1.13 40 40 0 0 1 31.67 67.82c.53 1.83 1.02 3.69 1.48 5.55a40 40 0 0 1 0 77.02z" fill="#aac16b"/><path d="m320 192-7.81 27.32a246.317 246.317 0 0 1 -22.99 54.58l-7 12.25a69.116 69.116 0 0 0 -8.99 38.38l6.79 115.47h-48l6.79-115.47a69.116 69.116 0 0 0 -8.99-38.38l-7-12.25a246.317 246.317 0 0 1 -22.99-54.58l-7.81-27.32h24l3.35 10.05a246.506 246.506 0 0 0 32.65 64.46q1.965 2.775 4 5.49a246.315 246.315 0 0 0 36.65-69.95l3.35-10.05z" fill="#da922a"/><path d="m312 192-7.81 27.32a246.317 246.317 0 0 1 -22.99 54.58l-7 12.25a69.116 69.116 0 0 0 -8.99 38.38l6.79 115.47h-40l6.79-115.47a69.116 69.116 0 0 0 -8.99-38.38l-7-12.25a246.317 246.317 0 0 1 -22.99-54.58l-7.81-27.32h16l3.35 10.05a246.521 246.521 0 0 0 36.65 69.95q2.04-2.715 4-5.49a246.384 246.384 0 0 0 32.65-64.46l3.35-10.05z" fill="#c38325"/><g fill="#94a85d"><path d="m256.006 120a8 8 0 0 1 -7.161-4.424l-2.945-5.876a23.668 23.668 0 0 1 4.439-27.354 8 8 0 1 1 11.314 11.314 7.686 7.686 0 0 0 -1.442 8.884l2.94 5.881a8 8 0 0 1 -7.145 11.575z"/><path d="m168.006 144a8 8 0 0 1 -7.161-4.424l-2.945-5.876a23.668 23.668 0 0 1 4.439-27.354 8 8 0 0 1 11.314 11.314 7.686 7.686 0 0 0 -1.442 8.884l2.94 5.881a8 8 0 0 1 -7.145 11.575z"/><path d="m336.006 136a8 8 0 0 1 -7.161-4.424l-2.945-5.876a23.668 23.668 0 0 1 4.439-27.354 8 8 0 0 1 11.314 11.314 7.686 7.686 0 0 0 -1.442 8.884l2.94 5.881a8 8 0 0 1 -7.145 11.575z"/><path d="m360.006 224a8 8 0 0 1 -7.161-4.424l-2.945-5.876a23.668 23.668 0 0 1 4.439-27.354 8 8 0 0 1 11.314 11.314 7.686 7.686 0 0 0 -1.442 8.884l2.94 5.881a8 8 0 0 1 -7.145 11.575z"/><path d="m328.006 296a8 8 0 0 1 -7.161-4.424l-2.945-5.876a23.668 23.668 0 0 1 4.439-27.354 8 8 0 0 1 11.314 11.314 7.686 7.686 0 0 0 -1.442 8.884l2.94 5.881a8 8 0 0 1 -7.145 11.575z"/><path d="m152.006 240a8 8 0 0 1 -7.161-4.424l-2.945-5.876a23.668 23.668 0 0 1 4.439-27.354 8 8 0 0 1 11.314 11.314 7.686 7.686 0 0 0 -1.442 8.884l2.94 5.881a8 8 0 0 1 -7.145 11.575z"/><path d="m192.006 312a8 8 0 0 1 -7.161-4.424l-2.945-5.876a23.668 23.668 0 0 1 4.439-27.354 8 8 0 1 1 11.314 11.314 7.686 7.686 0 0 0 -1.442 8.884l2.94 5.881a8 8 0 0 1 -7.145 11.575z"/></g><path d="m104 208h20.454a16.018 16.018 0 0 1 15.2 10.954l4.346 13.046h-15.427a16.019 16.019 0 0 1 -13.329-7.134z" fill="#6b9777"/><path d="m208 88h20.454a16.018 16.018 0 0 1 15.2 10.954l4.346 13.046h-15.427a16.019 16.019 0 0 1 -13.329-7.134z" fill="#6b9777"/><path d="m288 104h20.454a16.018 16.018 0 0 1 15.2 10.954l4.346 13.046h-15.427a16.019 16.019 0 0 1 -13.329-7.134z" fill="#6b9777"/><circle cx="256" cy="128" fill="#fd9226" r="18"/><circle cx="168" cy="152" fill="#f55648" r="18"/><circle cx="336" cy="144" fill="#f55648" r="18"/><circle cx="360" cy="232" fill="#fd9226" r="18"/><circle cx="328" cy="304" fill="#f55648" r="18"/><circle cx="152" cy="248" fill="#f55648" r="18"/><circle cx="192" cy="320" fill="#fd9226" r="18"/><path d="m24 440h464v48h-464z" fill="#5e8569"/><path d="m24 439.105h464v8h-464z" fill="#55785f"/><path d="m377.035 416.141a8 8 0 0 1 -7.832-6.414l-1.3-6.445a23.668 23.668 0 0 1 11.423-25.249 8 8 0 0 1 7.969 13.873 7.689 7.689 0 0 0 -3.71 8.2l1.305 6.444a8.013 8.013 0 0 1 -7.85 9.59z" fill="#94a85d"/><path d="m100.162 416.552a8 8 0 0 1 -7.832-6.414l-1.3-6.444a23.668 23.668 0 0 1 11.423-25.249 8 8 0 0 1 7.969 13.873 7.693 7.693 0 0 0 -3.71 8.2l1.305 6.441a8 8 0 0 1 -6.253 9.429 8.086 8.086 0 0 1 -1.602.164z" fill="#94a85d"/><path d="m56 384h20.454a16.018 16.018 0 0 1 15.2 10.954l4.346 13.046h-15.427a16.019 16.019 0 0 1 -13.329-7.134z" fill="#6b9777"/><circle cx="372.869" cy="423.584" fill="#fd9226" r="18"/><circle cx="95.996" cy="423.996" fill="#f55648" r="18"/></g></svg>