<svg height="512" viewBox="0 0 512 512" width="512" xmlns="http://www.w3.org/2000/svg"><g id="flat"><path d="m219.692 292.849a39.874 39.874 0 0 0 12.308-28.849 40 40 0 0 0 -35.189-39.7 31.923 31.923 0 0 0 11.189-24.3 31.98 31.98 0 0 0 -16.186-27.815 40 40 0 0 0 -79.628 0 31.98 31.98 0 0 0 -16.186 27.815 31.923 31.923 0 0 0 11.189 24.3 40 40 0 0 0 -35.189 39.7 39.874 39.874 0 0 0 12.308 28.849 55.885 55.885 0 0 0 -20.308 43.151 56 56 0 0 0 56 56h64a56 56 0 0 0 56-56 55.885 55.885 0 0 0 -20.308-43.151z" fill="#da922a"/><path d="m427.692 268.849a39.874 39.874 0 0 0 12.308-28.849 40 40 0 0 0 -35.189-39.7 31.923 31.923 0 0 0 11.189-24.3 31.98 31.98 0 0 0 -16.186-27.815 40 40 0 0 0 -79.628 0 31.98 31.98 0 0 0 -16.186 27.815 31.923 31.923 0 0 0 11.189 24.3 40 40 0 0 0 -35.189 39.7 39.874 39.874 0 0 0 12.308 28.849 55.885 55.885 0 0 0 -20.308 43.151 56 56 0 0 0 56 56h64a56 56 0 0 0 56-56 55.885 55.885 0 0 0 -20.308-43.151z" fill="#55785f"/><path d="m178.343 314.343-18.343 18.343v-156.686a8 8 0 0 0 -16 0v89.87l-27.884-16.73a8 8 0 1 0 -8.232 13.72l36.116 21.67v155.47a8 8 0 0 0 16 0v-84.686l29.657-29.657a8 8 0 1 0 -11.314-11.314z" fill="#70400e"/><path d="m397.657 290.343a8 8 0 0 0 -11.314 0l-18.343 18.343v-156.686a8 8 0 0 0 -16 0v89.87l-27.884-16.73a8 8 0 0 0 -8.232 13.72l36.116 21.67v179.47a8 8 0 0 0 16 0v-108.686l29.657-29.657a8 8 0 0 0 0-11.314z" fill="#70400e"/><path d="m235.941 149.177 7.626-17.959a14 14 0 0 1 12.982-8.527l19.51.132-7.626 17.959a14 14 0 0 1 -12.982 8.527z" fill="#da922a"/><path d="m439.882 162.487 7.626-17.959a14 14 0 0 1 12.981-8.528l19.511.133-7.626 17.959a14 14 0 0 1 -12.982 8.527z" fill="#85bc94"/><path d="m248 410.487 7.626-17.959a14 14 0 0 1 12.982-8.528l19.51.133-7.626 17.959a14 14 0 0 1 -12.981 8.527z" fill="#da922a"/><path d="m64 98.487 7.626-17.959a14 14 0 0 1 12.982-8.528l19.51.133-7.626 17.959a14 14 0 0 1 -12.981 8.527z" fill="#da922a"/><path d="m431.882 407.867 7.626-17.959a14 14 0 0 1 12.981-8.527l19.511.132-7.626 17.959a14 14 0 0 1 -12.982 8.528z" fill="#55785f"/><path d="m23.882 218.487 7.626-17.959a14 14 0 0 1 12.981-8.528l19.511.133-7.626 17.959a14 14 0 0 1 -12.982 8.527z" fill="#85bc94"/><path d="m470.7 40.2a24 24 0 0 0 -45.4 0 19.989 19.989 0 0 0 -17.3 19.8 20 20 0 0 0 20 20h40a20 20 0 0 0 20-20 19.989 19.989 0 0 0 -17.3-19.8z" fill="#b8eaee"/><path d="m206.7 64.2a24 24 0 0 0 -45.4 0 19.989 19.989 0 0 0 -17.3 19.8 20 20 0 0 0 20 20h40a20 20 0 0 0 20-20 19.989 19.989 0 0 0 -17.3-19.8z" fill="#c0f5f9"/><path d="m24 440h464v48h-464z" fill="#aac16b"/></g></svg>