<svg height="512" viewBox="0 0 512 512" width="512" xmlns="http://www.w3.org/2000/svg"><g id="flat"><path d="m408 96a8 8 0 0 1 -8-8v-24a8 8 0 0 1 16 0v24a8 8 0 0 1 -8 8z" fill="#8f563b"/><path d="m440 96a8 8 0 0 1 -8-8v-24a8 8 0 0 1 16 0v24a8 8 0 0 1 -8 8z" fill="#8f563b"/><path d="m472 96a8 8 0 0 1 -8-8v-24a8 8 0 0 1 16 0v24a8 8 0 0 1 -8 8z" fill="#8f563b"/><rect fill="#85bc94" height="40" rx="16" width="32" x="392" y="24"/><rect fill="#85bc94" height="40" rx="16" width="32" x="424" y="24"/><rect fill="#85bc94" height="40" rx="16" width="32" x="456" y="24"/><path d="m376 88h112v160h-112z" fill="#8d7761"/><path d="m456 88v48l-16 32-16-16v-64z" fill="#9a826a"/><path d="m456 248v-72l-32-24v-64h-48v160z" fill="#a88e74"/><path d="m48 96a8 8 0 0 1 -8-8v-24a8 8 0 0 1 16 0v24a8 8 0 0 1 -8 8z" fill="#8f563b"/><path d="m80 96a8 8 0 0 1 -8-8v-24a8 8 0 0 1 16 0v24a8 8 0 0 1 -8 8z" fill="#8f563b"/><path d="m112 96a8 8 0 0 1 -8-8v-24a8 8 0 0 1 16 0v24a8 8 0 0 1 -8 8z" fill="#8f563b"/><path d="m144 96a8 8 0 0 1 -8-8v-24a8 8 0 0 1 16 0v24a8 8 0 0 1 -8 8z" fill="#8f563b"/><rect fill="#85bc94" height="40" rx="16" width="32" x="32" y="24"/><rect fill="#85bc94" height="40" rx="16" width="32" x="64" y="24"/><rect fill="#85bc94" height="40" rx="16" width="32" x="96" y="24"/><rect fill="#85bc94" height="40" rx="16" width="32" x="128" y="24"/><path d="m24 88h160v160h-160z" fill="#9a826a"/><path d="m96 248v-80l-24-8v-32l-48-8v128z" fill="#8d7761"/><path d="m128 88v40l-32 40v80h88v-160z" fill="#a88e74"/><path d="m201 56h158a17 17 0 0 1 17 17v175h-192v-175a17 17 0 0 1 17-17z" fill="#c0f5f9"/><path d="m216 152a8 8 0 0 1 -8-8v-56a8 8 0 0 1 16 0v56a8 8 0 0 1 -8 8z" fill="#aedee2"/><path d="m240 88a8 8 0 0 1 -8-8v-24a8 8 0 0 1 16 0v24a8 8 0 0 1 -8 8z" fill="#aedee2"/><path d="m280 256a8 8 0 0 1 -8-8v-112a8 8 0 0 1 16 0v112a8 8 0 0 1 -8 8z" fill="#aedee2"/><path d="m280 112a8 8 0 0 1 -8-8v-48a8 8 0 0 1 16 0v48a8 8 0 0 1 -8 8z" fill="#aedee2"/><path d="m312 104a8 8 0 0 1 -8-8v-40a8 8 0 0 1 16 0v40a8 8 0 0 1 -8 8z" fill="#aedee2"/><path d="m312 136a8 8 0 0 1 -8-8v-8a8 8 0 0 1 16 0v8a8 8 0 0 1 -8 8z" fill="#aedee2"/><path d="m312 208a8 8 0 0 1 -8-8v-48a8 8 0 0 1 16 0v48a8 8 0 0 1 -8 8z" fill="#aedee2"/><path d="m344 152a8 8 0 0 1 -8-8v-48a8 8 0 0 1 16 0v48a8 8 0 0 1 -8 8z" fill="#aedee2"/><path d="m400 208a8 8 0 0 1 -5.657-13.657l8-8a8 8 0 0 1 11.314 11.314l-8 8a7.974 7.974 0 0 1 -5.657 2.343z" fill="#c0f5f9"/><path d="m424 232h-16a8 8 0 0 1 0-16h16a8 8 0 0 1 0 16z" fill="#c0f5f9"/><path d="m152.006 192a8 8 0 0 1 -7.161-4.424l-8-16a8 8 0 0 1 14.31-7.156l8 16a8 8 0 0 1 -7.149 11.58z" fill="#c0f5f9"/><path d="m135.994 224a7.973 7.973 0 0 1 -3.572-.847l-16-8a8 8 0 1 1 7.156-14.31l16 8a8 8 0 0 1 -3.584 15.157z" fill="#c0f5f9"/><path d="m376 248h-64v-40a32 32 0 0 1 32-32 32 32 0 0 1 32 32z" fill="#b8eaee"/><path d="m344 256a8 8 0 0 1 -8-8v-32a8 8 0 0 1 16 0v32a8 8 0 0 1 -8 8z" fill="#aedee2"/><path d="m220 136a36 36 0 0 1 36 36v76a0 0 0 0 1 0 0h-72a0 0 0 0 1 0 0v-76a36 36 0 0 1 36-36z" fill="#b8eaee"/><path d="m216 224a8 8 0 0 1 -8-8v-48a8 8 0 0 1 16 0v48a8 8 0 0 1 -8 8z" fill="#aedee2"/><path d="m256 248h-96v-21.965a18.036 18.036 0 0 1 18.035-18.035h59.93a18.036 18.036 0 0 1 18.035 18.035z" fill="#c0f5f9"/><path d="m224 256a8 8 0 0 1 -8-8v-16a8 8 0 0 1 16 0v16a8 8 0 0 1 -8 8z" fill="#aedee2"/><path d="m192 256a8 8 0 0 1 -8-8v-16a8 8 0 0 1 16 0v16a8 8 0 0 1 -8 8z" fill="#aedee2"/><path d="m24 248h464v240h-464z" fill="#b3e4e8"/><g fill="#8aced8"><path d="m168 336h-56a8 8 0 0 1 0-16h56a8 8 0 0 1 0 16z"/><path d="m128 360h-40a8 8 0 0 1 0-16h40a8 8 0 0 1 0 16z"/><path d="m336 408h-40a8 8 0 0 1 0-16h40a8 8 0 0 1 0 16z"/><path d="m336 368h-32a8 8 0 0 1 0-16h32a8 8 0 0 1 0 16z"/><path d="m312 312h-24a8 8 0 0 1 0-16h24a8 8 0 0 1 0 16z"/><path d="m384 288h-40a8 8 0 0 1 0-16h40a8 8 0 0 1 0 16z"/><path d="m208 288h-56a8 8 0 0 1 0-16h56a8 8 0 0 1 0 16z"/><path d="m120 288h-16a8 8 0 0 1 0-16h16a8 8 0 0 1 0 16z"/><path d="m272 368h-56a8 8 0 0 1 0-16h56a8 8 0 0 1 0 16z"/><path d="m280 440h-48a8 8 0 0 1 0-16h48a8 8 0 0 1 0 16z"/><path d="m336 440h-16a8 8 0 0 1 0-16h16a8 8 0 0 1 0 16z"/><path d="m296 472h-16a8 8 0 0 1 0-16h16a8 8 0 0 1 0 16z"/><path d="m248 400h-40a8 8 0 0 1 0-16h40a8 8 0 0 1 0 16z"/><path d="m128 424h-48a8 8 0 0 1 0-16h48a8 8 0 0 1 0 16z"/><path d="m56 416a8 8 0 0 1 -8 8h-24v-16h24a8 8 0 0 1 8 8z"/><path d="m488 440v16h-96a8 8 0 0 1 0-16z"/><path d="m120 464a8 8 0 0 1 -8 8h-88v-16h88a8 8 0 0 1 8 8z"/><path d="m184 472h-16a8 8 0 0 1 0-16h16a8 8 0 0 1 0 16z"/></g><path d="m120 312-8 40h-32l-16 2.29-40 5.71v-64l32 8 32-8z" fill="#a88e74"/><path d="m64 320v34.29l-40 5.71v-64l32 8z" fill="#8d7761"/><path d="m488 280h-56l-32 32-48 8-24 40 8 40h112 40z" fill="#8d7761"/><path d="m360 320 32 24v56h-56l-8-40 24-40z" fill="#a88e74"/><path d="m424 400v-24l16-16v-24l48-32v96z" fill="#a88e74"/><path d="m288 320h-64v-16l16-8 24-16 24 16z" fill="#8d7761"/><path d="m232 440v-24l-16-8-24-32h-32l-8 24-24 16v24z" fill="#a88e74"/></g></svg>