<svg height="512" viewBox="0 0 512 512" width="512" xmlns="http://www.w3.org/2000/svg"><g id="flat"><path d="m24 176h264v-24h200v336h-464z" fill="#744630"/><path d="m288 352h-72v-175.947a24.053 24.053 0 0 1 24.053-24.053h47.947z" fill="#a8d6da"/><path d="m256 360a8 8 0 0 1 -8-8v-40a8 8 0 0 1 16 0v40a8 8 0 0 1 -8 8z" fill="#8aced8"/><path d="m264 288a8 8 0 0 1 -8-8v-32a8 8 0 0 1 16 0v32a8 8 0 0 1 -8 8z" fill="#8aced8"/><path d="m240 216a8 8 0 0 1 -8-8v-32a8 8 0 0 1 16 0v32a8 8 0 0 1 -8 8z" fill="#8aced8"/><path d="m240 256a8 8 0 0 1 -8-8v-16a8 8 0 0 1 16 0v16a8 8 0 0 1 -8 8z" fill="#8aced8"/><path d="m240 296a8 8 0 0 1 -8-8v-16a8 8 0 0 1 16 0v16a8 8 0 0 1 -8 8z" fill="#8aced8"/><path d="m264 224a8 8 0 0 1 -8-8v-16a8 8 0 0 1 16 0v16a8 8 0 0 1 -8 8z" fill="#8aced8"/><path d="m488 352v136h-464v-9.34l.02-126.66z" fill="#4799cf"/><path d="m67.818 296-26.407 19.415a42.708 42.708 0 0 0 -17.4 33.256 42.709 42.709 0 0 0 14.349 33.1l23.429 20.788 26.411-19.411a42.712 42.712 0 0 0 17.4-33.255 42.713 42.713 0 0 0 -14.349-33.1z" fill="#ffb1b5"/><path d="m58.227 461.781c-.165 0-.329 0-.495-.015a8 8 0 0 1 -7.5-8.471l9.6-157.781a8 8 0 0 1 15.971.972l-9.603 157.781a8 8 0 0 1 -7.973 7.514z" fill="#55785f"/><path d="m448 424h-32a8 8 0 0 1 0-16h32a8 8 0 0 1 0 16z" fill="#6cbae5"/><path d="m320 432h-48a8 8 0 0 1 0-16h48a8 8 0 0 1 0 16z" fill="#6cbae5"/><path d="m304 464h-32a8 8 0 0 1 0-16h32a8 8 0 0 1 0 16z" fill="#6cbae5"/><path d="m240 464h-24a8 8 0 0 1 0-16h24a8 8 0 0 1 0 16z" fill="#6cbae5"/><path d="m232 416h-24a8 8 0 0 1 0-16h24a8 8 0 0 1 0 16z" fill="#6cbae5"/><path d="m336 392h-24a8 8 0 0 1 0-16h24a8 8 0 0 1 0 16z" fill="#6cbae5"/><path d="m229.859 352c2.719 0 2.141-5.086 2.141-8a15.984 15.984 0 0 0 -24.631-13.459 24 24 0 1 0 -41.258 21.459z" fill="#b8eaee"/><path d="m282.141 352c-2.719 0-2.141-5.086-2.141-8a15.984 15.984 0 0 1 24.631-13.459 24 24 0 1 1 41.258 21.459z" fill="#b8eaee"/><path d="m280 384h-24a8 8 0 0 1 0-16h24a8 8 0 0 1 0 16z" fill="#6cbae5"/><path d="m488 64v88h-144v-28a19.994 19.994 0 0 1 20-20h28v-24a16 16 0 0 1 16-16z" fill="#985713"/><path d="m424 104a8 8 0 0 1 -8 8h-32a8 8 0 0 1 -8-8h16v-8h24a8 8 0 0 1 8 8z" fill="#70400e"/><g fill="#533222"><path d="m338.761 206.612h-16a8 8 0 0 1 0-16h16a8 8 0 0 1 0 16z"/><path d="m384 248h-16a8 8 0 0 1 0-16h16a8 8 0 0 1 0 16z"/><path d="m432 288h-16a8 8 0 0 1 0-16h16a8 8 0 0 1 0 16z"/><path d="m352 288h-16a8 8 0 0 1 0-16h16a8 8 0 0 1 0 16z"/><path d="m160 216h-16a8 8 0 0 1 0-16h16a8 8 0 0 1 0 16z"/><path d="m88 240h-16a8 8 0 0 1 0-16h16a8 8 0 0 1 0 16z"/><path d="m144 264h-16a8 8 0 0 1 0-16h16a8 8 0 0 1 0 16z"/><path d="m128 304h-16a8 8 0 0 1 0-16h16a8 8 0 0 1 0 16z"/><path d="m440 200h-16a8 8 0 0 1 0-16h16a8 8 0 0 1 0 16z"/></g><path d="m488 96v16h-24a8 8 0 0 1 0-16z" fill="#70400e"/><path d="m112 72a8 8 0 0 1 -7.155-4.421l-.845-1.689a17.79 17.79 0 0 0 -16-9.89 8 8 0 0 1 0-16 33.7 33.7 0 0 1 24 9.931 33.7 33.7 0 0 1 24-9.931 8 8 0 0 1 0 16 17.792 17.792 0 0 0 -16 9.888l-.845 1.691a8 8 0 0 1 -7.155 4.421z" fill="#4799cf"/><path d="m160 112a8 8 0 0 1 -7.155-4.421l-.845-1.689a17.79 17.79 0 0 0 -16-9.89 8 8 0 0 1 0-16 33.7 33.7 0 0 1 24 9.931 33.7 33.7 0 0 1 24-9.931 8 8 0 0 1 0 16 17.792 17.792 0 0 0 -16 9.888l-.845 1.691a8 8 0 0 1 -7.155 4.421z" fill="#4799cf"/><path d="m192 48a8 8 0 0 1 -7.155-4.421l-.845-1.689a17.79 17.79 0 0 0 -16-9.89 8 8 0 0 1 0-16 33.7 33.7 0 0 1 24 9.931 33.7 33.7 0 0 1 24-9.931 8 8 0 0 1 0 16 17.792 17.792 0 0 0 -16 9.888l-.845 1.691a8 8 0 0 1 -7.155 4.421z" fill="#4799cf"/><path d="m312 40a16 16 0 0 0 -32 0 16 16 0 0 0 -16 16 16 16 0 0 0 16 16h32a16 16 0 0 0 16-16 16 16 0 0 0 -16-16z" fill="#a8d6da"/><path d="m88 112a16 16 0 0 0 -32 0 16 16 0 0 0 -16 16 16 16 0 0 0 16 16h32a16 16 0 0 0 16-16 16 16 0 0 0 -16-16z" fill="#a8d6da"/><rect fill="#8f563b" height="24" rx="12" width="48" x="232" y="400"/><path d="m163.87 488-3.294-20.3a28.911 28.911 0 0 0 -22.06-23.544l-26.516-6.091 7.1 26.265a28.913 28.913 0 0 0 24.366 21.15z" fill="#aac16b"/><path d="m164.129 488 3.293-20.3a28.912 28.912 0 0 1 22.06-23.544l26.516-6.1-7.1 26.265a28.913 28.913 0 0 1 -24.365 21.15z" fill="#aac16b"/><path d="m412.13 488 3.294-20.3a28.911 28.911 0 0 1 22.06-23.544l26.516-6.1-7.1 26.265a28.913 28.913 0 0 1 -24.366 21.15z" fill="#55785f"/><path d="m411.871 488-3.293-20.3a28.912 28.912 0 0 0 -22.06-23.544l-26.518-6.091 7.1 26.265a28.913 28.913 0 0 0 24.365 21.15z" fill="#55785f"/><path d="m404.906 400.659-7.492-19.146a28.911 28.911 0 0 1 7.008-31.494l19.724-18.742 7.254 26.223a28.914 28.914 0 0 1 -10.212 30.606z" fill="#55785f"/><path d="m404.683 400.791-13.163-15.791a28.909 28.909 0 0 0 -30.971-9.042l-25.928 8.242 19.477 19a28.91 28.91 0 0 0 31.737 5.807z" fill="#55785f"/><path d="m424 452.82v35.18h-16v-35.18a125.965 125.965 0 0 0 -50.61-100.82c-.67-.5-1.35-1-2.04-1.49a8 8 0 1 1 9.3-13.02 141.865 141.865 0 0 1 59.35 115.33z" fill="#6b9777"/><path d="m184 389.42-5.57 12.07c-.16.36-.33.71-.5 1.06a108.29 108.29 0 0 1 -42.07 46.38l-39.4 23.65a108.185 108.185 0 0 1 -57.09 15.4q-4.11-.03-8.23-.41l-5.53-.5a106.921 106.921 0 0 1 4.11-11.93 108.063 108.063 0 0 1 44.42-51.73l32.7-19.62a108.225 108.225 0 0 1 61.85-15.25l1.36.08z" fill="#6b9777"/><path d="m184 389.42-5.57 12.07c-.16.36-.33.71-.5 1.06l-138.56 85.43-.03.02h-15.34v-9.34l5.72-3.52 140.33-86.52z" fill="#55785f"/></g></svg>