<svg height="512" viewBox="0 0 512 512" width="512" xmlns="http://www.w3.org/2000/svg"><g id="flat"><path d="m488 408h-9.3a182.858 182.858 0 0 0 -123 47.555l-35.7 32.445h168z" fill="#d18d28"/><path d="m488 448h-7.845a96.944 96.944 0 0 0 -68.549 28.394l-11.606 11.606h88z" fill="#ea9d2d"/><path d="m248 208h16a48 48 0 0 1 48 48 0 0 0 0 1 0 0h-112a0 0 0 0 1 0 0 48 48 0 0 1 48-48z" fill="#c38325"/><path d="m200 256h112v136h-112z" fill="#fbb540"/><path d="m372.4 306.79-13.33 19.95-8.89 13.31-13.33 19.95-19.96-13.33v-.01l-13.3-8.88-13.31-8.9-13.3-8.88v-.01l-19.95-13.33 13.33-19.95 8.89-13.31 13.33-19.95 19.96 13.34 13.3 8.88 13.31 8.9 13.3 8.89z" fill="#4799cf"/><path d="m231.55 265.59-13.33 19.95-8.89 13.31-8.89 13.3-8.89 13.3-13.33 19.96-19.96-13.33-13.3-8.9-19.96-13.33 13.34-19.96 8.89-13.3 8.89-13.3 8.89-13.31 13.33-19.95 19.96 13.34 13.3 8.88v.01z" fill="#4799cf"/><path d="m387 148.16-13.33 19.95-8.9 13.31-8.89 13.3-8.88 13.3-13.34 19.96-19.96-13.34-13.3-8.89-19.95-13.33 13.33-19.96 8.89-13.3 17.78-26.6 13.33-19.96 19.96 13.33 13.3 8.89z" fill="#4799cf"/><path d="m254.97 151.34-13.33 19.96-8.89 13.3-13.33 19.96-19.96-13.34-13.3-8.89-13.31-8.89-13.3-8.89-19.95-13.33 13.33-19.95 8.89-13.31 13.33-19.95 19.96 13.33 13.3 8.89 13.31 8.89 13.3 8.89z" fill="#4799cf"/><path d="m359.07 326.74-8.89 13.31-19.96-13.34-13.33 19.95-13.3-8.88 13.33-19.96-13.3-8.89-13.34 19.95-13.3-8.88v-.01l13.33-19.95-19.95-13.33 8.89-13.31 19.95 13.34 13.34-19.95 13.3 8.88-13.33 19.96 13.3 8.89 13.34-19.95 13.3 8.89-13.34 19.95z" fill="#3775a4"/><path d="m241.64 171.3-8.89 13.3-19.95-13.33-13.34 19.95-13.3-8.89 13.33-19.95-13.3-8.89-13.34 19.95-13.3-8.89 13.34-19.95-19.96-13.33 8.89-13.31 19.96 13.34 13.33-19.96 13.3 8.89-13.33 19.96 13.3 8.88 13.34-19.95 13.3 8.89-13.33 19.95z" fill="#3775a4"/><path d="m189.38 285.51-8.89 13.3 19.95 13.34-8.89 13.3-19.95-13.33-13.34 19.96-13.3-8.9 13.33-19.95-19.95-13.34 8.89-13.3 19.95 13.33 8.89-13.3-19.95-13.33 8.89-13.31 19.95 13.34 13.34-19.95 13.3 8.88v.01l-13.33 19.95 19.95 13.33-8.89 13.31z" fill="#3775a4"/><path d="m344.82 168.08-8.89 13.31 19.95 13.33-8.88 13.3h-.01l-19.95-13.33-13.34 19.95-13.3-8.89 13.34-19.95-19.96-13.34 8.89-13.3 19.95 13.34 8.89-13.31-19.95-13.33 8.89-13.3 19.95 13.33 13.34-19.96 13.3 8.89-13.33 19.96 19.95 13.33h.01l-8.9 13.31z" fill="#3775a4"/><path d="m463.161 57.707a24 24 0 0 0 -46.322 0 15.984 15.984 0 0 0 -8.839 14.293 16 16 0 0 0 16 16h32a16 16 0 0 0 16-16 15.984 15.984 0 0 0 -8.839-14.293z" fill="#b3e4e8"/><path d="m79.161 249.707a24 24 0 0 0 -46.322 0 15.984 15.984 0 0 0 -8.839 14.293 16 16 0 0 0 16 16h32a16 16 0 0 0 16-16 15.984 15.984 0 0 0 -8.839-14.293z" fill="#b3e4e8"/><path d="m248 336h16v16h-16z" fill="#d18d28"/><path d="m178.209 353.408a8 8 0 0 1 -6.644-12.446l155.567-232.807a8 8 0 1 1 13.3 8.89l-155.564 232.807a7.992 7.992 0 0 1 -6.659 3.556z" fill="#70400e"/><path d="m248 368h16v24h-16z" fill="#d18d28"/><path d="m24 336a118.362 118.362 0 0 1 59.641 16.124l53.886 31.433a61.97 61.97 0 0 0 31.229 8.443h160.332a36 36 0 0 1 25.456 10.544l85.456 85.456h-416z" fill="#6b9777"/><path d="m392 488-53.456-53.456a36 36 0 0 0 -25.456-10.544h-144.332a61.97 61.97 0 0 1 -31.229-8.443l-53.886-31.433a118.362 118.362 0 0 0 -59.641-16.124v120z" fill="#5e8569"/><path d="m344 488-21.574-21.574a35.6 35.6 0 0 0 -25.17-10.426h-128.5a61.97 61.97 0 0 1 -31.229-8.443l-53.886-31.433a118.362 118.362 0 0 0 -59.641-16.124v88z" fill="#6b9777"/><g fill="#b3e4e8"><path d="m80 96h-56v-16h56a16 16 0 1 0 -16-16h-16a32 32 0 1 1 32 32z"/><path d="m80 208a32.036 32.036 0 0 1 -32-32h16a16 16 0 1 0 16-16h-56v-16h56a32 32 0 0 1 0 64z"/><path d="m24 112h40v16h-40z"/><path d="m464 248h-56v-16h56a16 16 0 1 0 -16-16h-16a32 32 0 1 1 32 32z"/><path d="m464 360a32.036 32.036 0 0 1 -32-32h16a16 16 0 1 0 16-16h-56v-16h56a32 32 0 0 1 0 64z"/><path d="m432 264h48v16h-48z"/><path d="m80 112h24v16h-24z"/><path d="m384 264h32v16h-32z"/></g><path d="m372.4 314.788a7.961 7.961 0 0 1 -4.438-1.35l-232.81-155.566a8 8 0 1 1 8.89-13.3l232.806 155.564a8 8 0 0 1 -4.452 14.652z" fill="#985713"/></g></svg>