<svg id="Capa_1" enable-background="new 0 0 512 512" height="512" viewBox="0 0 512 512" width="512" xmlns="http://www.w3.org/2000/svg"><g><path d="m59 150h30v67h-30z" fill="#b57a6a"/><path d="m74 165c-28.949 0-52.5-23.552-52.5-52.5v-60c0-28.948 23.551-52.5 52.5-52.5s52.5 23.552 52.5 52.5v60c0 28.948-23.551 52.5-52.5 52.5z" fill="#ade993"/><path d="m180 277h150v205.989h-150z" fill="#8dc2eb"/><path d="m255 277h75v205.989h-75z" fill="#5e9ff6"/><path d="m110.5 202h-110.5v310h97.5l97.5-10c0-7.995 0-208.067 0-215.5 0-46.594-37.907-84.5-84.5-84.5z" fill="#4e6ba6"/><path d="m92.519 330.32c-6.54-7.124-17.057-38.32-51.299-38.32h-41.22v-30h41.22c26.178 0 50.477 13.004 64.998 34.786l11.263 16.894z" fill="#28487a"/><path d="m427.5 150h30v67h-30z" fill="#8d5b4a"/><path d="m261.25 69.375h-56.25v-30h28.354c6.527-22.711 27.489-39.375 52.271-39.375 29.982 0 54.375 24.393 54.375 54.375h-30c0-13.44-10.935-24.375-24.375-24.375s-24.375 10.935-24.375 24.375z" fill="#d9e6fc"/><path d="m442.5 165c-28.949 0-52.5-23.552-52.5-52.5v-60c0-28.948 23.551-52.5 52.5-52.5s52.5 23.552 52.5 52.5v60c0 28.948-23.551 52.5-52.5 52.5z" fill="#76d081"/><path d="m399.5 202c-46.593 0-84.5 37.906-84.5 84.5v215.5l87.601 10h109.399c0-3.6 0-306.545 0-310z" fill="#28487a"/><path d="m287.528 437.166c-9.507-7.009-20.72-21.417-32.528-22.738-12.994-1.455-25.779.912-37.082 6.418-43.451-43.273-140.959-23.453-127.99 68.759 1.476 10.423 5.835 19.339 6.773 22.396h158.299l137.601-10c1.34-10.996 2.399-5.361 2.399-13 0-60.972-58.733-85.509-107.472-51.835z" fill="#d9e6fc"/><path d="m405 489c0-60.971-68.733-95.508-117.472-61.834-9.507-7.009-20.72-11.417-32.528-12.738v97.572h147.601c1.34-10.996 2.399-15.361 2.399-23z" fill="#bed9fd"/></g></svg>