<svg id="Capa_1" enable-background="new 0 0 512 512" height="512" viewBox="0 0 512 512" width="512" xmlns="http://www.w3.org/2000/svg"><g><path d="m402.152 461.853c-10.621-2.456-57.923 7.324-113.779-48.593-12.645-12.658-24.426-22.734-32.373-37.729-26.385 49.794-79.263 87.481-133.912 90.382l-16.656.886c1.431-9.051-2.998-44.648 24.59-88.526-79.66-7.899-115.875-53.023-122.233-57.236 7.205-5.142 35.275-40.178 98.206-53.544-.689-.675-1.374-1.354-2.054-2.035-78.059-78.147-71.035-162.104-72.463-168.108 7.128 1.588 82.301-5.368 158.192 63.283 3.813-106.279 62.632-154.663 66.33-160.633l6.732 12.673c33.576 37.38 55.113 102.711 57.496 158.938 82.802-73.437 139.622-61.514 150.293-64.25-1.971 7.103 8.758 81.303-78.552 166.665 32.983 7.007 68.845 14.428 91.971 35.246l12.403 11.166c-8.248 5.238-36.483 45.812-120.95 54.189 14.149 22.504 24.572 45.961 25.875 70.55z" fill="#f0ce46"/><path d="m268 504.992-12 7.008h-15v-242.268h15l12 6.006z" fill="#b57a6a"/><path d="m287.033 417.269c54.703 54.762 112.649 47.967 119.535 49.529-1.428-9.03 2.998-44.648-24.591-88.526 79.661-7.899 115.876-53.022 122.233-57.236-7.203-5.14-35.274-40.178-98.206-53.544 80.448-78.712 73.05-163.973 74.517-170.142-7.142 1.57-80.814-5.361-156.259 61.551-4.295-101.344-64.847-153.579-68.262-158.901v375.53c7.946 14.995 18.388 29.079 31.033 41.739z" fill="#e8a43e"/><path d="m256 269.732h15v242.268h-15z" fill="#8d5b4a"/></g></svg>