<svg id="Capa_1" enable-background="new 0 0 512 512" height="512" viewBox="0 0 512 512" width="512" xmlns="http://www.w3.org/2000/svg"><g><path d="m140.383 308.333-140.383-6.333 85.746-179.488c28.115-61.861 88.751-63.789 116.511-76.742l9.486 28.46-6.244 55.714c-21.683 7.228-39.542 23.306-48.999 44.112z" fill="#4e6ba6"/><path d="m73.321 308.845 100.574-223.5c23.331-51.845 75.141-85.345 131.995-85.345h37.516l158.594 10v297h-30l-128.635 7.046c-.81-.016 18.115.349-270.044-5.201z" fill="#28487a"/><path d="m512 317v-317h-168.635v318.511z" fill="#233d5c"/><path d="m329 152h30v165h-30z" fill="#b57a6a"/><path d="m343.365 152h15.635v165h-15.635z" fill="#8d5b4a"/><path d="m211 272h30v45h-30z" fill="#ade993"/><path d="m391 272h30v45h-30z" fill="#76d081"/><path d="m502 502-158.635 10h-343.365v-210h344l158 10z" fill="#8dc2eb"/><g fill="#5e9ff6"><path d="m512 512h-168.635v-210h168.635v120l-10 15 10 15z"/><path d="m76 422h30v30h-30z"/><path d="m136 422h195v30h-195z"/><path d="m256 362h165v30h-165z"/></g><path d="m343.405 362h77.595v30h-77.595z" fill="#3d6def"/><path d="m106 362h75v30h-75z" fill="#5e9ff6"/><path d="m361 422h30v30h-30z" fill="#3d6def"/><path d="m421 422h91v30h-91z" fill="#3d6def"/><path d="m441.996 155.1 19.488-22.809c-26.949-23.024-63.668-27.471-94.413-14.11 4.768-13.872 12.801-23.255 26.801-26.589l-6.949-29.184c-22.473 5.351-35.671 19.186-43.558 34.865-8.951-14.87-21.025-27.48-35.678-33.983l-12.17 27.42c9.543 4.236 18.988 15.386 25.77 28.93-31.277-10.316-67.128-3.081-91.961 21.754l21.213 21.213c14.989-14.988 35.996-20.356 55.313-16.139-29.528 14.781-49.852 45.325-49.852 80.532h30c0-33.084 26.916-60 60-60s60 26.916 60 60h30c0-36.839-22.252-68.573-54.018-82.485 19.663-7.327 42.685-4.222 60.014 10.585z" fill="#ade993"/><path d="m406 227h30c0-36.839-22.252-68.573-54.018-82.485 19.662-7.327 42.685-4.222 60.014 10.584l19.488-22.809c-26.949-23.024-63.668-27.471-94.413-14.11 4.768-13.872 12.801-23.255 26.801-26.589l-6.949-29.184c-22.473 5.351-35.671 19.186-43.558 34.865v69.793c34.45-1.498 62.635 26.151 62.635 59.935z" fill="#76d081"/></g></svg>