<svg id="Capa_1" enable-background="new 0 0 512 512" height="512" viewBox="0 0 512 512" width="512" xmlns="http://www.w3.org/2000/svg"><g><path d="m165.974 389.248-137.157-137.156 74.259-74.26 62.898 62.898z" fill="#8d5b4a"/><path d="m90.959 512-.001-30h6.167c21.439-.102 38.849-17.573 38.849-39.035v-442.965h135.593l14.439 10 15.003-10h65.019v450.941c0 21.524 17.511 39.035 39.034 39.035h5.98l.001 14c-5.45.001-155.038 8.023-155.038 8.023s-155.97 0-165.046.001z" fill="#b57a6a"/><g fill="#8d5b4a"><path d="m286.004 512h-30v-110.406l-60.015-45.012v-82.517h30v67.517l60.015 45.012z"/><path d="m195.989 0h30v185h-30z"/><path d="m196.03 214.143h30v30h-30z"/><path d="m421.041 481.977h-5.98c-21.523 0-39.034-17.511-39.034-39.035 0-10.341 0-421.149 0-442.941h-120.027v512h165.042z"/></g><path d="m271.008 0h30v94.02h-30z" fill="#7d4d3e"/><path d="m256.004 512h30v-125.406l-30.004-22.504v37.501l.004.003z" fill="#7d4d3e"/><path d="m286.011 304.07h30v30.008h-30z" fill="#7d4d3e"/><path d="m286.919 168.886c-20.471 20.473-20.471 53.784 0 74.257l.003.004c20.474 20.467 53.782 20.469 74.258-.003l122.003-122.003-74.259-74.261z" fill="#7d4d3e"/></g></svg>