<svg id="Capa_1" enable-background="new 0 0 511.999 511.999" height="512" viewBox="0 0 511.999 511.999" width="512" xmlns="http://www.w3.org/2000/svg"><g><path d="m136.135 195.989v-30h146.557l24.925-60h64.805l24.925 60h32.402c45.353 0 82.251 37.01 82.251 82.5 0 6.218-48.227 82.286-76.301 82.286-19.701 0-20.141-1.042-259.392-14.765z" fill="#7d4d3e"/><path d="m176.307 316.01 253.441 14.979c45.353 0 82.251-37.01 82.251-82.5h-358.293z" fill="#58332a"/><path d="m76.316 248.489c0-46.262 26.275-82.5 59.819-82.5 33.543 0 59.819 36.238 59.819 82.5z" fill="#edb986"/><path d="m134.834 196.01c-14.147 0-29.91 21.561-29.91 52.5 0 30.94 15.763 52.5 29.91 52.5 14.146 0 29.909-21.56 29.909-52.5 0-30.939-15.762-52.5-29.909-52.5z" fill="#7d4d3e"/><path d="m59.834 241.01h293.613c40.248 0 73.839 29.148 80.891 67.503.362 1.975-3.229 3.974-3.009 5.995.321 2.957 3.152 5.961 3.152 9.002 0 32.75-35.682 72.5-81.034 72.5h-283.643v-30l-9.97-42.5c0-17.553 0-64.897 0-82.5z" fill="#b57a6a"/><path d="m59.834 406.01h293.613c40.247 0 73.836-29.146 80.889-67.5.895-4.865-2.638-9.879-2.638-15h-371.864z" fill="#7d4d3e"/><path d="m59.834 396.01c-86.716 0-72.527-155 0-155 73.109 0 86.203 155 0 155z" fill="#f0cfa3"/><path d="m59.834 406.01c33.543 0 59.819-36.238 59.819-82.5h-119.638c0 46.262 26.275 82.5 59.819 82.5z" fill="#edb986"/><path d="m59.834 271.01c-14.147 0-29.91 21.561-29.91 52.5 0 30.94 15.763 52.5 29.91 52.5 14.146 0 29.909-21.56 29.909-52.5 0-30.939-15.762-52.5-29.909-52.5z" fill="#b57a6a"/><path d="m59.834 376.01c14.146 0 29.909-21.56 29.909-52.5h-59.819c0 30.94 15.763 52.5 29.91 52.5z" fill="#8d5b4a"/><g><g><path d="m149.298 308.51h29.91v30h-29.91z" fill="#7d4d3e"/></g></g><g><g><path d="m149.298 323.51h29.91v15h-29.91z" fill="#58332a"/></g></g><path d="m434.312 308.51h-225.195v30h215.224c.896-4.868 11.357-15 11.357-15 0-5.124-.491-10.131-1.386-15z" fill="#7d4d3e"/><path d="m209.117 338.51h225.194c.895-4.868 1.387-9.876 1.387-15h-226.581z" fill="#58332a"/></g></svg>