<svg id="Capa_1" enable-background="new 0 0 512 512" height="512" viewBox="0 0 512 512" width="512" xmlns="http://www.w3.org/2000/svg"><g><path d="m151 385h56.615c.011-.102 33.26-134.889 74.846-161.628l.443-.285c9.014-5.788-11.904-69.152-11.904-103.087v-30h-30v30c0 15.308-10.935 24.565-23.113 32.383-43.354 27.876-70.042 77.235-66.887 133.05z" fill="#e8a43e"/><path d="m271 105h-207.933l8.229-20.571c20.407-51.019 69.759-84.429 124.704-84.429h120v30c-24.813 0-45 20.187-45 45z" fill="#da5d1e"/><path d="m316 0h-53.65c-46.396 0-84 37.604-84 84v21h105c1.556-9.535-8.765-55.432 32.65-87.458z" fill="#c21456"/><path d="m323.387 512h-172.387v-137h116.05z" fill="#f6e486"/><path d="m46 486.967v-30c0-33.137 26.863-60 60-60v30c0 33.137-26.863 60-60 60z" fill="#ade993"/><path d="m241 75v169.864c0 102.629-89.632 129.816-90 130.136v24.61c110.026 7.958 131.858 8.243 165.004-7.294 13.155-6.167 15.281-24.497 25.904-34.8 25.209-24.45 39.092-47.306 39.092-82.516v-200c0-109.372-140-90.148-140 0z" fill="#f6e486"/><path d="m391 275v-200c0-41.355-33.645-75-75-75v392.308c44.662-20.939 75-65.304 75-117.308z" fill="#f0ce46"/><path d="m301 75h30v30h-30z" fill="#4e6ba6"/><path d="m316 75h15v30h-15z" fill="#28487a"/><path d="m433.583 315h-30c-33.137 0-60 26.863-60 60 .47 0 30.251 0 30 0 33.138 0 60-26.862 60-60z" fill="#76d081"/><g><g><path d="m16 375h480v30h-480z" fill="#b57a6a"/></g></g><g><g><path d="m316 375h180v30h-180z" fill="#8d5b4a"/></g></g></g></svg>