<svg id="Capa_1" enable-background="new 0 0 512 512" height="512" viewBox="0 0 512 512" width="512" xmlns="http://www.w3.org/2000/svg"><g><path d="m345 122v165.389c0 70.227 110 89.348 110 0 0-16.734 0-139.52 0-165.389 0-88.835-110-70.647-110 0z" fill="#76d081"/><path d="m465 287.389c0-16.734 0-139.52 0-165.389 0-33.137-26.863-60-60-60v285.389c33.137 0 60-26.864 60-60z" fill="#56975d"/><path d="m30 486.986h-30v-83.705l2.967-3.986c65.727-88.302 165.765-111.024 169.99-111.949l44.994-9.838c-22.386 25.394-66.318 68.901-100.32 148.586l-27.592-11.774z" fill="#ade993"/><g><g><path d="m390 212h30v285h-30z" fill="#b57a6a"/></g></g><g><g><path d="m405 212h15v285h-15z" fill="#8d5b4a"/></g></g><g><g><path d="m292.5 332h30v165h-30z" fill="#b57a6a"/></g></g><g><g><path d="m283.684 227h-26.684c-67.27 0-122-54.729-122-122v-105h30v105c0 50.729 41.271 92 92 92h26.684z" fill="#b57a6a"/></g></g><g><path d="m0 197v-30c106.177 0 152.679-80.789 168.359-93.495 68.445-75.287 160.516-73.236 161.641-73.505h75l97 10v10l-97 10h-74.732c-107.958 3.902-152.737 82.552-168.629 95.495-41.311 45.443-100.225 71.505-161.639 71.505z" fill="#8d5b4a"/></g><path d="m75 0v229.334c0 23.526-19.14 42.666-42.667 42.666h-32.333v30h32.333c40.069 0 72.667-32.598 72.667-72.666v-229.334z" fill="#b57a6a"/><g><path d="m450 407h30v90h-30z" fill="#8d5b4a"/></g><path d="m307.5 122c-20.711 0-37.5 16.789-37.5 37.5v150.999c0 20.711 16.789 37.5 37.5 37.5s37.5-16.789 37.5-37.5c0-47.863 0-103.329 0-150.999 0-20.711-16.789-37.5-37.5-37.5z" fill="#ade993"/><path d="m143.068 512h-143.068v-30.546c3.652-3.007 56.277-78.106 173.312-97.721 60.655-10.165 94.703-1.797 137.514 4.994-28.079 14.403-98.673 44.886-163.279 118.19z" fill="#76d081"/><g><g><g><path d="m0 482h512v30h-512z" fill="#ade993"/></g></g></g><g><g><path d="m405 482h107v30h-107z" fill="#76d081"/></g></g><path d="m405 0h107v30h-107z" fill="#7d4d3e"/></g></svg>