<svg id="Capa_1" enable-background="new 0 0 512 512" height="512" viewBox="0 0 512 512" width="512" xmlns="http://www.w3.org/2000/svg"><g><path d="m270 484.71-35 10h-45l15-73.548 30.654-10 29.346 10z" fill="#8d5b4a"/><path d="m265 421.162h-30v73.548h45z" fill="#7d4d3e"/><path d="m270 337.614-35 10h-45l15-73.549 30-10 30 10z" fill="#8d5b4a"/><path d="m270 411.162-34.864 10h-45.136l15-73.548h60z" fill="#b57a6a"/><path d="m265 274.065h-30v73.549h45z" fill="#7d4d3e"/><path d="m265 347.614h-30v73.548h45z" fill="#8d5b4a"/><g fill="#7d4d3e"><circle cx="375.031" cy="451.936" r="30"/><circle cx="435.031" cy="451.936" r="30"/><circle cx="405.031" cy="399.925" r="30"/></g><path d="m502 501.936-267 10h-235v-30h235l267 10z" fill="#f0cfa3"/><path d="m235 481.936h277v30h-277z" fill="#edb986"/><path d="m225.036 164.785-19.036 23.335-16 85.945h45l35-10-4-73.494-21.036-25.786z" fill="#b57a6a"/><path d="m266 190.571-21.036-25.786h-9.964v109.28h45z" fill="#8d5b4a"/><path d="m387.165 324.23-148.597-144.95-3.568.505h-3.751l-151.006 151.006 1.889-38.813c1.902-39.087 12.128-77.399 29.804-112.193h-110.795l28.781-26.109c34.098-30.933 74.818-52.638 119.062-63.658l-89.954-89.954 38.813 1.889c48.93 2.381 96.126 17.609 137.157 44.166 41.031-26.557 71.695-35.562 120.624-37.943l38.813-1.889-79.013 85.627c44.244 11.021 81.38 26.353 115.478 57.286l28.781 26.109-106.446 1.554c17.677 34.794 30.137 69.467 32.039 108.555z" fill="#ade993"/><path d="m389.757 330.791-1.889-38.813c-1.902-39.087-12.128-77.399-29.804-112.193h110.795l-28.781-26.109c-34.098-30.933-74.818-52.638-119.062-63.658l89.954-89.954-38.813 1.889c-48.93 2.381-96.126 17.609-137.157 44.166v133.666h3.751z" fill="#76d081"/></g></svg>