<svg id="Capa_1" enable-background="new 0 0 512 512" height="512" viewBox="0 0 512 512" width="512" xmlns="http://www.w3.org/2000/svg"><g><path d="m220.665 496.742c28.342-24.984 26.811-69.441-3.056-92.471l6.519-123.202 31.872 1.895 21.88 1.896 10 158.392c0 29.819-.426 50.578 29.409 50.578h5.979l-67.268 3.041z" fill="#b57a6a"/><path d="m256 299.866c-46.008 0-73.044-19.853-83.517-24.061l11.094-14.408c37.598-48.835-15.361-116.674-72.115-91.21l-7.115 3.193-6.699-3.992c-54.953-32.746-46.047-114.931 14.273-135.431 16.2-33.828 58.667-43.938 88.323-23.247 17.702-7.111 36.413-10.71 55.756-10.71 29.098 0 46.95 18.207 71.139 33.815 51.389-24.631 128.861 2.393 128.861 71.142 0 20.111-6.765 39.508-18.939 55.179 37.139 41.868 20.534 114.733-56.061 114.733-16.313 0-32.103-5.352-44.988-14.998-25.873 19.425-47.357 39.995-80.012 39.995z" fill="#ade993"/><path d="m211 224.892c0 41.399-33.579 74.96-75 74.96s-75-33.561-75-74.96c0-41.397 33.579-74.958 75-74.958s75 33.56 75 74.958z" fill="#76d081"/><path d="m226.331 511.751h-175.065c-1.873-8.417-5.266-16.45-5.266-30 0-41.341 33.645-74.975 75-74.975h.021c14.06-18.697 36.265-29.983 59.979-29.983 68.56 0 101.41 85.517 49.582 131.21z" fill="#76d081"/><g><g><g><path d="m506 505.997-250 6.003h-256v-30.015h256l250 6.003z" fill="#ade993"/></g></g></g><path d="m297.88 443.251-10-158.392-31.88-1.895v213.907l94.893.347c-29.368-.54-53.013-24.487-53.013-53.967z" fill="#8d5b4a"/><g><g><path d="m440.015 248.158-26.827 13.435c4.126 12.427 31.309 43.683 12.49 82.622-.1-.08-17.238-30.162-50.398-19.119l-.168.058c-36.467 12.146-39.624 63.956-3.29 79.473 19.84 8.475 35.443.742 49.904-10.144l3.317 5.305 7.182 14.354 26.827-13.435-7.82-15.63-7.78-12.441c6.221-8.442 11.039-17.728 14.231-27.587 15.719-48.552-13.393-84.678-17.668-96.891zm-45.275 128.221c-7.198 4.111-16.346.233-18.36-7.818-1.579-6.312 2.027-12.871 8.262-14.947l.169-.058c13.059-4.347 17.448 11.487 20.929 15.361-5.417 4.348-9.768 6.693-11 7.462z" fill="#8d5b4a"/></g></g><path d="m391 284.874c64.9 0 98.635-76.744 56.061-124.738 12.174-15.671 18.939-35.068 18.939-55.179 0-66.286-69.481-109.608-128.861-81.146-24.189-15.609-52.041-23.811-81.139-23.811v299.866c32.655 0 64.139-10.565 90.012-29.99 12.885 9.647 28.675 14.998 44.988 14.998z" fill="#76d081"/><g><g><path d="m256 481.985h256v30.015h-256z" fill="#76d081"/></g></g></g></svg>