<svg id="Capa_1" enable-background="new 0 0 512 512" height="512" viewBox="0 0 512 512" width="512" xmlns="http://www.w3.org/2000/svg"><g><path d="m76 210h30v60h-30z" fill="#b57a6a"/><path d="m91 225c-33.084 0-60-26.916-60-60v-105c0-33.084 26.916-60 60-60s60 26.916 60 60v105c0 33.084-26.916 60-60 60z" fill="#ade993"/><path d="m331 105v75h-28.5c-17.369 0-31.5-14.131-31.5-31.5v-13.5h-30v13.5c0 33.911 27.589 61.5 61.5 61.5h28.5v135h53v-240c-10.891 0-42.067 0-53 0z" fill="#b57a6a"/><path d="m436 135v58.5c0 17.369-14.131 31.5-31.5 31.5h-13.5v-120h-30v240h30v-90h13.5c33.911 0 61.5-27.589 61.5-61.5v-58.5z" fill="#8d5b4a"/><path d="m466 150h-40c-24.814 0-45-20.187-45-45v-15h25c26.718 0 30.001-27.143 31.823-30h28.177c24.814 0 45 20.187 45 45s-20.186 45-45 45z" fill="#76d081"/><path d="m396 115-35 5h-45v-15c0-8.271-6.728-15-15-15h-38.036c-2.154-7.166-6.964-15.657-6.964-30 0-33.084 26.916-60 60-60h45l34 5c33.084 0 61 21.916 61 55s-26.916 55-60 55z" fill="#76d081"/><path d="m466 60c0-33.084-26.916-60-60-60h-45v120h45c33.084 0 60-26.916 60-60z" fill="#56975d"/><path d="m301 150h-60c-24.814 0-45-20.187-45-45s20.186-45 45-45h60c24.814 0 45 20.187 45 45s-20.186 45-45 45z" fill="#ade993"/><path d="m512 512h-512v-257h195.4c24.028 0 46.418 10.761 61.428 29.523 16.19 16.395 25.999 45.477 59.772 45.477h195.4z" fill="#8dc2eb"/><g fill="#5e9ff6"><path d="m361 330h151v182h-151z"/><path d="m76 420h30v30h-30z"/><path d="m136 420h225v30h-225z"/><path d="m0 360h196v30h-196z"/><path d="m226 360h30v30h-30z"/></g><path d="m391 420h121v30h-121z" fill="#3d6def"/></g></svg>