<svg id="Capa_1" enable-background="new 0 0 512 512" height="512" viewBox="0 0 512 512" width="512" xmlns="http://www.w3.org/2000/svg"><g><path d="m438.334 105h73.666v104c0 63.924-39.411 118.807-95.206 141.654 21.393 16.469 25.206 32.323 25.206 61.346 0 119.812-161 120.193-161 0l-10-50c0-11.002 0-82.787 0-89.666 0-92.269 75.065-167.334 167.334-167.334z" fill="#f0ce46"/><g><g><path d="m362 512h-1c-49.626 0-90-40.373-90-90 0-14.822 0-56.193 0-71.346h145.794c68.262 52.549 30.421 161.346-54.794 161.346z" fill="#c21456"/></g></g><path d="m332 301h27c50.728 0 92-41.272 92-92v-43.354c-7.161 1.29-51.35-5.826-88.713 32.428-39.72 40.666-28.264 87.326-30.287 102.926z" fill="#e17b47"/><path d="m345 405h30v30h-30z" fill="#fcf7e2"/><path d="m73.666 105h-73.666v104c0 63.924 39.411 118.807 95.206 141.654-21.393 16.469-25.206 32.323-25.206 61.346 0 119.812 161 120.193 161 0l10-50c0-11.002 0-82.787 0-89.666 0-92.269-75.065-167.334-167.334-167.334z" fill="#f6e486"/><g><path d="m150 512h1c49.626 0 90-40.373 90-90 0-14.822 0-56.193 0-71.346h-145.794c-68.262 52.549-30.421 161.346 54.794 161.346z" fill="#da5d1e"/></g><path d="m180 301h-27c-50.729 0-92-41.272-92-92v-43.354l15.378.388c57.242 1.445 103.622 48.357 103.622 106.299z" fill="#e8a43e"/><path d="m137 405h30v30h-30z" fill="#fcf7e2"/><path d="m256 50.971c-18.388-30.516-51.849-50.971-90-50.971v30c41.355 0 75 33.645 75 75v77h15l10-5v-72c0-41.355 34.645-80 76-80v-20c-38.151 0-67.612 15.455-86 45.971z" fill="#eef4ff"/><path d="m271 105c0-41.355 33.645-75 75-75v-30c-38.151 0-71.612 20.455-90 50.971v131.029h15z" fill="#bed9fd"/><path d="m211 422v-210c0-50.145 80-69.631 80 0v210c0 69.634-80 50.158-80 0z" fill="#f0ce46"/><path d="m301 422v-210c0-24.814-20.186-45.209-45-45.209v300.424c24.814 0 45-20.401 45-45.215z" fill="#e8a43e"/></g></svg>