<svg id="Capa_1" enable-background="new 0 0 512 512" height="512" viewBox="0 0 512 512" width="512" xmlns="http://www.w3.org/2000/svg"><g><path d="m60 0h30v45h-30z" fill="#ade993"/><path d="m60 165h30v137h-30z" fill="#ade993"/><path d="m75 180c-24.813 0-45-20.187-45-45v-60c0-24.813 20.187-45 45-45s45 20.187 45 45v60c0 24.813-20.187 45-45 45z" fill="#f6e486"/><path d="m427 502-184.999 10h-242.001v-59.999l10-15-10-15v-52.501c0-45.49 37.009-82.5 82.5-82.5h159.501l57.499 10c42.964 0 78.362 33.009 82.162 75h45.338c100.651 0 100.41 130 0 130z" fill="#8dc2eb"/><path d="m502 437c0-5.169 9.475-10.218 8.473-15.096-7.004-34.144-37.288-59.904-73.473-59.904h-45.338c-3.8-41.991-39.198-75-82.162-75h-67.5v225h195c36.185 0 66.469-25.759 73.473-59.904 1.002-4.877-8.473-9.926-8.473-15.096z" fill="#5e9ff6"/><path d="m280 422h30v30h-30z" fill="#3d6def"/><path d="m91 362.234h30v30h-30z" fill="#5e9ff6"/><path d="m0 422h158.007v30h-158.007z" fill="#5e9ff6"/><path d="m227 50h26.5v45h-26.5z" fill="#ade993"/><path d="m227 215h26.5v162h-26.5z" fill="#ade993"/><path d="m242 50h15v45h-15z" fill="#76d081"/><path d="m242 215h15v162h-15z" fill="#76d081"/><path d="m197 185v-60c0-50.144 80-69.629 80 0v60c0 69.635-80 50.157-80 0z" fill="#f6e486"/><path d="m287 185v-60c0-24.813-20.188-45.207-45-45.207v150.421c24.812.001 45-20.401 45-45.214z" fill="#f0ce46"/><path d="m182 362h120v30h-120z" fill="#5e9ff6"/><path d="m242 362h60v30h-60z" fill="#3d6def"/><path d="m422 25h30v45h-30z" fill="#76d081"/><path d="m422 190h30v247h-30z" fill="#76d081"/><path d="m437 205c-24.812 0-45-20.187-45-45v-60c0-24.813 20.188-45 45-45s45 20.187 45 45v60c0 24.813-20.188 45-45 45z" fill="#f0ce46"/><path d="m510.49 422h-171.93v30h171.93c2.012-9.867 2.016-20.113 0-30z" fill="#3d6def"/></g></svg>