<svg id="Capa_1" enable-background="new 0 0 512 512" height="512" viewBox="0 0 512 512" width="512" xmlns="http://www.w3.org/2000/svg"><g><path d="m493.709 512h-210.255c-1.922-5.461-11.438-20.643-11.438-44.999 0-84.997 107.345-122.201 160.132-56.401 49.57-3.693 85.367 46.964 65.492 92.411z" fill="#76d081"/><path d="m432.148 410.599c-52.771-65.779-160.132-28.631-160.132 56.401 0 24.42 9.465 39.396 11.438 44.999h210.255c2.126-5.909 9.449-16.927 9.449-35.452 0-38.453-32.82-68.793-71.01-65.948z" fill="#76d081"/><g fill="#b57a6a"><path d="m362.021 306.5c0 12.959-10.543 23.5-23.502 23.5h-77.456v30h77.456c29.502 0 53.503-24 53.503-53.5v-81.5h-30.001z"/><path d="m223.249 345h-65.738c-45.492 0-82.504-37.009-82.504-82.5v-37.5h30.001v37.5c0 28.949 23.553 52.5 52.503 52.5h65.738z"/><path d="m192.442 160.468h94.575v351.532h-94.575z"/></g><path d="m437.024 230h-90.004c-41.357 0-75.004-23.645-75.004-65v-15h75.004c28.426 0 53.154-20.18 58.8-47.984l2.44-12.016h28.765c90.709 0 108.816 140-.001 140z" fill="#56975d"/><path d="m347.02 240h90.004c41.358 0 74.975-33.645 74.975-75h-239.983c0 41.355 33.647 75 75.004 75z" fill="#457a5b"/><path d="m347.02 170h-145.184c-1.602-2.511-5.417-30-31.824-30h-72.498c-14.161-19.095-22.507-27.573-22.507-50 0-49.626 40.376-90 90.004-90h182.01c49.628 0 90.004 40.374 90.004 90s-40.377 80-90.005 80z" fill="#ade993"/><path d="m97.514 150h72.498c26.719 0 30.002 27.143 31.824 30h145.184c49.628 0 90.004-40.374 90.004-90h-362.017c0 36.293 20.549 56.491 22.507 60z" fill="#76d081"/><path d="m228.578 512h-157.135c-1.922-5.461-11.437-20.643-11.437-44.999 0-49.626 40.376-90.001 90.005-90.001 64.831 0 108.375 66.815 82.498 126.008z" fill="#ade993"/><g><path d="m170.012 230h-110.006c-88.933 0-70.557-110 0-110h110.006c70.109 0 89.411 110 0 110z" fill="#56975d"/><path d="m60.006 240h110.006c33.085 0 60.038-26.916 60.038-60h-230.047c0 33.084 26.917 60 60.003 60z" fill="#457a5b"/></g></g></svg>