<svg id="Capa_1" enable-background="new 0 0 512 512" height="512" viewBox="0 0 512 512" width="512" xmlns="http://www.w3.org/2000/svg"><g><path d="m406 390c-69.111 0-93.497-58.632-98.177-63.38 4.391-3.058 99.758-25 112.105-128.679l2.186-18.354 17.51 5.916c42.692 14.426 71.376 54.41 71.376 99.497 0 57.897-47.103 105-105 105z" fill="#56975d"/><path d="m91 497v-22.5c0-36.527 36.646-62.027 70.9-49.181 24.413-21.201 59.298-24.062 86.613-8.255l-15.026 25.965c-6.817-3.944 2.953 53.971-4.942 53.971z" fill="#ade993"/><path d="m311 506-40 6h-45v-187.734c13.216 2.111 25.242 5.723 44.982 5.723 9.165 0 18.337 5.178 27.308 3.53l10.71-3.253z" fill="#b57a6a"/><path d="m316 324.266c-13.169 2.103-25.224 5.721-45 5.723v182.011h45z" fill="#8d5b4a"/><path d="m1.46 437.08c-4.193-29.939 11.397-68.035 57.022-76.811 14.634-2.813 24.944-8.133 29.815-15.381 3.995-5.944 3.32-11.893 3.31-11.947l29.417-5.883c4.714 23.551-10.994 53.848-56.876 62.672-15.792 3.036-25.72 10.583-30.352 23.07-3.797 10.237-2.623 20.129-2.611 20.227l-.015-.108z" fill="#b57a6a"/><path d="m286 497c0-45.49 37.009-82.5 82.5-82.5s82.5 37.01 82.5 82.5c-19.799 0-140.9 0-165 0z" fill="#ade993"/><path d="m505 506-234.001 6h-270.999v-30h270.999l234.001 6z" fill="#f0cfa3"/><path d="m271 482h241v30h-241z" fill="#edb986"/><path d="m271 360c-71.963 0-112.344-40.686-122.599-46.264 6.672-6.087 62.599-25.711 62.599-88.736 0-50.654-42.121-91.773-93.237-89.935l-22.802.817 8.29-21.258c26.516-67.988 92.289-114.624 167.749-114.624 63.045 0 170 80.748 170 180s-104.955 180-170 180z" fill="#ade993"/><g fill="#76d081"><path d="m451 180c0-99.252-80.748-180-180-180v360c99.252 0 180-80.748 180-180z"/><circle cx="121" cy="225" r="120"/></g></g></svg>