<svg id="Capa_1" enable-background="new 0 0 512 512" height="512" viewBox="0 0 512 512" width="512" xmlns="http://www.w3.org/2000/svg"><g><path d="m368.504 435c-69.452 0-102.655-52.853-106.552-56.014 3.4-4.491 54.052-38.504 54.052-108.986 0-71.204-51.971-105.732-54.317-108.741 1.974-6.444 9.317-19.689 9.317-41.259 0-12.848-2.615-21.172-3.42-25.775 2.119-1.626 34.808-49.225 100.919-49.225h.001c42.962 0 117.5 57.196 117.5 127.5v135c0 70.304-73.761 127.5-117.5 127.5z" fill="#56975d"/><path d="m496.004 307.5v-135c0-70.304-57.196-127.5-127.5-127.5v390c70.303 0 127.5-57.196 127.5-127.5z" fill="#457a5b"/><path d="m181.004 435c-147.789 0-220.25-179.946-115.604-282.727-21.353-76.516 36.499-152.273 115.604-152.273 35.486 0 130.465 63.181 105.602 152.273 31.512 30.951 49.398 73.309 49.398 117.727 0 90.981-111.79 165-155 165z" fill="#ade993"/><path d="m296.606 152.273c21.353-76.517-36.498-152.273-115.602-152.273v435c147.793 0 220.247-179.945 115.602-282.727z" fill="#76d081"/><path d="m191.004 486v-301l-10-5h-15v128.787l-34.394-34.393-21.213 21.212 55.607 55.607v130.787h-45v30h60l55-5v-21z" fill="#b57a6a"/><g><path d="m181.004 482v30h60v-30h-45v-100.787l55.606-55.607-21.213-21.212-34.393 34.393v-62.574l55.606-55.607-21.213-21.212-34.393 34.393v-53.787h-15z" fill="#8d5b4a"/></g><path d="m378.504 487v-120l-10-6h-15v121h-52.5v30h67.5l63.5-5-1-20z" fill="#b57a6a"/><path d="m383.504 482v-121h-15v151h67.5v-30z" fill="#8d5b4a"/></g></svg>