<svg id="Capa_1" enable-background="new 0 0 512 512" height="512" viewBox="0 0 512 512" width="512" xmlns="http://www.w3.org/2000/svg"><g><path d="m308.112 370.834c11.398-6.596 24.391-.082 37.576-.082 14.753 0 28.926 4.264 41.046 12.203 10.494-7.508 23.404-11.883 36.642-12.188 14.815-72.896 73.513-58.292 78.624-60.137v191.37l-216.457 10-27.22-10-57.307 10h-201.016v-178.485c.744-.689 26.917-47.913 84.788-47.913 49.696 0 90.937 36.902 97.757 84.74 19.291 2.771 37.378 11.215 51.927 24.27 6.688-2.502 13.801-3.795 21.029-3.795 10.734-4.079 41.878-15.907 52.611-19.983z" fill="#76d081"/><path d="m255.501 330.63h-9.855c-44.279 0-80.303-36.021-80.303-80.298v-9.854h30v9.854c0 27.735 22.565 50.299 50.303 50.299h9.855z" fill="#8d5b4a"/><path d="m52.578 105.172c-28.991 0-52.578-23.584-52.578-52.574 0-28.988 23.587-52.575 52.578-52.575s52.578 23.587 52.578 52.575c0 28.99-23.587 52.574-52.578 52.574z" fill="#f6e486"/><path d="m512 300.631h-15c-36.294 0-66.66 25.873-73.624 60.138-13.237.305-26.148 4.679-36.642 12.186-23.668-15.503-54.186-16.261-78.622-2.121l-22.57 8.57v132.596l38.28-10 42.5 10h145.678z" fill="#56975d"/><path d="m375.782 258.014c0 23.5-19.119 42.617-42.62 42.617h-17.536v29.999h17.536c40.043 0 72.62-32.577 72.62-72.616v-17.535h-30z" fill="#7d4d3e"/><path d="m320.793 472.222-.186-250.954-20.995 9.186c-7.62 3.333-5.711-4.975-14.049-4.975-18.623 0-28.511-7.81-45.062-14.22v260.974c0 21.555-18.082 39.767-39.485 39.767h158.57c-21.391 0-38.793-17.839-38.793-39.778z" fill="#b57a6a"/><path d="m330.793 472.222-.186-260.954c-16.626 6.438-26.419 14.212-45.044 14.212-.007 0-.014-.002-.021-.002v286.522h84.043c-21.39 0-38.792-17.839-38.792-39.778z" fill="#8d5b4a"/><path d="m328.173 228.543c-15.241 10.996-23.497 26.936-42.609 26.936-19.113 0-37.369-5.939-52.609-16.938-58.611 42.293-142.767.791-142.767-73.215 0-33.525 18.451-63.922 47.629-79.512 9.482-35.493 43.407-59.103 80.221-55.338 17.02-19.22 41.622-30.454 67.526-30.454 33.523 0 53.916 18.446 69.508 47.614 16.908 4.477 31.599 14.662 41.777 28.98 42.303 7.619 74.09 44.57 74.09 88.709 0 74.517-90.837 100.69-142.766 63.218z" fill="#ade993"/><g fill="#76d081"><path d="m338.173 238.541c15.24 10.998 33.496 16.938 52.609 16.938 78.039 0 119.204-93.425 66.532-150.982-13.417-14.662-31.12-24.395-50.466-27.879-10.179-14.318-24.869-24.504-41.777-28.98-27.009-50.525-79.41-47.58-79.529-47.614v255.454c2.13-.339 27.282 1.354 52.631-16.937z"/><path d="m338.173 238.541c15.24 10.998 33.496 16.938 52.609 16.938 78.039 0 119.204-93.425 66.532-150.982-13.417-14.662-31.12-24.395-50.466-27.879-10.179-14.318-24.869-24.504-41.777-28.98-27.009-50.525-79.41-47.58-79.529-47.614v255.455c1.609-.24 27.214 1.402 52.631-16.938z"/></g></g></svg>