<svg id="Capa_1" enable-background="new 0 0 512 512" height="512" viewBox="0 0 512 512" width="512" xmlns="http://www.w3.org/2000/svg"><g><path d="m383.037 507.006h-276.312l44.207-105.626c1.938-1.065 12.096-11.239 30.068-11.239 9.314 0 18.357 2.942 25.861 8.192 24.117-12.379 54.688-11.051 78.254 6.142 18.798-5.763 38.577 1.052 50.146 15.791 30.551 2.301 54.739 29.125 54.739 61.768 0 4.939-.03 6.907-6.963 24.972z" fill="#56975d"/><g fill="#d9e6fc"><path d="m466 300.244h30v29.966h-30z"/><path d="m436 135.433h60v29.966h-60z"/><path d="m376 210.347h90v29.966h-90z"/><path d="m346.203 300.244h89.797v29.966h-89.797z"/></g><g><path d="m331.504 76.805h149.556v29.965h-149.556z" fill="#d9e6fc"/><path d="m385.626 282.304c6.396-16.465-.408-21.216-8.54-36.427 30.143-30.773 28.262-81.456-5.539-109.771-1.743-22.77-16.304-42.721-38.131-51.179-.006-.001-.011-.003-.016-.005-8.006-28.427-23.263-53.758-52.498-58.801l-.014.033c-2.054-.574-9.816-1.514-17.746-.977-16.062-18.742-42.61-25.906-66.398-17.053-46.444-21.088-100.457.439-120.097 46.538-60.598 9.312-94.489 75.34-66.246 130.084-27.264 53.316 16.425 115.436 75.651 108.414 15.128 38.021 50.393 43.835 56.499 47.362l21.795-56.109c.995.386 6.111 2.64 11.794 4.843 4.08 1.581 11.997 4.649 16.08 6.231l-20.159 51.904c10.099 6.128 26.364 12.51 57.379 12.507 14.306-.001 28.54-3.403 41.44-10.068 33.626 18.145 75.424.607 86.117-35.84 13.045-6.646 23.252-17.841 28.628-31.688v.002z" fill="#ade993"/><path d="m387.161 290.672c6.396-16.465 5.032-34.812-3.1-50.023 30.142-30.772 28.262-81.457-5.54-109.772-1.742-22.769-16.303-42.72-38.13-51.178-.006-.002-.011-.004-.016-.006-7.41-26.311-28.935-47.364-57.177-53.133l-104.93 263.52 13.953 5.407-20.159 51.904c10.099 6.128 27.899 20.878 58.914 20.875 14.305-.001 28.54-3.403 41.44-10.067 33.626 18.147 75.423.607 86.117-35.84 13.045-6.647 23.251-17.842 28.628-31.689z" fill="#76d081"/><path d="m155.923 265.098-92.246 231.662c.101 0 54.194.008 54.583.008l83.427-209.515-17.882-11.077z" fill="#b57a6a"/><path d="m183.805 276.176-87.836 220.588 32.291.003 83.426-209.514z" fill="#8d5b4a"/></g><path d="m100.28 482.034c-12.55 0-87.723 0-100.28 0v29.966h88.35l413.65-9.988v-9.988z" fill="#ade993"/><path d="m512 482.034h-410.168l-11.97 29.966h422.138z" fill="#76d081"/></g></svg>