<svg id="Capa_1" enable-background="new 0 0 512 512" height="512" viewBox="0 0 512 512" width="512" xmlns="http://www.w3.org/2000/svg"><g><path d="m512 252.096h-46c-38.107 0-69 30.892-69 68.999v7.667h46c38.107 0 69-30.892 69-69z" fill="#76d081"/><path d="m0 102.333h46c38.107 0 69 30.893 69 69v7.667h-46c-38.107 0-69-30.892-69-69z" fill="#ade993"/><path d="m0 252.096h46c38.107 0 69 30.893 69 69v7.667h-46c-38.107 0-69-30.892-69-69z" fill="#ade993"/><path d="m412.884 506-67.352 6h-73.352c1.113-4.24 19.717-40.966 19.819-107.69.066-42.663-13.311-71.735-14.311-75.31l1.897-5.169c30.072-81.911-3.409-146.486-7.405-159.831h73.353l67.354 6c-7.768 22.107-20.465 44.176-20.888 81.835-.492 43.828 13.982 73.396 15.084 77.166-1.064 3.565-14.622 31.721-15.084 72.834-.368 32.81 7.575 69.75 12.991 83.754z" fill="#f6e486"/><path d="m404.99 485.589c-5.416-14.004-13.359-56.944-12.991-89.754.26-23.128 4.63-39.812 12.99-61.423l8.094-5.411c-1.07-3.664-15.574-33.551-15.084-77.166.516-45.88 16.622-74.453 20.888-87.835h-73.354v348l67.352-6z" fill="#f0ce46"/><g><g><g><path d="m234.896 506-67.689 6h-73.691c1.113-4.24 19.715-40.973 19.817-107.69.065-42.608-13.312-71.733-14.312-75.31.968-3.452 14.248-32.585 14.312-74.689.065-42.608-13.312-71.733-14.312-75.311.968-3.452 14.248-32.585 14.312-74.689.094-60.871-18.947-101.155-19.817-104.311h73.543l67.839 6c-1.905 6.059-40.42 83.486-7.895 167.589l2.093 5.411c-1.068 3.584-14.622 31.728-15.084 72.835-.492 43.828 13.998 73.451 15.084 77.165-1.068 3.584-14.622 31.728-15.084 72.835-.368 32.81 7.575 69.75 12.991 83.754z" fill="#f6e486"/></g></g></g><path d="m233.003 491.589c-5.416-14.004-13.359-56.944-12.991-89.754.464-41.278 13.94-69.144 15.041-72.835l-5.908-5.411c-16.963-43.863-17.724-93.362 0-139.178l5.951-5.411c-1.06-3.626-15.574-33.551-15.084-77.166.678-60.413 19.853-98.252 20.886-101.834h-73.839v512h73.838z" fill="#f0ce46"/><path d="m229.145 183.13-.05-.13-62.036-4h-68.039l-.047.129c.975 3.486 14.387 32.855 14.321 75.365-.064 42.176-13.272 71.068-14.234 74.506h67.999l61.994-4c-1.76-5.569-15.452-32.976-15.003-72.983.41-36.383 11.758-58.596 15.095-68.887z" fill="#f0ce46"/><path d="m220.05 252.017c.466-41.308 13.943-69.193 15.045-72.887v-.13h-68.036v150h67.994c-1.034-3.544-15.492-33.43-15.003-76.983z" fill="#e8a43e"/><path d="m277.688 329c.975 3.483 14.377 32.824 14.311 75.31-.05 32.421-7.505 74.148-12.414 87.52l-7.405 20.17h73.353l67.352-6c-1.485-4.987-21.553-44.625-20.885-104.165.464-41.284 13.999-69.197 15.084-72.834l-.092-.238h-129.217z" fill="#f0ce46"/><path d="m397.999 401.835c.464-41.284 13.999-69.197 15.084-72.834l-.092-.238h-67.459v183.237h73.352l-7.894-20.411c-5.416-14.004-13.359-56.944-12.991-89.754z" fill="#e8a43e"/></g></svg>