<svg id="Capa_1" enable-background="new 0 0 512 512" height="512" viewBox="0 0 512 512" width="512" xmlns="http://www.w3.org/2000/svg"><g><path d="m486.023 443.028-32.478-11.512.99-2.782c18.207-51.182 3.067-133.383-64.782-157.434l-15.117 4.386 5.062 23.884c29.581 10.486 42.045 34.803 47.292 53.356 10.462 37-1.371 66.732-1.764 68.55l-18.467-6.546c-43.172-15.304-80.305 32.707-58.34 70.592 8.417 14.516 24.312 24.662 43.124 24.662 19.801 0 38.395-12.301 45.39-31.965l6.557-18.434 32.478 11.512zm-77.41 25.154c-5.726 16.094-25.345 14.341-33.288 3.855-9.93-13.107 3.581-35.141 21.378-28.835l18.468 6.546z" fill="#8d5b4a"/><g><g><path d="m112.812 150h30.052v74.64h-30.052z" fill="#b57a6a"/></g></g><g><g><path d="m127.846 150h15.018v74.64h-15.018z" fill="#8d5b4a"/></g></g><g><path d="m238.048 460h-49.77c-24.704 0-46.673-6.911-60.448-25.281-9.428-12.574-15.017-28.174-15.017-45.053v-29.666h30.053v29.667c0 24.997 20.372 50.333 45.412 50.333h49.77z" fill="#b57a6a"/></g><path d="m188.277 435c-25.041 0-45.412-20.336-45.412-45.333v-29.667h-15.036v74.719c13.775 18.37 35.744 30.281 60.448 30.281h59.771v-30z" fill="#8d5b4a"/><path d="m353.223 270v59.667c0 24.997-20.371 45.333-45.412 45.333h-52.259v-375h-30.052v512h30.052v-107h52.259c41.611 0 75.465-33.794 75.465-75.333v-59.667z" fill="#b57a6a"/><ellipse cx="459.408" cy="53.5" fill="#f0ce46" rx="52.592" ry="52.5"/><path d="m448.406 190h-15.026c-4.143 0-7.513-3.364-7.513-7.5 0-28.949-13.594-62.5-42.592-62.5-28.999 0-52.592 23.551-52.592 52.5 0 4.136-3.37 7.5-7.514 7.5h-45.078c-35.475 0-56.795 32.976-52.038 60.072 3.69 25.373 25.616 44.928 52.039 44.928h105.184l65.131-10c26.169 0 47.928-9.18 51.928-34.196 5.252-27.23-16.183-50.804-51.929-50.804z" fill="#ade993"/><path d="m458.407 180h-15.027c-4.143 0-7.513-3.364-7.513-7.5 0-28.949-23.594-52.5-52.592-52.5v165h75.132c26.168 0 47.928-19.18 51.928-44.196 5.252-27.23-16.183-60.804-51.928-60.804z" fill="#76d081"/><path d="m192.96 275h-15.027c-4.142 0-7.513-3.364-7.513-7.5 0-28.949-13.592-57.5-42.592-57.5-28.998 0-52.592 23.551-52.592 52.5 0 4.136-3.37 7.5-7.513 7.5h-15.026c-35.477 0-56.797 32.981-52.036 60.078 3.691 25.369 25.616 44.922 52.036 44.922h75.149l65.114-5c26.165 0 47.923-14.176 51.926-39.188 5.258-27.231-16.177-55.812-51.926-55.812z" fill="#ade993"/><path d="m202.96 270h-15.027c-4.143 0-7.513-3.364-7.513-7.5 0-28.943-23.583-52.49-52.575-52.499v164.999h75.114c26.165 0 47.923-19.176 51.926-44.188 5.259-27.231-16.176-60.812-51.925-60.812z" fill="#76d081"/><path d="m233.03 65h-55.097c-4.143 0-7.513-3.364-7.513-7.5 0-28.949-13.592-57.5-42.592-57.5-28.998 0-52.592 23.551-52.592 52.5 0 4.136-3.37 7.5-7.513 7.5h-15.026c-35.477 0-56.797 32.981-52.035 60.078 3.69 25.369 25.615 44.922 52.035 44.922h75.132l105.201-5c26.169 0 47.93-14.182 51.928-39.199 5.25-27.229-16.184-55.801-51.928-55.801z" fill="#ade993"/><path d="m243.03 60h-55.097c-4.143 0-7.513-3.364-7.513-7.5 0-28.943-23.583-52.49-52.575-52.5v165h115.185c26.169 0 47.93-19.182 51.928-44.199 5.25-27.229-16.184-60.801-51.928-60.801z" fill="#76d081"/></g></svg>