<svg id="Capa_1" enable-background="new 0 0 512 512" height="512" viewBox="0 0 512 512" width="512" xmlns="http://www.w3.org/2000/svg"><g><path d="m502 502-246 10h-256v-120l10-15-10-15v-30l10-30h482l10 30z" fill="#8dc2eb"/><path d="m502 302h-246v210h256v-120l-10-15 10-15v-30z" fill="#5e9ff6"/><path d="m241 180h30v62h-30z" fill="#b57a6a"/><path d="m151 195c-63.384 0-97.348-73.679-58.552-121.869-8.414-37.48 20.246-73.131 58.552-73.131 38.262 0 66.976 35.601 58.552 73.132 38.803 48.204 4.819 121.868-58.552 121.868z" fill="#ade993"/><path d="m136 120h30v122h-30z" fill="#b57a6a"/><path d="m301 452h-165v-15c0-41.355 33.645-75 75-75h15c41.355 0 75 33.645 75 75z" fill="#d9e6fc"/><path d="m75 422h271v30h-271z" fill="#5e9ff6"/><path d="m0 362h75v30h-75z" fill="#5e9ff6"/><path d="m256 180h15v62h-15z" fill="#8d5b4a"/><path d="m364.29 0c-38.265 0-66.977 35.605-58.552 73.131-38.804 48.205-4.818 121.869 58.552 121.869 63.377 0 97.351-73.67 58.552-121.868 8.413-37.484-20.246-73.132-58.552-73.132z" fill="#76d081"/><path d="m349.29 120h30v122h-30z" fill="#8d5b4a"/><path d="m301 437c0-30.691-18.539-57.122-45-68.719v83.719h45z" fill="#bed9fd"/><g fill="#3d6def"><path d="m256 422h90v30h-90z"/><path d="m346 362h30v30h-30z"/><path d="m406 362h106v30h-106z"/><path d="m376 422h30v30h-30z"/></g><path d="m502 332h-502v-15c0-49.626 40.374-90 90-90h321c49.917 0 91 40.424 91 90z" fill="#f0cfa3"/><path d="m512 317c0-49.52-41.033-90-91-90h-165v105h256z" fill="#edb986"/></g></svg>