<svg id="Capa_1" enable-background="new 0 0 512 512" height="512" viewBox="0 0 512 512" width="512" xmlns="http://www.w3.org/2000/svg"><g><path d="m115.051 292.615c-20.711 0-37.5 16.789-37.5 37.5s16.789 37.5 37.5 37.5h55.296c-4.31-22.781-7.419-48.064-9.046-75z" fill="#8d5b4a"/><path d="m305.532 348.695c-4.263 28.939-10.262 45.895-21.797 77.814l-51.235 10h-59.234l-3.527-10.02c-32.306-91.775-24.295-212.764-24.407-215.037 5.23-2.305 24.395-4.152 38.389-23.443l7.316-10.084c6.411 2.143 20.564 13.756 41.468 7.914 1.808-.506 9.585 8.869 11.327 8.125l.122-4.32c4.347 3.85 11.869 19.449 31.215 19.449 15.585 0 22.051-9.875 40.443-21.65l1.605 27.092c.864 14.574-4.716 18.795-4.716 33.475-.001 38.213-1.837 32.295-6.969 100.685z" fill="#b57a6a"/><path d="m315.532 348.695c6.746-89.891 9.622-64.027 4.078-171.252l-22.086 15.771c-13.351 9.537-31.744 7.242-42.413-5.213l-7.159-8.358c-9.103 3.787-10.952 4.928-15.452 6.182v250.685h61.235c1.95-6.514 13.759-33.241 21.797-87.815z" fill="#8d5b4a"/><path d="m359.959 346.51h-74.459c-20.711 0-37.5-16.789-37.5-37.5 0-20.711 16.789-37.5 37.5-37.5h74.459c20.711 0 37.5 16.789 37.5 37.5 0 20.711-16.789 37.5-37.5 37.5z" fill="#8d5b4a"/><path d="m359.959 346.51h-74.459c-20.711 0-37.5-16.789-37.5-37.5 0-20.711 16.789-37.5 37.5-37.5h74.459c20.711 0 37.5 16.789 37.5 37.5 0 20.711-16.789 37.5-37.5 37.5z" fill="#7d4d3e"/><path d="m139.167 240.76c-69.406 0-109.119-78.885-69.003-134.621-13.248-73.993 64.41-129.743 129.836-96.112 9.694-6.029 20.91-9.267 32.5-9.267 12.13 0 13.766 13.502 23.711 20.021 52.766-27.332 133.946 1.633 131.226 73.262 8.685 10.871 13.397 24.256 13.397 38.383 0 43.498-45.555 56.902-75.326 50.135-9.659 21.713-31.395 36.533-56.34 36.533-14.471 0-18.326-5.068-29.305-14.162-2.425.652-4.881 11.176-7.362 11.572-10.27 1.645-21.333 1.148-31.984-1.93-15.922 16.565-38.119 26.186-61.35 26.186z" fill="#ade993"/><path d="m335.507 192.56c57.233 13.01 97.695-53.742 61.93-98.517 2.63-69.223-70.942-114.488-131.226-83.262-9.945-6.519-21.581-10.021-33.711-10.021v215.74c2.481-.397 4.938-.916 7.362-1.568 31.322 25.945 79.049 14.935 95.645-22.372z" fill="#76d081"/><path d="m502 502-269.5 10h-232.5v-104.885h232.5l67.237 5c54.989 0 82.738 35.627 98.674 47.393 20.122 17.281 61.316 27.607 89.519 27.607h14.07z" fill="#f0cfa3"/><path d="m512 482.115h-14.07c-28.202 0-69.396-10.326-89.519-27.607-7.63-4.873-42.69-47.393-108.674-47.393h-67.237v104.885h279.5z" fill="#edb986"/></g></svg>