<svg id="Capa_1" enable-background="new 0 0 512 512" height="512" viewBox="0 0 512 512" width="512" xmlns="http://www.w3.org/2000/svg"><g><path d="m195 412.266c-26.17-11.428-57.025-7.117-79.1 12.054-34.018-12.759-70.622 12.358-70.891 48.79h-.009v22.891h2.455v5.775h196.296c0-10.429 0-82.086 0-93.407-6.096-1.572-33.365-2.821-48.751 3.897z" fill="#76d081"/><path d="m290 441.877c0-7.719 0-90.104 0-190.877l-20-10h-30v30h-84c-19.851 0-36-16.149-36-36v-69h-30v69c0 28.652 18.358 53.088 43.925 62.19-4.576 11.495-19.599 16.741-31.758 19.079-47.224 9.082-60.887 49.102-57.023 76.811l29.711-4.16.015.108c-.013-.099-1.187-9.99 2.611-20.227 4.632-12.487 14.56-20.034 30.352-23.07 26.432-5.084 50.306-18.586 56.241-44.73h75.926v140.877c0 29.834-24.186 54.021-54.022 54.021h148.044c-29.836-.001-44.022-24.188-44.022-54.022z" fill="#b57a6a"/><path d="m300 441.877c0-1.214 0-188.457 0-200.877h-30v254.898h84.022c-29.836 0-54.022-24.187-54.022-54.021z" fill="#8d5b4a"/><path d="m434.958 397.709-7.183-14.363-3.315-5.306c-3.81 2.869-7.843 5.526-12.085 7.95-24.547 14.025-55.537.713-62.363-26.591-11.722-46.9 51.871-74.083 77.572-32.965l.829 1.326c18.82-38.972-8.376-70.283-12.491-82.685l26.832-13.416c3.844 10.989 46.107 66.596 3.428 124.531l7.789 12.463 7.819 15.637zm-47.628-60.549c-6.189 2.062-9.796 8.635-8.214 14.963 2.011 8.049 11.146 11.951 18.353 7.832 3.968-2.268 7.643-4.773 11.012-7.48l-6.337-10.139c-5.366-8.59-14.714-5.174-14.814-5.176z" fill="#8d5b4a"/><path d="m331.868 496c0-41.355 33.645-75 75-75s75 33.645 75 75c-18.837 0-134.387 0-150 0z" fill="#56975d"/><path d="m0 481h512v30h-512z" fill="#ade993"/><path d="m269.972 481h242.028v30h-242.028z" fill="#76d081"/><path d="m410 246-140.028 10h-29.972c-33.084 0-60-26.916-60-60 0-27.586 18.157-42.543 19.764-45h70.236c25.824 0 39.567-30.773 22.357-49.995l-22.385-25.005 95.028 10c33.977 0 61.03 17.791 59.971 51.891 58.448 15.068 66.754 108.109-14.971 108.109z" fill="#76d081"/><path d="m480 196c0-27.917-19.166-51.441-45.029-58.109 1.052-33.884-26.205-61.891-59.971-61.891h-105v.031c16.683 20.897 30 27.118 30 44.969 0 16.542-13.458 30-30 30v105h150c33.084 0 60-26.916 60-60z" fill="#56975d"/><path d="m284.971 62.891c1.052-33.884-26.205-61.891-59.971-61.891-10.889 0-79.04 0-90 0-33.769 0-61.022 28.008-59.971 61.891-25.863 6.667-45.029 30.192-45.029 58.109 0 33.084 26.916 60 60 60h180c33.084 0 60-26.916 60-60 0-27.917-19.166-51.441-45.029-58.109z" fill="#ade993"/><path d="m284.971 62.891c.494-15.916-5.26-30.535-14.999-41.564v159.673h.028c33.084 0 60-26.916 60-60 0-27.917-19.166-51.441-45.029-58.109z" fill="#76d081"/></g></svg>