<svg id="Capa_1" enable-background="new 0 0 512 512" height="512" viewBox="0 0 512 512" width="512" xmlns="http://www.w3.org/2000/svg"><g><g><g><path d="m241 465h30v47h-30z" fill="#e8a43e"/></g></g><g><path d="m256 465h15v47h-15z" fill="#e17b47"/></g><path d="m256 480c-44.516 0-81.587-32.488-88.749-74.999-.82-4.861 8.749-8.627 8.749-15.001l-10-15v-21.049c3.141-2.449 34.723-13.039 45.164-51.325l28.201-103.403c1.427-5.234-.069-10.868-3.905-14.705l14.033-14.033c1.676-2.562 3.625-4.972 5.834-7.18l.673.673.673-.673c2.209 2.208 4.157 4.617 5.832 7.178l14.035 14.035c-9.469 9.467-1.96 15.665 14.296 118.107 10.437 38.275 41.976 48.839 45.164 51.325v36.05c0 49.626-65 90-80 90z" fill="#f0ce46"/><path d="m336 390v-1.412l10-13.588v-21.049c-3.141-2.449-34.724-13.039-45.164-51.325l-28.201-103.404c-1.428-5.233.068-10.867 3.905-14.703l-14.035-14.035c-1.675-2.561-3.623-4.97-5.832-7.178l-.673.672v316.022c44.516 0 81.587-32.488 88.75-74.999.822-4.879-8.75-9.891-8.75-15.001z" fill="#e8a43e"/><g><path d="m241 75h-30c0-24.813-20.187-45-45-45v-30c41.355 0 75 33.645 75 75z" fill="#e8a43e"/></g><path d="m166 191.5v-41.5c0-49.626 40.374-90 90-90s80 40.374 80 90v32l-80.441 8.744z" fill="#f6e486"/><path d="m346 375h-180c.208 12.006-.625 18.83 1.257 30h177.486c1.883-11.173 1.049-17.984 1.257-30z" fill="#e8a43e"/><path d="m285.365 306.572-28.2-103.403c-2.849-10.44.117-21.606 7.77-29.258 7.651-7.652 18.816-10.617 29.258-7.77l103.402 28.201c67.707 18.465 90.205 103.185 40.58 152.81-49.625 49.625-134.345 27.127-152.81-40.58z" fill="#efe6ca"/><g><path d="m271 75h30c0-24.813 20.187-45 45-45v-30c-41.355 0-75 33.645-75 75z" fill="#e17b47"/></g><path d="m346 150c0-49.626-40.374-90-90-90v130.75l90 1.25z" fill="#f0ce46"/><path d="m346 375h-90v30h88.743c1.883-11.173 1.049-17.984 1.257-30z" fill="#e17b47"/><g><g><g><path d="m322.33 330h-130.661l20-30h90.661z" fill="#e8a43e"/></g></g><g><path d="m302.33 300h-46.33v30h66.33z" fill="#e17b47"/></g></g><path d="m397.594 194.343-103.402-28.201c-22.47-6.127-43.165 14.535-37.027 37.028l28.2 103.403c18.466 67.707 103.186 90.205 152.81 40.581 49.624-49.626 27.126-134.346-40.581-152.811z" fill="#efe6ca"/><path d="m226.636 306.572 28.2-103.403c2.848-10.44-.117-21.606-7.77-29.258-7.651-7.652-18.817-10.617-29.258-7.77l-103.402 28.201c-67.707 18.465-90.205 103.185-40.581 152.81 49.626 49.625 134.345 27.127 152.811-40.58z" fill="#f5f5f5"/></g></svg>