<svg id="Capa_1" enable-background="new 0 0 512 512" height="512" viewBox="0 0 512 512" width="512" xmlns="http://www.w3.org/2000/svg"><g><path d="m433.5 410-177.5 10h-187.5c-37.22 0-67.5-30.28-67.5-67.5s30.28-67.5 67.5-67.5h3.9c-29.665-44.236 1.853-105 56.1-105h3.9c-27.877-41.57-1.939-98.973 48.6-104.586v-.414c0-41.355 33.645-75 75-75 14.993 0 65 37.645 65 79v.414c33.703 3.743 60 28.401 60 63.086 0 13.864-4.203 36.768-11.4 47.5h3.9c37.22 0 67.5 20.28 67.5 57.5 0 13.864-4.203 36.768-11.4 47.5h3.9c37.22 0 67.5 20.28 67.5 57.5s-30.28 57.5-67.5 57.5z" fill="#ade993"/><path d="m511 352.5c0-37.22-30.28-67.5-67.5-67.5h-3.9c29.664-44.236-1.853-105-56.1-105h-3.9c27.876-41.57 1.939-98.973-48.6-104.586v-.414c0-41.355-33.645-75-75-75v420h187.5c37.22 0 67.5-30.28 67.5-67.5z" fill="#76d081"/><path d="m266 486-1-286-9-5h-15v90.75l-37-27.75-18 24 55 41.25v158.75h-45v30h60l56-4-1-22z" fill="#b57a6a"/><path d="m321.708 343.417-13.416-26.833-37.292 18.645v-43.479l53-39.75-18-24-35 26.25v-59.25h-15v317h60v-30h-45v-113.229z" fill="#8d5b4a"/></g></svg>