<svg id="Capa_1" enable-background="new 0 0 512 512" height="512" viewBox="0 0 512 512" width="512" xmlns="http://www.w3.org/2000/svg"><g><path d="m449.327 190.812c6.787-3.329 11.266-4.707 11.266-4.707s-17.941 48.134-6.055 97.799c9.852 41.168 4.585 61.111 6.055 212.197h-74.999l-10-96.955 10-105.552c0-43.583 24.602-83.588 63.733-102.782z" fill="#44795b"/><path d="m385.594 67.357c-.171.115-63.921 19.122-95.364 88.207 3.695 23.021 0 25.022 0 82.488l4.044 149.698 10 108.351h81.32c-2.078-192.44 5.45-224.397-8.931-284.49-17.532-73.257 8.931-144.254 8.931-144.254z" fill="#56975d"/><path d="m51.407 244.546s13.747 36.882 4.64 74.937c-7.608 31.793-3.478 45.98-4.64 176.618h57.467l10-84.583-10-84.61c0-63.776-57.367-82.277-57.467-82.362z" fill="#ade993"/><path d="m284.835 173.757c-20.491-85.624 13.439-163.608 13.439-163.608s-4.722 2.376-16.423 8.115c-10.42 5.11-17.241 6.077-26.402 12.79-92.609 67.862-79.356 171.733-80.475 176.904v288.144h18.663v.047h102.637c-3.17-217.189 4.878-254.206-11.439-322.392z" fill="#ade993"/><path d="m293.835 173.757c-20.491-85.624 10.439-168.609 10.439-168.609-.108.052-24.259 8.043-48.274 25.511v465.489h48.274c-2.394-214.255 6.325-252.34-10.439-322.391z" fill="#76d081"/><path d="m121.607 158.877c-7.671-3.762-12.733-5.32-12.733-5.32s20.276 54.401 6.843 110.533c-11.095 46.365-5.205 69.564-6.843 232.012h84.763v-221.061c0-49.259-27.805-94.473-72.03-116.164z" fill="#76d081"/><path d="m505 498.852-249 8h-256v-30h255.452l249.548 6z" fill="#8dc2eb"/><path d="m256 476.852h256v30h-256z" fill="#5e9ff6"/></g></svg>