<svg id="Capa_1" enable-background="new 0 0 512 512" height="512" viewBox="0 0 512 512" width="512" xmlns="http://www.w3.org/2000/svg"><g><path d="m195 360v-205.5c0-34.431 27.118-62.647 61.117-64.412 1.12-.059 2.248 9.912 3.383 9.912h55.5v260c-25.25 0-94.24 0-120 0z" fill="#4e6ba6"/><path d="m45 195h30v75h-30z" fill="#b57a6a"/><path d="m238.028 375h-238.028v-120h72.532c53.535 0 103.225 26.593 132.92 71.137z" fill="#f0cfa3"/><path d="m60 210c-33.084 0-60-26.916-60-60v-90c0-33.084 26.916-60 60-60s60 26.916 60 60v90c0 33.084-26.916 60-60 60z" fill="#ade993"/><path d="m315 360v-270c-58.462.037-55.576-.084-59 .098v269.902z" fill="#28487a"/><path d="m360.5 0c-41.577 0-75.5 33.816-75.5 75.5v284.5h187l40-300v-60c-26.876 0-133.291 0-151.5 0z" fill="#5e9ff6"/><path d="m512 375h-122v-241c0-40.804 33.196-74 74-74h48z" fill="#28487a"/><path d="m384.008 375c-22.001 0-165.026 0-179.754 0l-3.93-8.993c-17.907-40.974 11.098-87.297 55.677-89.198.912-.039 2.646 6.107 3.566 6.107 2.49 0 4.963.143 7.414.428 12.231-29.221 41.206-49.178 73.836-49.178 44.112 0 69.183 29.722 69.183 73.834 0 25.397-1.66 48.722-21.99 63.993z" fill="#ade993"/><path d="m388.01 371.993c20.33-15.271 31.99-38.596 31.99-63.993 0-44.112-35.888-80-80-80-32.63 0-61.604 19.957-73.836 49.179-3.676-.428-6.877-.499-10.164-.358v98.179h128.008z" fill="#76d081"/><path d="m502 502-246 10h-256v-66l10-15-10-15v-71h255l247 10z" fill="#8dc2eb"/><path d="m256 345h256v167h-256z" fill="#5e9ff6"/><g><g><path d="m0 416h176.398v30h-176.398z" fill="#5e9ff6"/></g></g><g><g><path d="m206.398 416h30v30h-30z" fill="#5e9ff6"/></g></g></g></svg>