<svg id="Capa_1" enable-background="new 0 0 512 512" height="512" viewBox="0 0 512 512" width="512" xmlns="http://www.w3.org/2000/svg"><g><path d="m235.887 435.004h-102.387c-35.84 0-65-29.157-65-64.996v-24.999h30v24.999c0 19.298 15.701 34.998 35 34.998h102.387z" fill="#8c5c4b"/><path d="m441 194.989c0 107.689-87.5 194.99-185 194.99-107.695 0-195-87.301-195-194.99 0-107.69 87.305-194.989 195-194.989 54.65 0 185 87.299 185 194.989z" fill="#ade993"/><ellipse cx="83.5" cy="285.012" fill="#76d081" rx="75" ry="74.995"/><ellipse cx="421" cy="292.512" fill="#76b77c" rx="82.5" ry="82.495"/><path d="m406 369.758c0 27.706-22.541 50.247-50.25 50.247h-99.75v29.998h99.75c44.25 0 80.25-35.998 80.25-80.245v-9.75h-30z" fill="#7d4d3e"/><path d="m451 194.989c0-107.69-87.305-194.989-195-194.989v389.979c107.695 0 195-87.3 195-194.99z" fill="#76d081"/><path d="m336.287 492.002c-29.836 0-54.022-33.663-54.022-63.497l-9.604-218.488c-9.943 0-40.401 0-50.167 0l-4.438 218.488c0 29.834-24.186 53.497-54.021 53.497h-5.979v29.998h97.944l87.943-9.998v-10c-.25 0-7.819 0-7.656 0z" fill="#b47969"/><path d="m353.943 482.002c-.25 0-7.819 0-7.656 0-29.836 0-54.022-23.663-54.022-53.497l-9.604-218.488h-26.661v301.983h97.943z" fill="#8c5c4b"/><ellipse cx="421" cy="292.512" fill="#56975d" rx="82.5" ry="82.496"/></g></svg>