<svg id="Capa_1" enable-background="new 0 0 512 512" height="512" viewBox="0 0 512 512" width="512" xmlns="http://www.w3.org/2000/svg"><g><path d="m114.5 465c-28.949 0-52.5-23.551-52.5-52.5v-58.587h30v58.587c0 12.407 10.093 22.5 22.5 22.5s22.5-10.093 22.5-22.5v-35.319h30v35.319c0 28.949-23.551 52.5-52.5 52.5z" fill="#b57a6a"/><path d="m226 435c-25.083 0-48.394-12.461-62.356-33.335-5.145-7.691-14.698-11.65-23.775-9.848-52.343 10.383-98.602-35.683-88.186-88.186 1.801-9.076-2.157-18.63-9.848-23.775-44.312-29.64-44.541-94.918 0-124.713 7.691-5.145 11.649-14.699 9.848-23.775-10.374-52.292 35.622-98.613 88.186-88.186 9.08 1.805 18.632-2.157 23.776-9.848 13.961-20.873 37.272-33.334 62.355-33.334s38.395 20.461 52.356 41.334c5.145 7.691 14.7 11.651 23.775 9.848 24.633-4.887 49.928 2.785 67.664 20.522 43.163 43.161 4.294 65.996 30.369 83.439 44.362 29.674 44.48 94.96 0 124.713-26.03 17.413 12.515 41.557-30.369 84.439-17.737 17.737-43.032 25.408-67.664 20.522-9.08-1.801-18.631 2.158-23.775 9.848-13.961 20.874-27.273 40.335-52.356 40.335z" fill="#ade993"/><path d="m288.356 401.665c5.145-7.69 14.695-11.648 23.775-9.848 52.347 10.383 98.601-35.688 88.186-88.186-1.801-9.076 2.157-18.631 9.848-23.775 44.36-29.673 44.482-94.959 0-124.713-7.69-5.145-11.648-14.699-9.848-23.775 10.386-52.351-35.694-98.6-88.186-88.186-9.075 1.803-18.631-2.157-23.775-9.848-13.961-20.873-37.273-33.334-62.356-33.334v435c25.083 0 48.395-12.461 62.356-33.335z" fill="#76d081"/><path d="m470.633 343.913v58.587c0 12.407-10.093 22.5-22.5 22.5h-20.432v30h20.432c28.949 0 52.5-23.551 52.5-52.5v-58.587z" fill="#8d5b4a"/><path d="m404.334 405.978h30v91.021h-30z" fill="#b57a6a"/><path d="m211 125v43.311c-12.24-2.774-23.481-8.924-32.574-18.017l-21.213 21.213c14.788 14.789 33.5 24.224 53.787 27.345v38.518c-11.945-2.713-23.291-8.694-32.574-17.977l-21.213 21.213c15.145 15.145 34.085 24.223 53.787 27.273v35.431c-12.24-2.774-23.481-8.924-32.574-18.017l-21.213 21.213c14.788 14.789 33.5 24.224 53.787 27.345v163.149h15l10-7v-357l-10-8z" fill="#b57a6a"/><path d="m294.787 240.606-21.214-21.213c-9.282 9.283-20.628 15.264-32.573 17.977v-38.518c20.287-3.121 38.999-12.557 53.787-27.345l-21.214-21.213c-9.092 9.092-20.334 15.242-32.573 18.017v-43.311h-15v372h15v-163.147c20.287-3.121 38.999-12.557 53.787-27.345l-21.214-21.213c-9.092 9.092-20.334 15.242-32.573 18.017v-35.432c19.701-3.05 38.642-12.128 53.787-27.274z" fill="#8d5b4a"/><path d="m506 505-280 7h-226v-30h226l280 7z" fill="#ade993"/><path d="m226 482h286v30h-286z" fill="#76d081"/></g></svg>