<svg id="Capa_1" enable-background="new 0 0 510.654 510.654" height="512" viewBox="0 0 510.654 510.654" width="512" xmlns="http://www.w3.org/2000/svg"><g><path d="m124.26 439.868c-13.627 0-27.629 3.027-41.593 1.951l-12.815-.987c-.154-8.111-9.042-73.11 6.893-149.817l1.91-9.194 19.008-4.8-13.391-16.747 2.365-7.603c24.244-77.956 64.346-120.068 68.056-125.638l53.09 13.91-13.645-53.366 7.555-6.049c50.65-40.551 98.99-55.188 104.122-57.542l26.435 19.94 1.182-28.59 10.977-2.669c83.568-20.323 155.172-10.117 163.624-10.017l-.898 13.319c4.803 62.355-8.756 109.48-18.308 152.239l-33.727.246 20.778 34.069c-3.295 7.457-19.223 56.21-53.797 99.395l-6.072 7.584-54.383-14.108 15.115 53.391c-7.372 4.666-32.678 33.382-116.104 61.251l-6.833 2.283-28.771-18.568-5.483 27.742-9.882 1.934c-28.988 5.674-54.031 16.44-85.408 16.441z" fill="#f6e486"/><path d="m20.535 504.29-9.9-4.243-10.606-10.606 345.796-345.796 10.606 10.606 3.536 10.607z" fill="#f0ce46"/><path d="m224.709 432.975 5.483-27.742 28.771 18.569 6.833-2.283c72.863-24.341 112.454-61.91 118.017-65.662l-15.115-53.391 54.383 14.108 6.072-7.584c39.139-48.886 53.794-95.297 56.091-100.198l-23.072-33.266 33.727-.246c1.247-7.821 20.277-66.898 13.121-159.813l-.986-12.807-438.173 438.172 12.807.986c75.848 5.846 121.563-5.752 142.041-8.843z" fill="#f0ce46"/><path d="m-55.675 324.959h489.029v14.993h-489.029z" fill="#e8a43e" transform="matrix(.707 -.707 .707 .707 -179.774 230.912)"/></g></svg>