<svg id="Capa_1" enable-background="new 0 0 512.583 512.583" height="512" viewBox="0 0 512.583 512.583" width="512" xmlns="http://www.w3.org/2000/svg"><g><path d="m226.833 406.05h30v91.252h-30z" fill="#28487a"/><path d="m415.524.302h-15.102v120.748h111.631v-15c.001-58.598-38.97-105.748-96.529-105.748z" fill="#e8a43e"/><path d="m409.034.302h-71.98c-75.807 0-116.471 61.441-116.471 138.748v252h-.653v30c11.007-.785 47.719 4.137 89.516-14.402 66.468-29.48 100.138-97.949 100.138-170.439-.59-253.19-.548-235.043-.55-235.907z" fill="#bed9fd"/><path d="m165.583 406.05h30v91.252h-30z" fill="#4e6ba6"/><path d="m422.583 479.731c-17.461-6.19-30-22.872-30-42.43v-26.747h-30v26.747c0 36.22 25.808 66.523 60 73.491l10-16.36z" fill="#b57a6a"/><path d="m437.583 512.302h-15v-45c0-41.355 33.645-75 75-75h15v45c0 41.355-33.645 75-75 75z" fill="#56975d"/><path d="m.054 482.302h512v30h-512z" fill="#ade993"/><path d="m219.93 482.302h292.124v30h-292.124z" fill="#76d081"/><path d="m320.583 61.05h30v30h-30z" fill="#3d6def"/><path d="m215.694 421.05c-.142 0-215.466-.551-215.583-.551.949-3.705-9.085-65.359 50.403-92.309-5.459-40.309 22.469-76.898 61.651-83.145 64.088-130.935 166.515-116.241 174.918-118.702 12.958 0 23.5 10.543 23.5 23.5v176.318c0 52.321-42.567 94.889-94.889 94.889z" fill="#8dc2eb"/><path d="m287.083 126.343c-4.225 1.237-32.218-1.854-67.153 11.396v283.211c50.363-2.224 90.653-43.889 90.653-94.789v-176.318c0-12.957-10.542-23.5-23.5-23.5z" fill="#5e9ff6"/><path d="m243.642 215.011h-114.612c-5.978 9.279-11.597 19.276-16.846 30h131.458z" fill="#5e9ff6"/><path d="m219.93 215.011h23.712v30h-23.712z" fill="#3d6def"/><path d="m195.583 298.177h-142.985c-2.8 10.012-3.408 20.217-2.084 30h145.07v-30z" fill="#5e9ff6"/></g></svg>