<svg id="Capa_1" enable-background="new 0 0 512 512" height="512" viewBox="0 0 512 512" width="512" xmlns="http://www.w3.org/2000/svg"><g><path d="m104.431 92.264h29.986v195h-29.986z" fill="#b57a6a"/><path d="m308.355 321.669h-29.986v-60h14.993l11.993 3z" fill="#b57a6a"/><path d="m293.362 261.669h14.993v60h-14.993z" fill="#8d5b4a"/><path d="m304.857 315.901-11.495-10h-63.083c-13.135-23.524-37.791-38.233-65.356-38.233h-164.923v128.233h379.822l-10-15c0-41.355-23.63-65-64.965-65z" fill="#f0cfa3"/><path d="m304.857 305.901h-11.495v90h86.46v-15c0-41.355-33.63-75-74.965-75z" fill="#edb986"/><path d="m293.362 106.669c-20.701 0-37.482 16.789-37.482 37.5v95.934c0 20.71 16.781 37.5 37.482 37.5s34.482-16.79 34.482-37.5c0-33.987 0-60.74 0-95.934.001-20.711-13.781-37.5-34.482-37.5z" fill="#ade993"/><path d="m293.362 106.669v170.934c20.701 0 37.482-16.79 37.482-37.5 0-33.987 0-60.74 0-95.934.001-20.711-16.781-37.5-37.482-37.5z" fill="#76d081"/><path d="m512 77.415h-59.481v-15c0-16.678-13.561-30.246-30.231-30.246s-30.232 13.568-30.232 30.246v15h-54.974v-30h26.877c15.436-60.049 101.19-60.173 116.657 0h31.384z" fill="#d9e6fc"/><path d="m215.376 95.364 19.478-22.81c-24.351-20.814-56.693-26.302-85.233-17.437 14.566-18.826 37.827-28.29 73.564-17.494l8.668-28.719c-45.27-13.678-87.164-3.443-111.909 36.63-24.734-40.058-66.62-50.314-111.91-36.63l8.669 28.719c31.121-9.4 58.953-5.102 76.603 21.758-30.977-9.664-65.991-2.245-90.5 22.276l21.203 21.213c14.812-14.819 35.587-20.488 55.34-16.166-29.544 14.771-49.883 45.331-49.883 80.559h29.986c0-33.084 26.903-60 59.972-60 33.068 0 59.972 26.916 59.972 60h29.986c0-36.822-22.221-68.544-53.948-82.466 19.753-7.346 42.814-4.073 59.942 10.567z" fill="#ade993"/><path d="m512 425.669-10-49.768-208.638-10h-293.362v143.768h293.362l208.638-10 10-44-5.997-11.25v-7.5z" fill="#8dc2eb"/><g fill="#5e9ff6"><path d="m512 425.669v-59.768h-218.638v143.768h218.638v-54l-5.997-11.25v-7.5z"/><path d="m159.925 425.669h89.958v30h-89.958z"/><path d="m89.958 425.669h29.986v30h-29.986z"/></g><path d="m404.81 425.669h107.19v30h-107.19z" fill="#3d6def"/></g></svg>