<svg id="Capa_1" enable-background="new 0 0 512 512" height="512" viewBox="0 0 512 512" width="512" xmlns="http://www.w3.org/2000/svg"><g><path d="m211 300.041h-127.5c-37.22 0-67.5-30.274-67.5-67.487 0-31.554 21.771-58.12 51.085-65.469-14.245-26.853-2.517-59.978 24.809-72.356 4.92-28.163 29.551-49.639 59.106-49.639 31.136 0 56.808 23.832 59.724 54.21 22.089 15.161 29.074 44.442 16.691 67.786 29.315 7.348 51.085 33.914 51.085 65.468 0 37.213-30.28 67.487-67.5 67.487z" fill="#ade993"/><path d="m136 225.055h30v136.974h-30z" fill="#b57a6a"/><ellipse cx="376" cy="135.073" fill="#76d081" rx="75.332" ry="136.391"/><path d="m361 135.073h30v181.965h-30z" fill="#8d5b4a"/><path d="m502 502.002-201 9.998h-301v-44.991c0-33.078 26.916-59.989 60-59.989h16c0-33.078 26.916-59.988 60-59.988h106.898c6.677-25.845 30.195-44.991 58.102-44.991l96 9.998c33.084 0 60 26.911 60 59.988v46.889c25.85 6.676 45 20.191 45 48.093z" fill="#f0cfa3"/><path d="m467 408.918v-16.896l-10-15.772 10-14.221c0-33.078-26.916-59.988-60-59.988h-106v209.959h211v-44.991c0-27.902-19.15-51.415-45-58.091z" fill="#edb986"/><path d="m166 422.017h30v29.994h-30z" fill="#f5f5f5"/><path d="m226 422.017h150v29.994h-150z" fill="#f5f5f5"/><g fill="#efe6ca"><path d="m301 422.017h75v29.994h-75z"/><path d="m331 362.029h136v29.994h-136z"/></g></g></svg>