<svg id="Capa_1" enable-background="new 0 0 512 512" height="512" viewBox="0 0 512 512" width="512" xmlns="http://www.w3.org/2000/svg"><g><path d="m330.26 60h30v225h-30z" fill="#b57a6a"/><path d="m330.26 60h30v225h-30z" fill="#8d5b4a"/><path d="m211 195h30v90h-30z" fill="#ade993"/><path d="m271 225h30v60h-30z" fill="#76d081"/><path d="m211 482v30h-211v-269.063c1.673-.011 75.185-21.322 102.654 12.581 18.678 23.05 18.562 43.755 25.613 55.639 7.159 12.061 20.58 19.289 34.984 18.846 33.423-1 64.479 16.67 80.862 45.239 7.014 12.228 17.808 16.095 17.907 16.162l1.675 1.116z" fill="#f0cfa3"/><path d="m211 195h30v90h-30z" fill="#ade993"/><path d="m30 255h-30v-105h63.334c48.339 0 87.666 39.327 87.666 87.667v47.333h-30c-24.728-8.152-76.541-25.233-91-30z" fill="#f0cfa3"/><circle cx="61" cy="60" fill="#f6e486" r="60"/><path d="m106 270h300v150.669h-300z" fill="#8dc2eb"/><path d="m256 270h150v150.669h-150z" fill="#5e9ff6"/><path d="m441.256 78.1 19.488-22.81c-34.339-29.338-83.609-28.053-116.287-.534-35.131-25.066-84.365-21.867-115.87 9.638l21.213 21.212c14.989-14.988 35.996-20.356 55.312-16.139-29.528 14.781-49.852 45.326-49.852 80.533h30c0-33.084 26.916-60 60-60s60 26.916 60 60h30c0-36.822-22.232-68.544-53.974-82.466 19.763-7.347 42.834-4.075 59.97 10.566z" fill="#76d081"/><path d="m211 482v30h-211v-269.063c1.673-.011 75.185-21.322 102.654 12.581 18.678 23.05 18.562 43.755 25.613 55.639 7.159 12.061 20.58 19.289 34.984 18.846 33.423-1 64.479 16.67 80.862 45.239 7.014 12.228 17.808 16.095 17.907 16.162l1.675 1.116z" fill="#4e6ba6"/><path d="m512 512h-331v-62c0-15.608 7.917-43.599 60.939-55.7 10.981-2.506 20.439-9.452 25.946-19.058 16.367-28.54 47.409-46.242 80.861-45.239 14.414.435 27.827-6.785 34.985-18.847 2.5-4.211 4.082-9.461 5.915-15.54 14.247-47.264 34.947-71.748 122.353-52.68v269.064z" fill="#28487a"/><path d="m512 242.937c-87.418-19.071-108.104 5.411-122.353 52.68-1.833 6.079-3.415 11.329-5.915 15.54-7.158 12.062-20.571 19.281-34.985 18.847-33.413-1.001-64.475 16.666-80.861 45.239-2.95 5.145-7.041 9.517-11.885 12.862v123.895h256v-269.063z" fill="#233d5c"/></g></svg>