<svg id="Capa_1" enable-background="new 0 0 512 512" height="512" viewBox="0 0 512 512" width="512" xmlns="http://www.w3.org/2000/svg"><g><path d="m359.181 90c-57.99 0-105 47.01-105 105v120c0 57.99 47.01 105 105 105 43.356 0 95-47.01 95-105 0-12.691 0-107.223 0-120 0-57.99-53.199-105-95-105z" fill="#f6e486"/><path d="m466 315c0-12.691 0-107.223 0-120 0-58.333-47.724-105.976-106.819-104.977v329.954c59.164 1.001 106.819-46.712 106.819-104.977z" fill="#f0ce46"/><path d="m151 0c-57.99 0-105 47.01-105 105v210c0 57.99 47.01 105 105 105 35.284 0 95-47.01 95-105 0-10.384 0-199.608 0-210 0-57.99-52.982-105-95-105z" fill="#ade993"/><path d="m256 315c0-10.384 0-199.608 0-210 0-57.99-47.01-105-105-105v420c57.99 0 105-47.01 105-105z" fill="#76d081"/><path d="m136 120v45.351c-7.926-2.416-15.188-6.753-21.213-12.778l-21.213 21.214c11.74 11.74 26.446 19.426 42.426 22.394v45.99c-7.926-2.416-15.188-6.753-21.213-12.777l-21.213 21.213c11.74 11.74 26.446 19.426 42.426 22.394v45.99c-7.926-2.415-15.188-6.753-21.213-12.778l-21.213 21.214c11.74 11.74 26.446 19.426 42.426 22.394v147.179h30v-377z" fill="#b57a6a"/><path d="m208.426 250.606-21.213-21.213c-6.024 6.025-13.287 10.362-21.213 12.778v-45.99c15.979-2.968 30.686-10.654 42.426-22.395l-21.213-21.213c-6.024 6.025-13.287 10.362-21.213 12.778v-45.351h-15v377h15v-147.179c15.979-2.968 30.686-10.654 42.426-22.395l-21.213-21.213c-6.024 6.025-13.287 10.362-21.213 12.778v-45.99c15.979-2.968 30.686-10.653 42.426-22.395z" fill="#8d5b4a"/><path d="m346 206.794v44.671c-8.633-2.283-16.551-6.802-23.033-13.285l-21.213 21.213c12.186 12.185 27.565 20.002 44.246 22.709v46.183c-8.633-2.284-16.551-6.803-23.033-13.285l-21.213 21.213c12.186 12.185 27.565 20.002 44.246 22.71v138.077h30v-290.206z" fill="#b57a6a"/><path d="m395.395 315c-5.56 5.56-12.178 9.675-19.395 12.177v-45.747c15.275-3.201 29.314-10.743 40.607-22.036l-21.213-21.214c-5.56 5.561-12.178 9.675-19.395 12.178v-43.564h-16.819v290.206h16.82v-138.75c15.275-3.201 29.314-10.743 40.607-22.036z" fill="#8d5b4a"/><path d="m415 507-159 5h-191v-30h191l159 5z" fill="#ade993"/><path d="m256 482h165v30h-165z" fill="#76d081"/></g></svg>