<svg id="Capa_1" enable-background="new 0 0 512 512" height="512" viewBox="0 0 512 512" width="512" xmlns="http://www.w3.org/2000/svg"><g><path d="m361 0v65.208c-25.054-28.35-57.616-18.162-75-20.296 0 33.072 26.863 59.883 60 59.883h15v80.179c-25.054-28.348-57.625-18.163-75-20.295 0 33.071 26.863 59.883 60 59.883h15v137.73h15l9-6.986v-348.32l-9-6.986z" fill="#ade993"/><path d="m406 149.708c33.137 0 60-26.811 60-59.884-17.585 2.158-49.926-8.075-75 20.296v-110.12h-15v149.708 119.766 92.818h15v-92.818h15c33.137 0 60-26.811 60-59.883-17.602 2.16-49.926-8.076-75 20.295v-80.178z" fill="#76d081"/><path d="m121 0v65.208c-25.054-28.35-57.616-18.162-75-20.296 0 33.072 26.863 59.883 60 59.883h15v80.179c-25.054-28.348-57.625-18.163-75-20.295 0 33.071 26.863 59.883 60 59.883h15v137.73h15l11-6.986v-348.32l-11-6.986z" fill="#ade993"/><path d="m166 149.708c33.137 0 60-26.811 60-59.884-17.585 2.158-49.925-8.075-75 20.296v-110.12h-15v149.708 119.766 92.818h15v-92.818h15c33.137 0 60-26.811 60-59.883-17.602 2.16-49.925-8.076-75 20.295v-80.178z" fill="#76d081"/><path d="m502 505.014-246 6.986h-256v-44.912c0-33.02 26.916-59.883 60-59.883h1.507c6.969-34.124 37.275-59.884 73.493-59.884h121l111 6.986c36.219 0 66.523 25.76 73.493 59.884 1.768.37 61.507-3.543 61.507 45.91z" fill="#f0cfa3"/><path d="m512 467.088c0-33.02-26.916-59.883-60-59.883h-1.507c-6.97-34.124-37.274-59.884-73.493-59.884h-121v164.679h256z" fill="#edb986"/><g><g><g><path d="m166 407.205h30v29.941h-30z" fill="#f5f5f5"/></g></g></g><g><g><g><path d="m226 407.205h150v29.941h-150z" fill="#f5f5f5"/></g></g></g><g><g><g><path d="m256 407.205h120v29.941h-120z" fill="#efe6ca"/></g></g></g></g></svg>