<svg id="Capa_1" enable-background="new 0 0 512 512" height="512" viewBox="0 0 512 512" width="512" xmlns="http://www.w3.org/2000/svg"><g><path d="m226 241.476h30v75h-30z" fill="#ade993"/><path d="m285 271.476h30v45h-30z" fill="#76d081"/><path d="m120 271.476c-93.694 0-139.973-113.894-74.083-179.412-3.818-22.117 4.453-42.772 19.727-58.957 21.567-22.852 51.881-31.425 54.356-32.583 2.582 1.207 22.716 9.653 44.355 32.582 15.287 16.198 23.542 36.854 19.728 58.957 19.756 19.645 30.917 46.266 30.917 74.413 0 57.897-37.103 105-95 105z" fill="#ade993"/><path d="m194.083 92.063c3.815-22.103-4.44-42.759-19.728-58.957-21.639-22.928-51.773-31.375-54.355-32.582l-.002.001v270.95h.002c57.897 0 105-47.102 105-105 0-28.146-11.161-54.767-30.917-74.412z" fill="#76d081"/><g><g><path d="m133 316.476h-28v-165h30z" fill="#b57a6a"/></g></g><path d="m119.998 151.476h15.002v165h-15.002z" fill="#8d5b4a"/><path d="m390.002 271.476c-93.694 0-139.973-113.894-74.083-179.412-3.818-22.117 4.453-42.772 19.728-58.957 21.566-22.851 51.881-31.425 54.355-32.582 2.583 1.207 22.716 9.653 44.355 32.582 15.287 16.198 23.542 36.854 19.728 58.957 19.756 19.645 30.917 46.266 30.917 74.412 0 57.897-37.102 105-95 105z" fill="#76d081"/><path d="m464.085 92.063c3.815-22.103-4.44-42.759-19.728-58.957-21.639-22.929-51.773-31.375-54.355-32.582 0 0-.002.001-.002.001v270.95h.002c57.897 0 105-47.102 105-105 0-28.146-11.161-54.767-30.917-74.412z" fill="#56975d"/><g><g><g><path d="m403.002 316.476h-28v-165h30z" fill="#8d5b4a"/></g></g></g><path d="m390 151.476h15.002v165h-15.002z" fill="#7d4d3e"/><path d="m506 504.476-250 7h-256v-120.001l9-15-9-14.999v-60h256l250 7z" fill="#8dc2eb"/><g fill="#5e9ff6"><path d="m512 511.476h-256v-210h256v120l-7 15 7 15z"/><path d="m75 421.476h30v30h-30z"/><path d="m0 361.476h60v30h-60z"/><path d="m135 421.476h195v30h-195z"/></g><path d="m256 421.476h74v30h-74z" fill="#3d6def"/><path d="m256 361.476h164v30h-164z" fill="#3d6def"/><path d="m90 361.476h90v30h-90z" fill="#5e9ff6"/><path d="m360 421.476h30v30h-30z" fill="#3d6def"/><path d="m420 421.476h92v30h-92z" fill="#3d6def"/></g></svg>