<svg id="Capa_1" enable-background="new 0 0 512 512" height="512" viewBox="0 0 512 512" width="512" xmlns="http://www.w3.org/2000/svg"><g><g><path d="m333.928 410.958c26.971-18.663 65.034-6.668 75.773 25.205 9.184-5.716 34.738-6.088 46.348-6.088 0-36.328 15.044-66.564 48.951-73.521l-3 145.434h-118.783 34.747l-161.964 10.012c-12.196 0-233.948 0-256 0v-168.462c34.233 6.957 61 37.258 61 73.586 11.609 0 22.441 3.311 31.625 9.026 10.732-31.853 48.789-43.878 75.773-25.204h87.602z" fill="#76d081"/><path d="m512 512v-168.462c-33.907 6.957-60.674 37.258-60.674 73.586-11.609 0-22.441 3.311-31.625 9.026-10.732-31.852-48.79-43.88-75.773-25.203h-87.928v111.053z" fill="#56975d"/></g><path d="m256.07 450.552h-.142c-66.128 0-119.928-53.867-119.928-120.077v-210.4c0-66.21 53.8-120.075 119.929-120.075h.142c43.029 0 109.929 53.865 109.929 120.075v210.399c0 66.211-59.648 120.078-109.93 120.078z" fill="#ade993"/><path d="m376 330.475v-210.4c0-66.21-53.8-120.075-119.93-120.075h-.07v450.552h.07c66.13 0 119.93-53.867 119.93-120.077z" fill="#76d081"/><path d="m60 120.147c-33.084 0-60-26.949-60-60.074 0-33.124 26.916-60.073 60-60.073s60 26.949 60 60.073c0 33.125-26.916 60.074-60 60.074z" fill="#f6e486"/><g><path d="m241 120.147v68.872l-19.394-19.418-21.212 21.238 40.606 40.657v32.614l-19.394-19.418-21.212 21.239 40.606 40.657v32.614l-19.394-19.418-21.212 21.239 40.606 40.658v130.319h15l11-8.01v-375.833l-11-8.01z" fill="#b57a6a"/><path d="m311.606 265.931-21.213-21.238-19.393 19.417v-32.614l40.606-40.657-21.213-21.238-19.393 19.418v-68.871h-15v391.853h15v-130.32l40.606-40.657-21.213-21.239-19.393 19.417v-32.614z" fill="#8d5b4a"/></g></g></svg>