<svg id="Capa_1" enable-background="new 0 0 512 512" height="512" viewBox="0 0 512 512" width="512" xmlns="http://www.w3.org/2000/svg"><g><g fill="#ade993"><path d="m104.841 162.671c-51.77 29.949-58.856 101.211-15 140.94v108.389h20v-108.389c17.709-16.042 28.841-39.213 28.841-64.991.001-32.454-7.633-60.788-33.841-75.949z"/><path d="m441 238.62c0-32.454-7.633-60.788-33.841-75.949-51.77 29.949-58.856 101.211-15 140.94v108.389h20v-108.389c17.709-16.043 28.841-39.213 28.841-64.991z"/><path d="m289.841 238.62c0-32.454-7.634-60.788-33.841-75.949-51.77 29.949-58.856 101.211-15 140.94v108.389h20v-108.389c17.709-16.043 28.841-39.213 28.841-64.991z"/></g><path d="m407.159 162.671v249.329h15v-108.389c43.81-39.687 36.817-110.964-15-140.94z" fill="#76d081"/><path d="m104.841 162.671v249.329h15v-108.389c43.81-39.687 36.818-110.964-15-140.94z" fill="#76d081"/><path d="m256 162.671v249.329h15v-108.389c43.81-39.687 36.817-110.964-15-140.94z" fill="#76d081"/><path d="m467 130h-100c-24.813 0-45-20.187-45-45 0-23.209 17.66-42.371 40.249-44.751 2.38-22.589 21.541-40.249 44.751-40.249 23.123 0 42.228 17.532 44.724 40h15.276c24.813 0 45 20.187 45 45s-20.187 45-45 45z" fill="#8dc2eb"/><circle cx="60" cy="60" fill="#f6e486" r="60"/><path d="m256 397h256v115h-256z" fill="#edb986"/><path d="m502 502-246 10h-256v-62l10-15-10-15v-60h256l246 10z" fill="#f0cfa3"/><path d="m512 512h-256v-152h256v37l-10 9.511 10 13.489z" fill="#edb986"/><path d="m0 420h512v30h-512z" fill="#edb986"/><path d="m256 420h256v30h-256z" fill="#b57a6a"/></g></svg>