<svg id="Capa_1" enable-background="new 0 0 512 512" height="512" viewBox="0 0 512 512" width="512" xmlns="http://www.w3.org/2000/svg"><g><path d="m226.054 429.766c-77.125 10.96-143.185-55.013-132.214-132.214 77.127-10.96 143.183 55.015 132.214 132.214z" fill="#ade993"/><path d="m226.054 171.107c-77.125 10.96-143.185-55.013-132.214-132.214 77.127-10.96 143.183 55.016 132.214 132.214z" fill="#ade993"/><path d="m285.946 429.766c77.127 10.96 143.185-55.016 132.214-132.214-77.127-10.96-143.183 55.015-132.214 132.214z" fill="#76d081"/><path d="m285.946 248.382c77.127 10.961 143.185-55.016 132.214-132.214-77.128-10.96-143.183 55.017-132.214 132.214z" fill="#76d081"/><path d="m226.097 0v269.975l-80.397-66.998-19.205 23.047c20.165 16.814 93.099 77.628 99.603 83.051v202.925h30l22-8v-496l-22-8z" fill="#b57a6a"/><path d="m256.097 512h30v-400.79l10.605-10.605.002.001 60-60-21.213-21.212-21.896 21.895-.001-.001-27.497 27.496v-68.784h-30z" fill="#8d5b4a"/></g></svg>