<svg id="Capa_1" enable-background="new 0 0 512.062 512.062" height="512" viewBox="0 0 512.062 512.062" width="512" xmlns="http://www.w3.org/2000/svg"><g><g fill="#8d5b4a"><path d="m354.413 437.082h29.971v60.009h-29.971z"/><path d="m414.475 452.084h29.971v45.007h-29.971z"/><path d="m444.461 396.769-7.19-14.366-3.338-5.336c-6.172 4.649-10.83 7.173-12.284 8.062-24.456 13.845-55.393.621-62.22-26.669-11.688-46.707 51.809-74.166 77.598-32.946l.861 1.376c18.897-39.015-8.372-70.389-12.483-82.776l26.808-13.392c2.579 9.498 46.759 65.783 3.421 124.536l7.808 12.48 7.826 15.64zm-47.734-60.567c-6.19 2.062-9.811 8.651-8.223 14.996 2.021 8.07 11.186 11.982 18.416 7.852 1.291-.806 5.439-2.988 11.051-7.499l-6.36-10.166c-5.391-8.62-14.784-5.181-14.884-5.183z"/></g><path d="m147.016 421.128c-7.519-1.741-28.24-.555-49.446-17.294-46.196 8.397-88.515-27.226-88.515-73.769 0-63.085 73.237-97.273 121.666-58.772 54.589-9.895 79.5 38.204 82.015 40.56l-9.69 9.019c-46.983 43.734-53.344 93.531-56.03 100.256z" fill="#ade993"/><path d="m52.555 106.001c-28.962 0-52.524-23.541-52.524-52.478 0-28.936 23.562-52.479 52.524-52.479s52.525 23.542 52.525 52.479-23.563 52.478-52.525 52.478z" fill="#f6e486"/><path d="m376.876 216.316c-4.161-3.311-5.351-4.886-15.211-14.429l-10.491 10.278c-11.309 11.08-26.246 17.18-42.064 17.18-28.71 0-41.988-18.296-52.624-25.175-11.289 19.343-22.168 52.665-61.621 84.198-25.028 20.004-45.595 45.834-59.479 74.695-29.692 61.718-18.915 101.21-21.223 138.998h135.08c0-16.801 0-68.467 0-85.635-5.564-4.084-15.016-11.695-15.016-26.353 0-11.004 5.953-20.644 14.81-25.875 12.44-7.346 5.995-7.166 24.502-5.757 13.343-20.074 23.23-35.971 39.552-49.016 56.632-45.264 65.37-83.599 69.312-89.985z" fill="#b57a6a"/><path d="m501.377 502.082-252.798 9.98h-225.204v-29.944h225.204l252.798 9.982z" fill="#ade993"/><path d="m249.244 482.118h262.787v29.944h-262.787z" fill="#76d081"/><path d="m275.474 360.839c3.265-4.283 15.642-27.041 43.224-49.088 49.667-39.695 64.236-86.97 67.403-92.546-22.639-18.251-4.835-3.529-24.21-21.585l-10.491 10.279c-21.797 21.354-55.809 22.906-79.41 4.146l-15.277-12.142-7.468 17.143v147.042c11.088-6.433 20.457-3.183 26.229-3.249z" fill="#8d5b4a"/><path d="m351.9 228.139c-15.227 10.975-33.462 16.903-52.555 16.903-19.092 0-27.339-5.929-42.565-16.903-2.438 1.757-4.953 13.365-7.536 14.862-59.006 34.142-135.081-8.118-135.081-77.961 0-33.464 18.432-63.803 47.579-79.363 9.486-35.48 43.425-58.996 80.137-55.236 20.119-22.702 33.362-20.414 57.466-20.414 29.022 0 56.17 14.201 72.933 37.216 44.103-21.03 114.727 3.477 106.626 67.195 10.11 14.852 15.613 32.569 15.613 50.603 0 73.789-90.241 100.854-142.617 63.098z" fill="#ade993"/><path d="m361.891 238.12c58.443 42.132 142.618.941 142.618-73.08 0-18.033-5.504-35.751-15.614-50.603 7.493-58.934-53.682-102.42-106.626-77.177-31.399-43.11-93.067-50.054-133.024-14.312v220.032c2.581-1.495 5.101-3.106 7.537-4.862 31.273 22.543 73.806 22.563 105.109.002z" fill="#76d081"/><path d="m264.289 332.004c-5.395 0-8.09-1.691-14.158-.225-60.457 14.658-61.178 100.965-.711 116.412 1.572.402 3.306-1.141 3.515.228 3.964.83 7.147-.129 11.354-.129 33.103 0 57.256-25.254 57.256-58.326 0-33.071-24.153-57.96-57.256-57.96z" fill="#ade993"/><path d="m324.321 390.074c0-39.182-37.189-67.915-75.077-58.059v116.127c37.502 9.846 75.077-18.633 75.077-58.068z" fill="#76d081"/></g></svg>