<svg id="Capa_1" enable-background="new 0 0 512 512" height="512" viewBox="0 0 512 512" width="512" xmlns="http://www.w3.org/2000/svg"><g><path d="m321.332 484.473c-14.7-5.598-25.174-19.829-25.174-36.468v-73.987c-18.989 0-71.236 0-90.209 0v68.988c0 21.513-17.505 39.015-39.021 39.015-9.667 0-36.228 0-45.874 0v29.979h135l133-3.997v-20.985z" fill="#b57a6a"/><path d="m345.179 482.021c-21.517 0-39.021-17.502-39.021-39.015v-68.988c-4.94 0-44.532 0-50.104 0v137.981h135v-29.979c-9.647.001-36.209.001-45.875.001z" fill="#8d5b4a"/><path d="m97.554 450.027c-37.22 0-67.5-30.275-67.5-67.488v-87.82h30v87.82c0 20.674 16.822 37.493 37.5 37.493 20.677 0 37.499-16.819 37.499-37.493v-54.406h30v54.406c0 37.213-30.28 67.488-67.499 67.488z" fill="#b57a6a"/><path d="m159.593 344.849c-16.699-1.204-32.349-7.906-44.69-19.032-60.522 21.193-118.633-38.939-94.384-98.886-45.849-52.252-9.323-132.053 54.932-136.695 4.726-.341 19.6 9.722 24.603 10.234-.04-10.539-8.386-30.406-5.348-39.463 19.108-56.981 92.955-81.894 143.949-39.95 26.352-23.429 32.635-10.954 50.898-10.954 29.744 0 56.357 15.607 70.951 40.284 12.977-6.643 27.766-10.289 42.549-10.289 79.424 0 100.109 74.578 72.561 123.862 42.249 32.182 37.186 111.097-37.06 111.097-6.195 0-12.344-.856-18.266-2.522-9.809 17.822-25.906 32.304-45.13 40.406-6.342 29.648-32.006 53.432-71.434 51.932-15.306 8.368-28.027 23.261-47.673 24.034-37.269 1.464-80.479-12.689-96.458-44.058z" fill="#ade993"/><path d="m452.053 367.541c0 12.405-10.093 22.496-22.5 22.496s-22.5-10.091-22.5-22.496v-67.508h-30v67.508c0 28.944 23.551 52.491 52.5 52.491s52.5-23.547 52.5-52.491v-102.541h-30z" fill="#8d5b4a"/><path d="m381.157 322.94c19.223-8.102 35.321-22.584 45.13-40.406 43.127 12.124 85.713-20.476 85.713-64.966 0-21.48-9.925-41.067-26.387-53.607 43.039-76.997-40.144-165.022-121.109-123.571-22.114-37.394-69.618-51.176-108.451-31.329v379.847c19.644-.773 38.366-5.669 53.67-14.036 39.747 1.512 65.161-22.609 71.434-51.932z" fill="#76d081"/><path d="m430.591 1.522c0 90.104-77.35 164.17-173.309 164.17-73.358 0-136.851-44.943-162.101-106.061-3.161 9.288-4.166 20.67-4.127 30.84-5.01-.513-9.621-.656-14.603-.236 33.827 62.475 102.247 105.452 180.831 105.452 112.321 0 201.308-87.346 201.308-194.166h-27.999z" fill="#eef4ff"/><path d="m429.538.013v1.421c0 89.953-77.07 164.197-173.538 164.197v30c113.113 0 203.538-87.804 203.538-194.197v-1.421z" fill="#d9e6fc"/></g></svg>