<svg id="Capa_1" enable-background="new 0 0 512 512" height="512" viewBox="0 0 512 512" width="512" xmlns="http://www.w3.org/2000/svg"><g><path d="m112.5 195h30v75h-30z" fill="#b57a6a"/><path d="m37.5 195h30v75h-30z" fill="#b57a6a"/><path d="m369.5 195h30v75h-30z" fill="#8d5b4a"/><path d="m444.5 179.263h30v90.737h-30z" fill="#8d5b4a"/><path d="m54.5 0c-20.711 0-37.5 16.789-37.5 37.5v135c0 20.711 16.789 37.5 37.5 37.5s37.5-16.789 37.5-37.5c0-44.706 0-95.161 0-135 0-20.711-16.789-37.5-37.5-37.5z" fill="#ade993"/><path d="m129.5 60c-20.711 0-37.5 16.789-37.5 37.5v75c0 20.711 16.789 37.5 37.5 37.5s37.5-16.789 37.5-37.5c0-22.611 0-52.398 0-75 0-20.711-16.789-37.5-37.5-37.5z" fill="#76d081"/><path d="m461.5 0c-20.711 0-37.5 16.789-37.5 37.5v120c0 20.711 16.789 37.5 37.5 37.5s37.5-16.789 37.5-37.5c0-36.838 0-83.132 0-120 0-20.711-16.789-37.5-37.5-37.5z" fill="#56975d"/><path d="m386.5 60c-20.711 0-37.5 16.789-37.5 37.5v75c0 20.711 16.789 37.5 37.5 37.5s37.5-16.789 37.5-37.5c0-9.659 0-67.208 0-75 0-20.711-16.789-37.5-37.5-37.5z" fill="#76d081"/><path d="m211 345h-203l-8-30v-60h136c41.355 0 75 33.645 75 75z" fill="#f0cfa3"/><path d="m505 345h-204v-15c0-41.355 33.645-75 75-75h136v60z" fill="#edb986"/><path d="m505 504-249 8h-256v-60l10-15-10-15v-107h256l249 7z" fill="#8dc2eb"/><path d="m512 512h-256v-197h256v70l-8 15 8 15z" fill="#5e9ff6"/><path d="m341 385h171v30h-171z" fill="#3d6def"/><path d="m0 422h167v30h-167z" fill="#5e9ff6"/><path d="m281 385h30v30h-30z" fill="#3d6def"/></g></svg>