<svg id="Capa_1" enable-background="new 0 0 512 512" height="512" viewBox="0 0 512 512" width="512" xmlns="http://www.w3.org/2000/svg"><g><path d="m165.838 225.001h29.971v75h-29.971z" fill="#b57a6a"/><path d="m421.588 315.001c-49.577 0-89.912-40.374-89.912-90s40.335-89.999 89.912-89.999c106.65 0 106.62 179.999 0 179.999z" fill="#76d081"/><path d="m511.5 225.001c0-49.626-40.334-89.999-89.912-89.999v179.999c49.578 0 89.912-40.374 89.912-90z" fill="#56975d"/><path d="m406.603 240.001h29.971v134.999h-29.971z" fill="#8d5b4a"/><path d="m421.588 240.001h14.985v134.999h-14.985z" fill="#7d4d3e"/><path d="m363.668 370c-25.912 0-50.059-11.616-66.245-31.869-13.067-16.351-29.968-38.542-48.922-45.718-12.819-4.853-26.579-7.412-40.728-7.412h-207.191v226.999h247.918l173.088-10h80.412v-132c-21.221 0-101.884 0-138.332 0z" fill="#8dc2eb"/><path d="m363.668 360c-25.912 0-50.059-11.616-66.245-31.869-13.067-16.351-29.969-28.538-48.923-35.714v219.583h263.5v-152c-15.557 0-129.449 0-148.332 0z" fill="#5e9ff6"/><path d="m52.449 232.5h29.971v67.501h-29.971z" fill="#b57a6a"/><path d="m67.435 232.5h14.985v67.501h-14.985z" fill="#8d5b4a"/><path d="m0 180.001v-112.5c0-80.318 124.878-99.191 124.878 0v112.5c0 98.969-124.878 80.533-124.878 0z" fill="#ade993"/><path d="m134.868 180.001v-112.5c0-37.219-30.251-67.499-67.434-67.499v247.498c37.183 0 67.434-30.28 67.434-67.499z" fill="#76d081"/><path d="m216.835 390c-35.066 0-67.742-15.72-89.649-43.13-16.188-20.253-40.333-31.869-66.246-31.869h-60.358v-30h60.358c35.067 0 67.743 15.72 89.648 43.13 16.188 20.253 40.335 31.869 66.247 31.869z" fill="#5e9ff6"/><path d="m90.911 421h104.897v30h-104.897z" fill="#5e9ff6"/><path d="m285.721 421h226.279v30h-226.279z" fill="#3d6def"/><path d="m511.5 90.002h-149.853v-15c0-24.813-20.166-45-44.956-45-24.789 0-44.956 20.187-44.956 45v15h-59.941v-30h31.477c6.963-34.19 37.238-60 73.421-60 36.184 0 66.459 25.809 73.422 60h121.386z" fill="#d9e6fc"/></g></svg>