<svg id="Capa_1" enable-background="new 0 0 512 512" height="512" viewBox="0 0 512 512" width="512" xmlns="http://www.w3.org/2000/svg"><g><path d="m101.071 239.005-51.071-51.071 48.93-43.928 94.999 94.999s-21.422 20-47.467 20c-19.188 0-45.041-20-45.391-20z" fill="#8d5b4a"/><path d="m420 419.005h-11c-43.631 0-79-35.369-79-79v-26h11c43.631 0 79 35.37 79 79z" fill="#76d081"/><path d="m384.279 249.005-82.229-10c-10.091 0-280.602 0-302.05 0v75h104.167l.776 2.82c.504 3.896.678 20.955-33.091 27.449-48.161 9.263-59.989 73.083-55.796 121.038l29.888-2.601c-2.482-28.298 2.115-83.312 31.574-88.977 42.96-8.262 59.617-34.893 57.281-59.73h90.201l-90 90h90l77.05-77.05 12.95-19.95 191 1v-59h-121.721z" fill="#b57a6a"/><path d="m465.811 239.005 18.933-56.796c3.459-10.378 15.177-18.204 27.256-18.204v-30c-24.807 0-48.239 16.283-55.717 38.718-.844 2.485 5.032-14.82-22.507 66.282-5.407 0-126.325 0-131.727 0v87.95l12.95-12.95h197v-75z" fill="#8d5b4a"/><path d="m330 68.291c-20.084 0-37.089 16.92-42.878 40.274-1.997 8.477-6.147 40.701-6.147 58.868l88.469-13.429c16.422-38.359-5.187-85.713-39.444-85.713z" fill="#f0ce46"/><path d="m256.024 94.005c-25.418 0-46.024 26.494-46.024 59.175l45.368 28.038 46.682-25.894v-2.145c0-32.68-20.607-59.174-46.026-59.174z" fill="#f6e486"/><path d="m330.5 274.005c-31.289 0-98.897 0-96 0-38.384 0-69.5-31.116-69.5-69.5v-50.5h235v50.5c0 38.384-31.116 69.5-69.5 69.5z" fill="#efe6ca"/><path d="m410 204.505v-50.5h-107.95v120h38.45c38.384 0 69.5-31.116 69.5-69.5z" fill="#e0d0a7"/><path d="m91.077 172.191-10.585-2.988c-41.989-11.857-66.416-55.506-54.56-97.495l7.065-25.021 10.585 2.988c41.99 11.855 66.417 55.508 54.561 97.495z" fill="#ade993"/></g></svg>